LXGWWenKaiTC-Medium.ufo
<glyph name="numbersign" format="2">
  <advance height="1000" width="600"/>
  <unicode hex="0023"/>
  <outline>
    <contour>
      <point x="149" y="-13" type="qcurve" smooth="yes"/>
      <point x="109" y="-13"/>
      <point x="109" y="7" type="qcurve" smooth="yes"/>
      <point x="109" y="10"/>
      <point x="116" y="40" type="qcurve" smooth="yes"/>
      <point x="121" y="61"/>
      <point x="140" y="204" type="qcurve"/>
      <point x="76" y="204"/>
      <point x="58" y="201" type="qcurve" smooth="yes"/>
      <point x="44" y="201"/>
      <point x="31" y="232"/>
      <point x="31" y="246" type="qcurve" smooth="yes"/>
      <point x="31" y="276"/>
      <point x="53" y="276" type="qcurve" smooth="yes"/>
      <point x="83" y="274"/>
      <point x="150" y="274" type="qcurve"/>
      <point x="175" y="459" type="line"/>
      <point x="104" y="459"/>
      <point x="84" y="456" type="qcurve" smooth="yes"/>
      <point x="71" y="456"/>
      <point x="57" y="487"/>
      <point x="57" y="501" type="qcurve" smooth="yes"/>
      <point x="57" y="531"/>
      <point x="79" y="531" type="qcurve" smooth="yes"/>
      <point x="109" y="529"/>
      <point x="185" y="529" type="qcurve"/>
      <point x="206" y="682"/>
      <point x="207" y="705" type="qcurve" smooth="yes"/>
      <point x="207" y="723"/>
      <point x="233" y="723" type="qcurve" smooth="yes"/>
      <point x="286" y="723"/>
      <point x="286" y="694" type="qcurve" smooth="yes"/>
      <point x="284" y="684"/>
      <point x="279" y="667"/>
      <point x="259" y="529" type="qcurve"/>
      <point x="397" y="529" type="line"/>
      <point x="418" y="682"/>
      <point x="419" y="705" type="qcurve" smooth="yes"/>
      <point x="419" y="723"/>
      <point x="445" y="723" type="qcurve" smooth="yes"/>
      <point x="498" y="723"/>
      <point x="498" y="694" type="qcurve"/>
      <point x="491" y="671"/>
      <point x="489" y="659" type="qcurve" smooth="yes"/>
      <point x="471" y="529" type="line"/>
      <point x="510" y="529"/>
      <point x="552" y="532" type="qcurve" smooth="yes"/>
      <point x="567" y="532"/>
      <point x="581" y="503"/>
      <point x="581" y="490" type="qcurve" smooth="yes"/>
      <point x="581" y="458"/>
      <point x="558" y="458" type="qcurve" smooth="yes"/>
      <point x="536" y="459"/>
      <point x="461" y="459" type="qcurve"/>
      <point x="437" y="274" type="line"/>
      <point x="484" y="274"/>
      <point x="526" y="277" type="qcurve" smooth="yes"/>
      <point x="541" y="277"/>
      <point x="555" y="248"/>
      <point x="555" y="236" type="qcurve" smooth="yes"/>
      <point x="555" y="203"/>
      <point x="532" y="203" type="qcurve" smooth="yes"/>
      <point x="510" y="204"/>
      <point x="427" y="204" type="qcurve"/>
      <point x="408" y="65"/>
      <point x="404" y="12" type="qcurve" smooth="yes"/>
      <point x="400" y="-13"/>
      <point x="361" y="-13" type="qcurve" smooth="yes"/>
      <point x="321" y="-13"/>
      <point x="321" y="7" type="qcurve" smooth="yes"/>
      <point x="321" y="11"/>
      <point x="328" y="40" type="qcurve" smooth="yes"/>
      <point x="333" y="56"/>
      <point x="352" y="204" type="qcurve"/>
      <point x="215" y="204" type="line"/>
      <point x="196" y="64"/>
      <point x="192" y="12" type="qcurve" smooth="yes"/>
      <point x="188" y="-13"/>
    </contour>
    <contour>
      <point x="224" y="274" type="qcurve"/>
      <point x="362" y="274" type="line"/>
      <point x="387" y="459" type="line"/>
      <point x="249" y="459" type="line"/>
      <point x="244" y="415"/>
      <point x="231" y="325"/>
    </contour>
  </outline>
</glyph>
<glyph name="comma" format="2">
  <advance height="1000" width="350"/>
  <unicode hex="002C"/>
  <outline>
    <contour>
      <point x="114" y="-110" type="qcurve" smooth="yes"/>
      <point x="95" y="-110"/>
      <point x="95" y="-90" type="qcurve" smooth="yes"/>
      <point x="95" y="-77"/>
      <point x="120" y="-60"/>
      <point x="153" y="-21"/>
      <point x="156" y="-11" type="qcurve"/>
      <point x="111" y="7"/>
      <point x="111" y="50" type="qcurve" smooth="yes"/>
      <point x="111" y="78"/>
      <point x="150" y="108"/>
      <point x="200" y="108"/>
      <point x="234" y="66"/>
      <point x="237" y="38" type="qcurve" smooth="yes"/>
      <point x="237" y="-16"/>
      <point x="147" y="-110"/>
    </contour>
  </outline>
</glyph>
<glyph name="semicolon" format="2">
  <advance height="1000" width="350"/>
  <unicode hex="003B"/>
  <outline>
    <contour>
      <point x="120" y="-106" type="qcurve" smooth="yes"/>
      <point x="100" y="-106"/>
      <point x="100" y="-86" type="qcurve" smooth="yes"/>
      <point x="100" y="-75"/>
      <point x="109" y="-69" type="qcurve" smooth="yes"/>
      <point x="127" y="-57"/>
      <point x="143" y="-38" type="qcurve" smooth="yes"/>
      <point x="158" y="-19"/>
      <point x="162" y="-7" type="qcurve"/>
      <point x="150" y="-7"/>
      <point x="140" y="1" type="qcurve" smooth="yes"/>
      <point x="116" y="23"/>
      <point x="116" y="50" type="qcurve" smooth="yes"/>
      <point x="116" y="76"/>
      <point x="152" y="103"/>
      <point x="198" y="103"/>
      <point x="229" y="63"/>
      <point x="233" y="28" type="qcurve"/>
      <point x="233" y="-8"/>
      <point x="173" y="-85"/>
      <point x="131" y="-103" type="qcurve" smooth="yes"/>
      <point x="125" y="-106"/>
    </contour>
    <contour>
      <point x="236" y="411" type="qcurve" smooth="yes"/>
      <point x="236" y="388"/>
      <point x="208" y="358"/>
      <point x="154" y="358"/>
      <point x="119" y="403"/>
      <point x="119" y="451"/>
      <point x="153" y="478"/>
      <point x="176" y="478" type="qcurve" smooth="yes"/>
      <point x="200" y="478"/>
      <point x="236" y="433"/>
    </contour>
  </outline>
</glyph>
<glyph name="equal" format="2">
  <advance height="1000" width="600"/>
  <unicode hex="003D"/>
  <outline>
    <contour>
      <point x="81" y="306" type="qcurve" smooth="yes"/>
      <point x="67" y="306"/>
      <point x="54" y="337"/>
      <point x="54" y="351" type="qcurve" smooth="yes"/>
      <point x="54" y="381"/>
      <point x="76" y="381" type="qcurve" smooth="yes"/>
      <point x="106" y="379"/>
      <point x="302" y="379" type="qcurve" smooth="yes"/>
      <point x="474" y="379"/>
      <point x="516" y="382" type="qcurve" smooth="yes"/>
      <point x="546" y="382"/>
      <point x="546" y="332" type="qcurve" smooth="yes"/>
      <point x="546" y="307"/>
      <point x="525" y="307" type="qcurve" smooth="yes"/>
      <point x="444" y="309" type="line"/>
      <point x="99" y="309"/>
    </contour>
    <contour>
      <point x="81" y="118" type="qcurve" smooth="yes"/>
      <point x="67" y="118"/>
      <point x="54" y="149"/>
      <point x="54" y="163" type="qcurve" smooth="yes"/>
      <point x="54" y="193"/>
      <point x="76" y="193" type="qcurve" smooth="yes"/>
      <point x="106" y="191"/>
      <point x="302" y="191" type="qcurve" smooth="yes"/>
      <point x="474" y="191"/>
      <point x="516" y="194" type="qcurve" smooth="yes"/>
      <point x="546" y="194"/>
      <point x="546" y="144" type="qcurve" smooth="yes"/>
      <point x="546" y="119"/>
      <point x="525" y="119" type="qcurve" smooth="yes"/>
      <point x="444" y="121" type="line"/>
      <point x="99" y="121"/>
    </contour>
  </outline>
</glyph>
<glyph name="question" format="2">
  <advance height="1000" width="600"/>
  <unicode hex="003F"/>
  <outline>
    <contour>
      <point x="298" y="162" type="qcurve" smooth="yes"/>
      <point x="261" y="162"/>
      <point x="247" y="200"/>
      <point x="247" y="224" type="qcurve" smooth="yes"/>
      <point x="247" y="247"/>
      <point x="257" y="316"/>
      <point x="301" y="375"/>
      <point x="356" y="423"/>
      <point x="383" y="446" type="qcurve" smooth="yes"/>
      <point x="443" y="500"/>
      <point x="443" y="568" type="qcurve" smooth="yes"/>
      <point x="443" y="602"/>
      <point x="400" y="648"/>
      <point x="353" y="648" type="qcurve" smooth="yes"/>
      <point x="304" y="648"/>
      <point x="223" y="611"/>
      <point x="173" y="560"/>
      <point x="161" y="517" type="qcurve" smooth="yes"/>
      <point x="155" y="500"/>
      <point x="137" y="500" type="qcurve" smooth="yes"/>
      <point x="120" y="500"/>
      <point x="84" y="530"/>
      <point x="84" y="544" type="qcurve" smooth="yes"/>
      <point x="84" y="556"/>
      <point x="87" y="560" type="qcurve" smooth="yes"/>
      <point x="177" y="719"/>
      <point x="350" y="719" type="qcurve" smooth="yes"/>
      <point x="434" y="719"/>
      <point x="528" y="642"/>
      <point x="528" y="581" type="qcurve" smooth="yes"/>
      <point x="528" y="521"/>
      <point x="508" y="483" type="qcurve" smooth="yes"/>
      <point x="480" y="430"/>
      <point x="402" y="369" type="qcurve" smooth="yes"/>
      <point x="372" y="346"/>
      <point x="326" y="291"/>
      <point x="326" y="254" type="qcurve" smooth="yes"/>
      <point x="326" y="225"/>
      <point x="336" y="185" type="qcurve"/>
      <point x="336" y="162"/>
    </contour>
    <contour>
      <point x="294" y="-15" type="qcurve" smooth="yes"/>
      <point x="267" y="-15"/>
      <point x="232" y="27"/>
      <point x="232" y="51" type="qcurve" smooth="yes"/>
      <point x="232" y="74"/>
      <point x="261" y="107"/>
      <point x="313" y="107"/>
      <point x="349" y="62"/>
      <point x="349" y="39" type="qcurve" smooth="yes"/>
      <point x="349" y="-15"/>
    </contour>
  </outline>
</glyph>
<glyph name="I" format="2">
  <advance height="1000" width="304"/>
  <unicode hex="0049"/>
  <outline>
    <contour>
      <point x="173" y="-16" type="qcurve" smooth="yes"/>
      <point x="152" y="-16"/>
      <point x="107" y="1"/>
      <point x="107" y="18" type="qcurve" smooth="yes"/>
      <point x="109" y="107" type="line"/>
      <point x="109" y="589"/>
      <point x="106" y="695" type="qcurve" smooth="yes"/>
      <point x="106" y="711"/>
      <point x="132" y="711" type="qcurve" smooth="yes"/>
      <point x="152" y="711"/>
      <point x="197" y="694"/>
      <point x="197" y="677" type="qcurve" smooth="yes"/>
      <point x="195" y="588" type="line"/>
      <point x="195" y="106"/>
      <point x="198" y="0" type="qcurve" smooth="yes"/>
      <point x="198" y="-16"/>
    </contour>
  </outline>
</glyph>
<glyph name="backslash" format="2">
  <advance height="1000" width="350"/>
  <unicode hex="005C"/>
  <outline>
    <contour>
      <point x="297" y="-48" type="qcurve" smooth="yes"/>
      <point x="280" y="-48"/>
      <point x="273" y="-28" type="qcurve" smooth="yes"/>
      <point x="265" y="-1"/>
      <point x="248" y="45" type="qcurve" smooth="yes"/>
      <point x="25" y="658"/>
      <point x="12" y="685" type="qcurve" smooth="yes"/>
      <point x="3" y="705"/>
      <point x="3" y="719"/>
      <point x="20" y="740"/>
      <point x="44" y="757"/>
      <point x="55" y="757" type="qcurve" smooth="yes"/>
      <point x="69" y="757"/>
      <point x="82" y="705"/>
      <point x="97" y="662" type="qcurve" smooth="yes"/>
      <point x="321" y="44"/>
      <point x="342" y="5"/>
      <point x="342" y="-8" type="qcurve" smooth="yes"/>
      <point x="342" y="-22"/>
      <point x="312" y="-48"/>
    </contour>
  </outline>
</glyph>
<glyph name="x" format="2">
  <advance height="1000" width="500"/>
  <unicode hex="0078"/>
  <outline>
    <contour>
      <point x="87" y="-18" type="qcurve" smooth="yes"/>
      <point x="109" y="-18"/>
      <point x="119" y="-2" type="qcurve" smooth="yes"/>
      <point x="125" y="6"/>
      <point x="145" y="39"/>
      <point x="251" y="184" type="qcurve"/>
      <point x="360" y="33"/>
      <point x="381" y="-2" type="qcurve" smooth="yes"/>
      <point x="389" y="-15"/>
      <point x="412" y="-15" type="qcurve" smooth="yes"/>
      <point x="432" y="-15"/>
      <point x="471" y="0"/>
      <point x="471" y="13" type="qcurve" smooth="yes"/>
      <point x="471" y="19"/>
      <point x="417" y="80"/>
      <point x="405" y="96" type="qcurve" smooth="yes"/>
      <point x="295" y="245" type="line"/>
      <point x="403" y="392" type="line" smooth="yes"/>
      <point x="433" y="431"/>
      <point x="459" y="455"/>
      <point x="459" y="461" type="qcurve" smooth="yes"/>
      <point x="459" y="473"/>
      <point x="417" y="490"/>
      <point x="400" y="490" type="qcurve" smooth="yes"/>
      <point x="381" y="490"/>
      <point x="370" y="472"/>
      <point x="354" y="445"/>
      <point x="252" y="305" type="qcurve"/>
      <point x="163" y="428" type="line" smooth="yes"/>
      <point x="148" y="448"/>
      <point x="133" y="475" type="qcurve" smooth="yes"/>
      <point x="126" y="486"/>
      <point x="107" y="486" type="qcurve" smooth="yes"/>
      <point x="89" y="486"/>
      <point x="46" y="469"/>
      <point x="46" y="457" type="qcurve" smooth="yes"/>
      <point x="46" y="451"/>
      <point x="77" y="423"/>
      <point x="102" y="388" type="qcurve" smooth="yes"/>
      <point x="207" y="244" type="line"/>
      <point x="96" y="94" type="line" smooth="yes"/>
      <point x="54" y="41"/>
      <point x="28" y="15"/>
      <point x="28" y="10" type="qcurve" smooth="yes"/>
      <point x="28" y="-3"/>
      <point x="67" y="-18"/>
    </contour>
  </outline>
</glyph>
<glyph name="cent" format="2">
  <advance height="1000" width="556"/>
  <unicode hex="00A2"/>
  <outline>
    <contour>
      <point x="203" y="-90" type="qcurve" smooth="yes"/>
      <point x="190" y="-90"/>
      <point x="154" y="-63"/>
      <point x="154" y="-45" type="qcurve" smooth="yes"/>
      <point x="154" y="-42"/>
      <point x="161" y="-26"/>
      <point x="166" y="-10" type="qcurve" smooth="yes"/>
      <point x="170" y="0" type="line"/>
      <point x="123" y="21"/>
      <point x="51" y="122"/>
      <point x="51" y="190" type="qcurve" smooth="yes"/>
      <point x="51" y="256"/>
      <point x="101" y="365"/>
      <point x="182" y="448"/>
      <point x="281" y="496"/>
      <point x="328" y="496" type="qcurve" smooth="yes"/>
      <point x="346" y="496"/>
      <point x="358" y="495" type="qcurve"/>
      <point x="371" y="532"/>
      <point x="381" y="570" type="qcurve" smooth="yes"/>
      <point x="386" y="582"/>
      <point x="401" y="582" type="qcurve" smooth="yes"/>
      <point x="413" y="582"/>
      <point x="449" y="550"/>
      <point x="449" y="537" type="qcurve" smooth="yes"/>
      <point x="449" y="526"/>
      <point x="430" y="479" type="qcurve"/>
      <point x="470" y="464"/>
      <point x="509" y="416"/>
      <point x="509" y="386"/>
      <point x="476" y="351"/>
      <point x="465" y="351" type="qcurve" smooth="yes"/>
      <point x="453" y="351"/>
      <point x="448" y="359" type="qcurve" smooth="yes"/>
      <point x="424" y="408"/>
      <point x="405" y="413" type="qcurve"/>
      <point x="395" y="389"/>
      <point x="277" y="71"/>
      <point x="267" y="47" type="qcurve"/>
      <point x="408" y="48"/>
      <point x="478" y="124" type="qcurve" smooth="yes"/>
      <point x="493" y="141"/>
      <point x="506" y="141" type="qcurve" smooth="yes"/>
      <point x="521" y="141"/>
      <point x="521" y="124" type="qcurve" smooth="yes"/>
      <point x="521" y="110"/>
      <point x="491" y="63"/>
      <point x="460" y="37" type="qcurve" smooth="yes"/>
      <point x="387" y="-23"/>
      <point x="271" y="-23" type="qcurve" smooth="yes"/>
      <point x="255" y="-23"/>
      <point x="241" y="-21" type="qcurve"/>
      <point x="223" y="-78" type="line" smooth="yes"/>
      <point x="218" y="-90"/>
    </contour>
    <contour>
      <point x="198" y="72" type="qcurve"/>
      <point x="331" y="425" type="line"/>
      <point x="268" y="425"/>
      <point x="131" y="287"/>
      <point x="131" y="113"/>
    </contour>
  </outline>
</glyph>
<glyph name="logicalnot" format="2">
  <advance height="1000" width="590"/>
  <unicode hex="00AC"/>
  <outline>
    <contour>
      <point x="438" y="121" type="qcurve" smooth="yes"/>
      <point x="438" y="303" type="line"/>
      <point x="70" y="303" type="line" smooth="yes"/>
      <point x="56" y="303"/>
      <point x="43" y="327"/>
      <point x="43" y="355"/>
      <point x="56" y="379"/>
      <point x="70" y="379" type="qcurve" smooth="yes"/>
      <point x="457" y="379" type="line" smooth="yes"/>
      <point x="483" y="379"/>
      <point x="514" y="348"/>
      <point x="514" y="322" type="qcurve" smooth="yes"/>
      <point x="514" y="121" type="line" smooth="yes"/>
      <point x="514" y="107"/>
      <point x="490" y="94"/>
      <point x="462" y="94"/>
      <point x="438" y="107"/>
    </contour>
  </outline>
</glyph>
<glyph name="degree" format="2">
  <advance height="1000" width="320"/>
  <unicode hex="00B0"/>
  <outline>
    <contour>
      <point x="22" y="609" type="qcurve" smooth="yes"/>
      <point x="22" y="647"/>
      <point x="59" y="709"/>
      <point x="121" y="747"/>
      <point x="160" y="747" type="qcurve" smooth="yes"/>
      <point x="198" y="747"/>
      <point x="260" y="709"/>
      <point x="298" y="648"/>
      <point x="298" y="572"/>
      <point x="261" y="509"/>
      <point x="199" y="471"/>
      <point x="123" y="471"/>
      <point x="60" y="508"/>
      <point x="22" y="570"/>
    </contour>
    <contour>
      <point x="90" y="611" type="qcurve" smooth="yes"/>
      <point x="90" y="581"/>
      <point x="130" y="539"/>
      <point x="188" y="539"/>
      <point x="230" y="581"/>
      <point x="230" y="639"/>
      <point x="190" y="679"/>
      <point x="162" y="679" type="qcurve" smooth="yes"/>
      <point x="132" y="679"/>
      <point x="90" y="640"/>
    </contour>
  </outline>
</glyph>
<glyph name="Yacute" format="2">
  <advance height="1000" width="600"/>
  <unicode hex="00DD"/>
  <outline>
    <contour>
      <point x="314" y="-15" type="qcurve" smooth="yes"/>
      <point x="294" y="-15"/>
      <point x="250" y="2"/>
      <point x="250" y="19" type="qcurve" smooth="yes"/>
      <point x="252" y="108" type="line"/>
      <point x="252" y="290" type="line"/>
      <point x="157" y="463"/>
      <point x="47" y="623" type="qcurve" smooth="yes"/>
      <point x="26" y="652"/>
      <point x="9" y="674"/>
      <point x="9" y="679" type="qcurve" smooth="yes"/>
      <point x="9" y="694"/>
      <point x="51" y="707"/>
      <point x="71" y="707" type="qcurve" smooth="yes"/>
      <point x="93" y="707"/>
      <point x="99" y="698" type="qcurve" smooth="yes"/>
      <point x="107" y="685"/>
      <point x="125" y="650"/>
      <point x="174" y="570"/>
      <point x="259" y="433"/>
      <point x="294" y="372" type="qcurve"/>
      <point x="378" y="508"/>
      <point x="485" y="678"/>
      <point x="498" y="702" type="qcurve" smooth="yes"/>
      <point x="506" y="715"/>
      <point x="527" y="715" type="qcurve" smooth="yes"/>
      <point x="546" y="715"/>
      <point x="588" y="696"/>
      <point x="588" y="682" type="qcurve"/>
      <point x="585" y="675" type="line"/>
      <point x="510" y="584"/>
      <point x="365" y="342" type="qcurve"/>
      <point x="336" y="292" type="line"/>
      <point x="336" y="107"/>
      <point x="339" y="1" type="qcurve" smooth="yes"/>
      <point x="339" y="-15"/>
    </contour>
    <contour>
      <point x="201" y="758" type="qcurve" smooth="yes"/>
      <point x="201" y="782"/>
      <point x="354" y="884" type="qcurve" smooth="yes"/>
      <point x="358" y="886"/>
      <point x="366" y="886" type="qcurve" smooth="yes"/>
      <point x="375" y="886"/>
      <point x="389" y="875" type="qcurve" smooth="yes"/>
      <point x="428" y="849"/>
      <point x="428" y="826" type="qcurve" smooth="yes"/>
      <point x="428" y="815"/>
      <point x="417" y="810" type="qcurve" smooth="yes"/>
      <point x="368" y="792"/>
      <point x="272" y="759"/>
      <point x="231" y="735"/>
      <point x="215" y="735"/>
      <point x="201" y="749"/>
    </contour>
  </outline>
</glyph>
<glyph name="germandbls" format="2">
  <advance height="1000" width="610"/>
  <unicode hex="00DF"/>
  <outline>
    <contour>
      <point x="158" y="-14" type="qcurve" smooth="yes"/>
      <point x="138" y="-14"/>
      <point x="96" y="4"/>
      <point x="96" y="22" type="qcurve" smooth="yes"/>
      <point x="97" y="30"/>
      <point x="97" y="479" type="qcurve" smooth="yes"/>
      <point x="97" y="617"/>
      <point x="166" y="679" type="qcurve" smooth="yes"/>
      <point x="223" y="732"/>
      <point x="393" y="732"/>
      <point x="491" y="643"/>
      <point x="491" y="509"/>
      <point x="407" y="422"/>
      <point x="388" y="416" type="qcurve"/>
      <point x="408" y="416"/>
      <point x="499" y="363"/>
      <point x="553" y="275"/>
      <point x="553" y="155"/>
      <point x="501" y="53"/>
      <point x="406" y="-8"/>
      <point x="344" y="-8" type="qcurve" smooth="yes"/>
      <point x="281" y="-8"/>
      <point x="226" y="30" type="qcurve" smooth="yes"/>
      <point x="194" y="51"/>
      <point x="180" y="69" type="qcurve"/>
      <point x="183" y="3" type="line" smooth="yes"/>
      <point x="183" y="-14"/>
    </contour>
    <contour>
      <point x="329" y="68" type="qcurve" smooth="yes"/>
      <point x="396" y="68"/>
      <point x="467" y="143"/>
      <point x="467" y="215" type="qcurve" smooth="yes"/>
      <point x="467" y="286"/>
      <point x="380" y="362"/>
      <point x="299" y="362" type="qcurve" smooth="yes"/>
      <point x="262" y="362"/>
      <point x="227" y="352" type="qcurve"/>
      <point x="210" y="352"/>
      <point x="188" y="396"/>
      <point x="188" y="411" type="qcurve" smooth="yes"/>
      <point x="188" y="431"/>
      <point x="202" y="431" type="qcurve" smooth="yes"/>
      <point x="318" y="435"/>
      <point x="378" y="495" type="qcurve" smooth="yes"/>
      <point x="406" y="524"/>
      <point x="406" y="571" type="qcurve" smooth="yes"/>
      <point x="406" y="655"/>
      <point x="312" y="655" type="qcurve" smooth="yes"/>
      <point x="179" y="655"/>
      <point x="179" y="472" type="qcurve" smooth="yes"/>
      <point x="179" y="113" type="line"/>
      <point x="183" y="115"/>
      <point x="189" y="115" type="qcurve" smooth="yes"/>
      <point x="200" y="115"/>
      <point x="222" y="98" type="qcurve" smooth="yes"/>
      <point x="260" y="68"/>
    </contour>
  </outline>
</glyph>
<glyph name="egrave" format="2">
  <advance height="1000" width="543"/>
  <unicode hex="00E8"/>
  <outline>
    <contour>
      <point x="244" y="-24" type="qcurve" smooth="yes"/>
      <point x="191" y="-24"/>
      <point x="148" y="2" type="qcurve" smooth="yes"/>
      <point x="56" y="59"/>
      <point x="56" y="206" type="qcurve"/>
      <point x="34" y="223"/>
      <point x="34" y="240" type="qcurve" smooth="yes"/>
      <point x="34" y="260"/>
      <point x="59" y="260" type="qcurve"/>
      <point x="64" y="261" type="line"/>
      <point x="78" y="337"/>
      <point x="223" y="492"/>
      <point x="319" y="492" type="qcurve" smooth="yes"/>
      <point x="383" y="492"/>
      <point x="421" y="469" type="qcurve" smooth="yes"/>
      <point x="491" y="428"/>
      <point x="491" y="340" type="qcurve" smooth="yes"/>
      <point x="491" y="305"/>
      <point x="479" y="262"/>
      <point x="437" y="236"/>
      <point x="391" y="221" type="qcurve" smooth="yes"/>
      <point x="290" y="190"/>
      <point x="133" y="190" type="qcurve"/>
      <point x="133" y="123"/>
      <point x="197" y="47"/>
      <point x="251" y="47" type="qcurve" smooth="yes"/>
      <point x="374" y="47"/>
      <point x="451" y="129" type="qcurve" smooth="yes"/>
      <point x="465" y="146"/>
      <point x="478" y="146" type="qcurve" smooth="yes"/>
      <point x="494" y="146"/>
      <point x="494" y="130" type="qcurve" smooth="yes"/>
      <point x="494" y="117"/>
      <point x="464" y="69"/>
      <point x="433" y="42" type="qcurve" smooth="yes"/>
      <point x="358" y="-24"/>
    </contour>
    <contour>
      <point x="143" y="258" type="qcurve"/>
      <point x="155" y="258" type="line" smooth="yes"/>
      <point x="266" y="258"/>
      <point x="360" y="284" type="qcurve" smooth="yes"/>
      <point x="394" y="294"/>
      <point x="413" y="317"/>
      <point x="413" y="341" type="qcurve" smooth="yes"/>
      <point x="413" y="422"/>
      <point x="318" y="422" type="qcurve" smooth="yes"/>
      <point x="252" y="422"/>
      <point x="155" y="310"/>
    </contour>
    <contour>
      <point x="357" y="568" type="qcurve" smooth="yes"/>
      <point x="350" y="568"/>
      <point x="309" y="592"/>
      <point x="214" y="625"/>
      <point x="164" y="643" type="qcurve" smooth="yes"/>
      <point x="153" y="648"/>
      <point x="153" y="661" type="qcurve" smooth="yes"/>
      <point x="153" y="671"/>
      <point x="177" y="699"/>
      <point x="207" y="719"/>
      <point x="216" y="719" type="qcurve" smooth="yes"/>
      <point x="223" y="719"/>
      <point x="227" y="717" type="qcurve" smooth="yes"/>
      <point x="380" y="616"/>
      <point x="380" y="591" type="qcurve" smooth="yes"/>
      <point x="380" y="568"/>
    </contour>
  </outline>
</glyph>
<glyph name="idieresis" format="2">
  <advance height="1000" width="263"/>
  <unicode hex="00EF"/>
  <outline>
    <contour>
      <point x="152" y="-16" type="qcurve" smooth="yes"/>
      <point x="133" y="-16"/>
      <point x="89" y="1"/>
      <point x="89" y="17" type="qcurve" smooth="yes"/>
      <point x="91" y="105" type="line"/>
      <point x="91" y="368"/>
      <point x="88" y="475" type="qcurve" smooth="yes"/>
      <point x="88" y="490"/>
      <point x="112" y="490" type="qcurve" smooth="yes"/>
      <point x="131" y="490"/>
      <point x="174" y="473"/>
      <point x="174" y="457" type="qcurve" smooth="yes"/>
      <point x="172" y="368" type="line"/>
      <point x="172" y="105"/>
      <point x="175" y="-1" type="qcurve" smooth="yes"/>
      <point x="175" y="-16"/>
    </contour>
    <contour>
      <point x="20" y="586"/>
      <point x="-17" y="631"/>
      <point x="-17" y="677"/>
      <point x="10" y="707"/>
      <point x="58" y="707"/>
      <point x="96" y="664"/>
      <point x="96" y="616"/>
      <point x="68" y="586"/>
    </contour>
    <contour>
      <point x="203" y="586"/>
      <point x="166" y="631"/>
      <point x="166" y="677"/>
      <point x="193" y="707"/>
      <point x="241" y="707"/>
      <point x="279" y="664"/>
      <point x="279" y="616"/>
      <point x="251" y="586"/>
    </contour>
  </outline>
</glyph>
<glyph name="ocircumflex" format="2">
  <advance height="1000" width="562"/>
  <unicode hex="00F4"/>
  <outline>
    <contour>
      <point x="273" y="-24" type="qcurve" smooth="yes"/>
      <point x="164" y="-24"/>
      <point x="50" y="101"/>
      <point x="50" y="207" type="qcurve" smooth="yes"/>
      <point x="50" y="289"/>
      <point x="101" y="377" type="qcurve" smooth="yes"/>
      <point x="121" y="414"/>
      <point x="163" y="460"/>
      <point x="177" y="460" type="qcurve" smooth="yes"/>
      <point x="190" y="460"/>
      <point x="195" y="453" type="qcurve"/>
      <point x="247" y="492"/>
      <point x="371" y="492"/>
      <point x="416" y="462" type="qcurve" smooth="yes"/>
      <point x="512" y="399"/>
      <point x="512" y="245" type="qcurve" smooth="yes"/>
      <point x="512" y="141"/>
      <point x="449" y="62" type="qcurve" smooth="yes"/>
      <point x="381" y="-24"/>
    </contour>
    <contour>
      <point x="267" y="49" type="qcurve" smooth="yes"/>
      <point x="314" y="49"/>
      <point x="388" y="100"/>
      <point x="433" y="189"/>
      <point x="433" y="258" type="qcurve" smooth="yes"/>
      <point x="433" y="326"/>
      <point x="371" y="420"/>
      <point x="231" y="420"/>
      <point x="129" y="287"/>
      <point x="129" y="208" type="qcurve" smooth="yes"/>
      <point x="129" y="49"/>
    </contour>
    <contour>
      <point x="163" y="559" type="qcurve" smooth="yes"/>
      <point x="139" y="559"/>
      <point x="139" y="581" type="qcurve" smooth="yes"/>
      <point x="139" y="598"/>
      <point x="222" y="682" type="qcurve" smooth="yes"/>
      <point x="242" y="703"/>
      <point x="266" y="727"/>
      <point x="289" y="731"/>
      <point x="312" y="731" type="qcurve" smooth="yes"/>
      <point x="336" y="731"/>
      <point x="362" y="705"/>
      <point x="382" y="686" type="qcurve" smooth="yes"/>
      <point x="470" y="601"/>
      <point x="470" y="582" type="qcurve" smooth="yes"/>
      <point x="470" y="559"/>
      <point x="446" y="559" type="qcurve" smooth="yes"/>
      <point x="436" y="559"/>
      <point x="399" y="591"/>
      <point x="305" y="650" type="qcurve"/>
      <point x="208" y="588"/>
      <point x="173" y="559"/>
    </contour>
  </outline>
</glyph>
<glyph name="Abreve" format="2">
  <advance height="1000" width="690"/>
  <unicode hex="0102"/>
  <outline>
    <contour>
      <point x="601" y="1" type="qcurve" smooth="yes"/>
      <point x="582" y="57"/>
      <point x="561" y="107" type="qcurve" smooth="yes"/>
      <point x="503" y="233" type="line"/>
      <point x="184" y="219" type="line"/>
      <point x="169" y="188"/>
      <point x="153" y="156" type="qcurve" smooth="yes"/>
      <point x="123" y="96" type="line" smooth="yes"/>
      <point x="105" y="59"/>
      <point x="87" y="8" type="qcurve" smooth="yes"/>
      <point x="79" y="-13"/>
      <point x="-7" y="-13"/>
      <point x="-7" y="12" type="qcurve" smooth="yes"/>
      <point x="-7" y="20"/>
      <point x="2" y="32"/>
      <point x="10" y="47"/>
      <point x="29" y="83"/>
      <point x="68" y="156"/>
      <point x="96" y="212" type="qcurve"/>
      <point x="99" y="212" type="line"/>
      <point x="83" y="212"/>
      <point x="61" y="253"/>
      <point x="61" y="291"/>
      <point x="78" y="291" type="qcurve" smooth="yes"/>
      <point x="80" y="291" type="line" smooth="yes"/>
      <point x="98" y="289"/>
      <point x="119" y="289" type="qcurve" smooth="yes"/>
      <point x="134" y="289" type="line"/>
      <point x="268" y="555"/>
      <point x="306" y="655" type="qcurve" smooth="yes"/>
      <point x="310" y="664"/>
      <point x="314" y="701"/>
      <point x="327" y="717"/>
      <point x="362" y="717"/>
      <point x="404" y="697"/>
      <point x="408" y="680" type="qcurve"/>
      <point x="405" y="660" type="line" smooth="yes"/>
      <point x="405" y="648"/>
      <point x="458" y="522" type="qcurve" smooth="yes"/>
      <point x="624" y="127"/>
      <point x="685" y="39" type="qcurve" smooth="yes"/>
      <point x="697" y="22"/>
      <point x="697" y="16" type="qcurve" smooth="yes"/>
      <point x="697" y="0"/>
      <point x="656" y="-15"/>
      <point x="607" y="-15"/>
    </contour>
    <contour>
      <point x="220" y="291" type="qcurve"/>
      <point x="473" y="302" type="line"/>
      <point x="391" y="491"/>
      <point x="356" y="585" type="qcurve"/>
      <point x="278" y="413"/>
    </contour>
    <contour>
      <point x="489" y="811" type="qcurve" smooth="yes"/>
      <point x="439" y="767"/>
      <point x="283" y="767"/>
      <point x="190" y="846"/>
      <point x="190" y="867" type="qcurve" smooth="yes"/>
      <point x="190" y="878"/>
      <point x="216" y="899"/>
      <point x="244" y="899"/>
      <point x="252" y="886" type="qcurve" smooth="yes"/>
      <point x="265" y="865"/>
      <point x="322" y="837"/>
      <point x="397" y="837"/>
      <point x="454" y="865"/>
      <point x="466" y="886" type="qcurve" smooth="yes"/>
      <point x="474" y="899"/>
      <point x="502" y="899"/>
      <point x="528" y="878"/>
      <point x="528" y="868" type="qcurve" smooth="yes"/>
      <point x="528" y="847"/>
    </contour>
  </outline>
</glyph>
<glyph name="Aogonek" format="2">
  <advance height="1000" width="690"/>
  <unicode hex="0104"/>
  <outline>
    <contour>
      <point x="636" y="-104" type="qcurve" smooth="yes"/>
      <point x="636" y="-131"/>
      <point x="710" y="-131"/>
      <point x="741" y="-104" type="qcurve" smooth="yes"/>
      <point x="754" y="-91"/>
      <point x="783" y="-91"/>
      <point x="783" y="-122"/>
      <point x="748" y="-165"/>
      <point x="693" y="-198"/>
      <point x="609" y="-198"/>
      <point x="556" y="-148"/>
      <point x="556" y="-72"/>
      <point x="571" y="-41" type="qcurve" smooth="yes"/>
      <point x="584" y="-11"/>
      <point x="592" y="-4" type="qcurve"/>
      <point x="601" y="-4"/>
      <point x="601" y="2" type="qcurve" smooth="yes"/>
      <point x="597" y="13" type="line" smooth="yes"/>
      <point x="580" y="62"/>
      <point x="561" y="107" type="qcurve" smooth="yes"/>
      <point x="503" y="233" type="line"/>
      <point x="184" y="219" type="line"/>
      <point x="169" y="188"/>
      <point x="153" y="156" type="qcurve" smooth="yes"/>
      <point x="123" y="96" type="line" smooth="yes"/>
      <point x="105" y="59"/>
      <point x="87" y="8" type="qcurve" smooth="yes"/>
      <point x="79" y="-13"/>
      <point x="-7" y="-13"/>
      <point x="-7" y="12" type="qcurve" smooth="yes"/>
      <point x="-7" y="20"/>
      <point x="2" y="32"/>
      <point x="10" y="47"/>
      <point x="29" y="83"/>
      <point x="68" y="156"/>
      <point x="96" y="212" type="qcurve"/>
      <point x="99" y="212" type="line"/>
      <point x="83" y="212"/>
      <point x="61" y="253"/>
      <point x="61" y="291"/>
      <point x="78" y="291" type="qcurve" smooth="yes"/>
      <point x="80" y="291" type="line" smooth="yes"/>
      <point x="98" y="289"/>
      <point x="119" y="289" type="qcurve" smooth="yes"/>
      <point x="134" y="289" type="line"/>
      <point x="268" y="555"/>
      <point x="306" y="655" type="qcurve" smooth="yes"/>
      <point x="310" y="664"/>
      <point x="314" y="701"/>
      <point x="327" y="717"/>
      <point x="362" y="717"/>
      <point x="404" y="697"/>
      <point x="408" y="680" type="qcurve"/>
      <point x="405" y="660" type="line" smooth="yes"/>
      <point x="405" y="648"/>
      <point x="458" y="522" type="qcurve" smooth="yes"/>
      <point x="624" y="127"/>
      <point x="685" y="39" type="qcurve" smooth="yes"/>
      <point x="697" y="22"/>
      <point x="697" y="16" type="qcurve" smooth="yes"/>
      <point x="697" y="2"/>
      <point x="682" y="-5" type="qcurve"/>
      <point x="636" y="-50"/>
    </contour>
    <contour>
      <point x="220" y="291" type="qcurve"/>
      <point x="473" y="302" type="line"/>
      <point x="391" y="491"/>
      <point x="356" y="585" type="qcurve"/>
      <point x="278" y="413"/>
    </contour>
  </outline>
</glyph>
<glyph name="cacute" format="2">
  <advance height="1000" width="530"/>
  <unicode hex="0107"/>
  <outline>
    <contour>
      <point x="250" y="-24" type="qcurve" smooth="yes"/>
      <point x="196" y="-24"/>
      <point x="105" y="27"/>
      <point x="50" y="124"/>
      <point x="50" y="255"/>
      <point x="96" y="363"/>
      <point x="171" y="445"/>
      <point x="266" y="492"/>
      <point x="355" y="492"/>
      <point x="413" y="468"/>
      <point x="448" y="435"/>
      <point x="464" y="406"/>
      <point x="464" y="401" type="qcurve" smooth="yes"/>
      <point x="464" y="383"/>
      <point x="430" y="349"/>
      <point x="407" y="349"/>
      <point x="402" y="357" type="qcurve" smooth="yes"/>
      <point x="395" y="371"/>
      <point x="381" y="396"/>
      <point x="372" y="402" type="qcurve" smooth="yes"/>
      <point x="344" y="421"/>
      <point x="315" y="421" type="qcurve" smooth="yes"/>
      <point x="254" y="421"/>
      <point x="192" y="356" type="qcurve" smooth="yes"/>
      <point x="130" y="286"/>
      <point x="130" y="199" type="qcurve" smooth="yes"/>
      <point x="130" y="149"/>
      <point x="149" y="115" type="qcurve" smooth="yes"/>
      <point x="187" y="46"/>
      <point x="257" y="46" type="qcurve" smooth="yes"/>
      <point x="351" y="46"/>
      <point x="449" y="144" type="qcurve" smooth="yes"/>
      <point x="466" y="161"/>
      <point x="492" y="161"/>
      <point x="492" y="135"/>
      <point x="463" y="82"/>
      <point x="433" y="52" type="qcurve" smooth="yes"/>
      <point x="360" y="-24"/>
    </contour>
    <contour>
      <point x="401" y="643" type="qcurve" smooth="yes"/>
      <point x="352" y="625"/>
      <point x="256" y="592"/>
      <point x="215" y="568"/>
      <point x="199" y="568"/>
      <point x="185" y="582"/>
      <point x="185" y="599"/>
      <point x="225" y="642"/>
      <point x="338" y="717" type="qcurve" smooth="yes"/>
      <point x="342" y="719"/>
      <point x="359" y="719"/>
      <point x="373" y="709" type="qcurve" smooth="yes"/>
      <point x="412" y="682"/>
      <point x="412" y="659" type="qcurve" smooth="yes"/>
      <point x="412" y="648"/>
    </contour>
  </outline>
</glyph>
<glyph name="Eogonek" format="2">
  <advance height="1000" width="638"/>
  <unicode hex="0118"/>
  <outline>
    <contour>
      <point x="539" y="-105" type="qcurve" smooth="yes"/>
      <point x="539" y="-132"/>
      <point x="613" y="-132"/>
      <point x="644" y="-105" type="qcurve" smooth="yes"/>
      <point x="657" y="-92"/>
      <point x="686" y="-92"/>
      <point x="686" y="-123"/>
      <point x="651" y="-166"/>
      <point x="596" y="-199"/>
      <point x="512" y="-199"/>
      <point x="459" y="-149"/>
      <point x="459" y="-73"/>
      <point x="474" y="-42" type="qcurve" smooth="yes"/>
      <point x="487" y="-12"/>
      <point x="495" y="-5" type="qcurve"/>
      <point x="473" y="-5" type="line"/>
      <point x="195" y="-9" type="line" smooth="yes"/>
      <point x="180" y="-9"/>
      <point x="157" y="-16"/>
      <point x="124" y="-16"/>
      <point x="93" y="23"/>
      <point x="93" y="37" type="qcurve" smooth="yes"/>
      <point x="100" y="84" type="line"/>
      <point x="100" y="340" type="line"/>
      <point x="90" y="346"/>
      <point x="73" y="381"/>
      <point x="73" y="410"/>
      <point x="87" y="410" type="qcurve" smooth="yes"/>
      <point x="90" y="410" type="line" smooth="yes"/>
      <point x="98" y="408"/>
      <point x="100" y="408" type="qcurve"/>
      <point x="100" y="634" type="line"/>
      <point x="96" y="685" type="line" smooth="yes"/>
      <point x="96" y="705"/>
      <point x="131" y="705"/>
      <point x="151" y="698" type="qcurve" smooth="yes"/>
      <point x="171" y="692" type="line"/>
      <point x="440" y="710" type="line" smooth="yes"/>
      <point x="462" y="712"/>
      <point x="514" y="718"/>
      <point x="540" y="718"/>
      <point x="563" y="679"/>
      <point x="563" y="640"/>
      <point x="544" y="640" type="qcurve" smooth="yes"/>
      <point x="482" y="640" type="line" smooth="yes"/>
      <point x="455" y="640"/>
      <point x="441" y="639" type="qcurve" smooth="yes"/>
      <point x="180" y="621" type="line"/>
      <point x="180" y="409" type="line"/>
      <point x="385" y="422" type="line" smooth="yes"/>
      <point x="407" y="424"/>
      <point x="459" y="430"/>
      <point x="485" y="430"/>
      <point x="508" y="391"/>
      <point x="508" y="351"/>
      <point x="489" y="351" type="qcurve" smooth="yes"/>
      <point x="426" y="351" type="line" smooth="yes"/>
      <point x="400" y="351"/>
      <point x="386" y="350" type="qcurve" smooth="yes"/>
      <point x="180" y="338" type="line"/>
      <point x="180" y="65" type="line"/>
      <point x="472" y="70" type="line" smooth="yes"/>
      <point x="510" y="70"/>
      <point x="555" y="73" type="qcurve" smooth="yes"/>
      <point x="556" y="73" type="line" smooth="yes"/>
      <point x="573" y="73"/>
      <point x="594" y="31"/>
      <point x="594" y="14" type="qcurve" smooth="yes"/>
      <point x="594" y="-2"/>
      <point x="585" y="-6" type="qcurve" smooth="yes"/>
      <point x="539" y="-51"/>
    </contour>
  </outline>
</glyph>
<glyph name="ecaron" format="2">
  <advance height="1000" width="543"/>
  <unicode hex="011B"/>
  <outline>
    <contour>
      <point x="244" y="-24" type="qcurve" smooth="yes"/>
      <point x="191" y="-24"/>
      <point x="148" y="2" type="qcurve" smooth="yes"/>
      <point x="56" y="59"/>
      <point x="56" y="206" type="qcurve"/>
      <point x="35" y="222"/>
      <point x="35" y="260"/>
      <point x="60" y="260" type="qcurve" smooth="yes"/>
      <point x="64" y="260" type="line"/>
      <point x="78" y="337"/>
      <point x="223" y="492"/>
      <point x="319" y="492" type="qcurve" smooth="yes"/>
      <point x="383" y="492"/>
      <point x="421" y="469" type="qcurve" smooth="yes"/>
      <point x="491" y="428"/>
      <point x="491" y="340" type="qcurve" smooth="yes"/>
      <point x="491" y="305"/>
      <point x="479" y="262"/>
      <point x="437" y="236"/>
      <point x="391" y="221" type="qcurve" smooth="yes"/>
      <point x="290" y="190"/>
      <point x="133" y="190" type="qcurve"/>
      <point x="133" y="123"/>
      <point x="197" y="47"/>
      <point x="251" y="47" type="qcurve" smooth="yes"/>
      <point x="374" y="47"/>
      <point x="451" y="129" type="qcurve" smooth="yes"/>
      <point x="465" y="146"/>
      <point x="478" y="146" type="qcurve" smooth="yes"/>
      <point x="494" y="146"/>
      <point x="494" y="130" type="qcurve" smooth="yes"/>
      <point x="494" y="117"/>
      <point x="464" y="69"/>
      <point x="433" y="42" type="qcurve" smooth="yes"/>
      <point x="358" y="-24"/>
    </contour>
    <contour>
      <point x="143" y="258" type="qcurve"/>
      <point x="155" y="258" type="line" smooth="yes"/>
      <point x="266" y="258"/>
      <point x="360" y="284" type="qcurve" smooth="yes"/>
      <point x="394" y="294"/>
      <point x="413" y="317"/>
      <point x="413" y="341" type="qcurve" smooth="yes"/>
      <point x="413" y="422"/>
      <point x="318" y="422" type="qcurve" smooth="yes"/>
      <point x="252" y="422"/>
      <point x="155" y="310"/>
    </contour>
    <contour>
      <point x="271" y="563" type="qcurve" smooth="yes"/>
      <point x="239" y="563"/>
      <point x="226" y="573" type="qcurve" smooth="yes"/>
      <point x="105" y="688"/>
      <point x="105" y="713" type="qcurve" smooth="yes"/>
      <point x="105" y="735"/>
      <point x="129" y="735" type="qcurve" smooth="yes"/>
      <point x="139" y="735"/>
      <point x="171" y="708"/>
      <point x="239" y="665"/>
      <point x="271" y="644" type="qcurve"/>
      <point x="303" y="665"/>
      <point x="370" y="708"/>
      <point x="402" y="735"/>
      <point x="412" y="735" type="qcurve" smooth="yes"/>
      <point x="436" y="735"/>
      <point x="436" y="713" type="qcurve" smooth="yes"/>
      <point x="436" y="693"/>
      <point x="348" y="608" type="qcurve" smooth="yes"/>
      <point x="328" y="589"/>
      <point x="302" y="563"/>
    </contour>
  </outline>
</glyph>
<glyph name="IJ" format="2">
  <advance height="1000" width="492"/>
  <unicode hex="0132"/>
  <outline>
    <contour>
      <point x="336" y="-6" type="qcurve" smooth="yes"/>
      <point x="295" y="-23"/>
      <point x="196" y="-23"/>
      <point x="119" y="14"/>
      <point x="72" y="66"/>
      <point x="50" y="113"/>
      <point x="50" y="137"/>
      <point x="70" y="163"/>
      <point x="97" y="179"/>
      <point x="124" y="179"/>
      <point x="127" y="163" type="qcurve" smooth="yes"/>
      <point x="142" y="94"/>
      <point x="188" y="69" type="qcurve" smooth="yes"/>
      <point x="216" y="55"/>
      <point x="272" y="55"/>
      <point x="296" y="65" type="qcurve" smooth="yes"/>
      <point x="347" y="89"/>
      <point x="347" y="180" type="qcurve" smooth="yes"/>
      <point x="347" y="589" type="line"/>
      <point x="344" y="695" type="line" smooth="yes"/>
      <point x="344" y="711"/>
      <point x="389" y="711"/>
      <point x="432" y="694"/>
      <point x="432" y="677" type="qcurve" smooth="yes"/>
      <point x="430" y="588" type="line"/>
      <point x="430" y="177" type="line" smooth="yes"/>
      <point x="430" y="34"/>
    </contour>
    <contour>
      <point x="195" y="250" type="line" smooth="yes"/>
      <point x="195" y="236"/>
      <point x="153" y="236"/>
      <point x="109" y="252"/>
      <point x="109" y="267" type="qcurve" smooth="yes"/>
      <point x="111" y="350" type="line"/>
      <point x="111" y="596" type="line"/>
      <point x="108" y="697" type="line" smooth="yes"/>
      <point x="108" y="711"/>
      <point x="151" y="711"/>
      <point x="194" y="695"/>
      <point x="194" y="680" type="qcurve" smooth="yes"/>
      <point x="192" y="596" type="line"/>
      <point x="192" y="350" type="line"/>
    </contour>
  </outline>
</glyph>
<glyph name="lcaron" format="2">
  <advance height="1000" width="302"/>
  <unicode hex="013E"/>
  <outline>
    <contour>
      <point x="166" y="-27" type="line"/>
      <point x="129" y="-23"/>
      <point x="110" y="1" type="qcurve" smooth="yes"/>
      <point x="92" y="27"/>
      <point x="91" y="75" type="qcurve" smooth="yes"/>
      <point x="91" y="590" type="line"/>
      <point x="88" y="697" type="line" smooth="yes"/>
      <point x="88" y="713"/>
      <point x="132" y="713"/>
      <point x="174" y="696"/>
      <point x="174" y="679" type="qcurve" smooth="yes"/>
      <point x="172" y="590" type="line"/>
      <point x="172" y="78" type="line" smooth="yes"/>
      <point x="172" y="53"/>
      <point x="176" y="48" type="qcurve" smooth="yes"/>
      <point x="177" y="46"/>
      <point x="183" y="46" type="qcurve" smooth="yes"/>
      <point x="185" y="46" type="line" smooth="yes"/>
      <point x="203" y="47"/>
      <point x="228" y="72" type="qcurve" smooth="yes"/>
      <point x="242" y="85"/>
      <point x="269" y="85"/>
      <point x="269" y="45"/>
      <point x="241" y="9" type="qcurve" smooth="yes"/>
      <point x="209" y="-27"/>
      <point x="176" y="-27" type="qcurve" smooth="yes"/>
    </contour>
    <contour>
      <point x="239" y="493" type="qcurve" smooth="yes"/>
      <point x="234" y="670" type="line" smooth="yes"/>
      <point x="234" y="683"/>
      <point x="259" y="694"/>
      <point x="271" y="694" type="qcurve" smooth="yes"/>
      <point x="308" y="694"/>
      <point x="308" y="671" type="qcurve" smooth="yes"/>
      <point x="308" y="670" type="line"/>
      <point x="303" y="494" type="line" smooth="yes"/>
      <point x="303" y="475"/>
      <point x="242" y="475"/>
    </contour>
  </outline>
</glyph>
<glyph name="Ldot" format="2">
  <advance height="1000" width="547"/>
  <unicode hex="013F"/>
  <outline>
    <contour>
      <point x="139" y="-15" type="line" smooth="yes"/>
      <point x="119" y="-15"/>
      <point x="101" y="16" type="qcurve" smooth="yes"/>
      <point x="93" y="28"/>
      <point x="93" y="45"/>
      <point x="100" y="59"/>
      <point x="100" y="70" type="qcurve" smooth="yes"/>
      <point x="100" y="589" type="line"/>
      <point x="97" y="695" type="line" smooth="yes"/>
      <point x="97" y="711"/>
      <point x="142" y="711"/>
      <point x="186" y="694"/>
      <point x="186" y="677" type="qcurve" smooth="yes"/>
      <point x="184" y="588" type="line"/>
      <point x="184" y="65" type="line"/>
      <point x="256" y="70"/>
      <point x="345" y="70" type="qcurve" smooth="yes"/>
      <point x="458" y="70" type="line" smooth="yes"/>
      <point x="482" y="70"/>
      <point x="495" y="71" type="qcurve" smooth="yes"/>
      <point x="496" y="71" type="line" smooth="yes"/>
      <point x="513" y="71"/>
      <point x="534" y="28"/>
      <point x="534" y="-11"/>
      <point x="517" y="-11" type="qcurve" smooth="yes"/>
      <point x="516" y="-11" type="line"/>
      <point x="477" y="-5"/>
      <point x="413" y="-5" type="qcurve" smooth="yes"/>
      <point x="372" y="-5" type="line" smooth="yes"/>
      <point x="181" y="-5"/>
      <point x="143" y="-15" type="qcurve"/>
    </contour>
    <contour>
      <point x="428" y="386"/>
      <point x="380" y="386"/>
      <point x="343" y="431"/>
      <point x="343" y="477"/>
      <point x="370" y="507"/>
      <point x="418" y="507"/>
      <point x="456" y="464"/>
      <point x="456" y="416"/>
    </contour>
  </outline>
</glyph>
<glyph name="ldot" format="2">
  <advance height="1000" width="300"/>
  <unicode hex="0140"/>
  <outline>
    <contour>
      <point x="166" y="-27" type="line"/>
      <point x="129" y="-23"/>
      <point x="110" y="1" type="qcurve" smooth="yes"/>
      <point x="92" y="27"/>
      <point x="91" y="75" type="qcurve" smooth="yes"/>
      <point x="91" y="590" type="line"/>
      <point x="88" y="697" type="line" smooth="yes"/>
      <point x="88" y="713"/>
      <point x="132" y="713"/>
      <point x="174" y="696"/>
      <point x="174" y="679" type="qcurve" smooth="yes"/>
      <point x="172" y="590" type="line"/>
      <point x="172" y="78" type="line" smooth="yes"/>
      <point x="172" y="53"/>
      <point x="176" y="48" type="qcurve" smooth="yes"/>
      <point x="177" y="46"/>
      <point x="183" y="46" type="qcurve" smooth="yes"/>
      <point x="185" y="46" type="line" smooth="yes"/>
      <point x="203" y="47"/>
      <point x="228" y="72" type="qcurve" smooth="yes"/>
      <point x="242" y="85"/>
      <point x="269" y="85"/>
      <point x="269" y="45"/>
      <point x="241" y="9" type="qcurve" smooth="yes"/>
      <point x="209" y="-27"/>
      <point x="176" y="-27" type="qcurve" smooth="yes"/>
    </contour>
    <contour>
      <point x="278" y="386"/>
      <point x="230" y="386"/>
      <point x="193" y="431"/>
      <point x="193" y="477"/>
      <point x="220" y="507"/>
      <point x="268" y="507"/>
      <point x="306" y="464"/>
      <point x="306" y="416"/>
    </contour>
  </outline>
</glyph>
<glyph name="napostrophe" format="2">
  <advance height="1000" width="588"/>
  <unicode hex="0149"/>
  <outline>
    <contour>
      <point x="167" y="-1" type="qcurve" smooth="yes"/>
      <point x="167" y="-17"/>
      <point x="125" y="-17"/>
      <point x="84" y="0"/>
      <point x="84" y="17" type="qcurve" smooth="yes"/>
      <point x="86" y="115" type="line"/>
      <point x="86" y="364" type="line"/>
      <point x="83" y="471" type="line" smooth="yes"/>
      <point x="83" y="487"/>
      <point x="125" y="487"/>
      <point x="166" y="470"/>
      <point x="166" y="453" type="qcurve" smooth="yes"/>
      <point x="166" y="439" type="line" smooth="yes"/>
      <point x="164" y="411"/>
      <point x="164" y="398" type="qcurve"/>
      <point x="186" y="433"/>
      <point x="291" y="491"/>
      <point x="344" y="491" type="qcurve" smooth="yes"/>
      <point x="440" y="491"/>
      <point x="475" y="425" type="qcurve" smooth="yes"/>
      <point x="502" y="378"/>
      <point x="502" y="297" type="qcurve" smooth="yes"/>
      <point x="502" y="105" type="line"/>
      <point x="505" y="-1" type="line" smooth="yes"/>
      <point x="505" y="-17"/>
      <point x="463" y="-17"/>
      <point x="422" y="0"/>
      <point x="422" y="16" type="qcurve" smooth="yes"/>
      <point x="422" y="17" type="line" smooth="yes"/>
      <point x="423" y="25"/>
      <point x="423" y="44" type="qcurve" smooth="yes"/>
      <point x="424" y="115" type="line"/>
      <point x="424" y="293" type="line" smooth="yes"/>
      <point x="424" y="351"/>
      <point x="394" y="417"/>
      <point x="348" y="417" type="qcurve" smooth="yes"/>
      <point x="272" y="417"/>
      <point x="168" y="306"/>
      <point x="166" y="162" type="qcurve" smooth="yes"/>
      <point x="165" y="129"/>
      <point x="164" y="105" type="qcurve" smooth="yes"/>
      <point x="164" y="89" type="line" smooth="yes"/>
      <point x="164" y="59"/>
    </contour>
    <contour>
      <point x="59" y="521" type="qcurve" smooth="yes"/>
      <point x="39" y="521"/>
      <point x="39" y="541" type="qcurve" smooth="yes"/>
      <point x="39" y="552"/>
      <point x="48" y="558" type="qcurve" smooth="yes"/>
      <point x="66" y="570"/>
      <point x="82" y="590" type="qcurve" smooth="yes"/>
      <point x="97" y="608"/>
      <point x="101" y="620" type="qcurve"/>
      <point x="99" y="620"/>
      <point x="94" y="622" type="qcurve" smooth="yes"/>
      <point x="85" y="624"/>
      <point x="79" y="630" type="qcurve" smooth="yes"/>
      <point x="55" y="650"/>
      <point x="55" y="703"/>
      <point x="91" y="730"/>
      <point x="137" y="730"/>
      <point x="168" y="690"/>
      <point x="172" y="655" type="qcurve"/>
      <point x="172" y="619"/>
      <point x="112" y="542"/>
      <point x="70" y="524" type="qcurve" smooth="yes"/>
      <point x="64" y="521"/>
    </contour>
  </outline>
</glyph>
<glyph name="eng" format="2">
  <advance height="1000" width="588"/>
  <unicode hex="014B"/>
  <outline>
    <contour>
      <point x="395" y="-168" type="qcurve" smooth="yes"/>
      <point x="347" y="-168"/>
      <point x="286" y="-135"/>
      <point x="286" y="-114" type="qcurve" smooth="yes"/>
      <point x="286" y="-96"/>
      <point x="309" y="-60"/>
      <point x="337" y="-60"/>
      <point x="364" y="-94"/>
      <point x="395" y="-94" type="qcurve" smooth="yes"/>
      <point x="424" y="-94"/>
      <point x="424" y="-31" type="qcurve" smooth="yes"/>
      <point x="424" y="293" type="line" smooth="yes"/>
      <point x="424" y="351"/>
      <point x="394" y="417"/>
      <point x="348" y="417" type="qcurve" smooth="yes"/>
      <point x="169" y="417"/>
      <point x="166" y="162" type="qcurve"/>
      <point x="164" y="97" type="line" smooth="yes"/>
      <point x="164" y="59"/>
      <point x="167" y="-1" type="qcurve" smooth="yes"/>
      <point x="167" y="-17"/>
      <point x="144" y="-17" type="qcurve" smooth="yes"/>
      <point x="125" y="-17"/>
      <point x="84" y="0"/>
      <point x="84" y="17" type="qcurve" smooth="yes"/>
      <point x="86" y="115" type="line"/>
      <point x="86" y="364"/>
      <point x="83" y="471" type="qcurve" smooth="yes"/>
      <point x="83" y="487"/>
      <point x="107" y="487" type="qcurve" smooth="yes"/>
      <point x="125" y="487"/>
      <point x="166" y="470"/>
      <point x="166" y="453" type="qcurve" smooth="yes"/>
      <point x="166" y="439" type="line" smooth="yes"/>
      <point x="164" y="411"/>
      <point x="164" y="398" type="qcurve"/>
      <point x="186" y="433"/>
      <point x="291" y="491"/>
      <point x="344" y="491" type="qcurve" smooth="yes"/>
      <point x="440" y="491"/>
      <point x="475" y="425" type="qcurve" smooth="yes"/>
      <point x="502" y="378"/>
      <point x="502" y="297" type="qcurve" smooth="yes"/>
      <point x="502" y="-30" type="line" smooth="yes"/>
      <point x="502" y="-168"/>
    </contour>
  </outline>
</glyph>
<glyph name="omacron" format="2">
  <advance height="1000" width="562"/>
  <unicode hex="014D"/>
  <outline>
    <contour>
      <point x="273" y="-24" type="qcurve" smooth="yes"/>
      <point x="164" y="-24"/>
      <point x="50" y="101"/>
      <point x="50" y="207" type="qcurve" smooth="yes"/>
      <point x="50" y="289"/>
      <point x="101" y="377" type="qcurve" smooth="yes"/>
      <point x="121" y="414"/>
      <point x="163" y="460"/>
      <point x="177" y="460" type="qcurve" smooth="yes"/>
      <point x="190" y="460"/>
      <point x="195" y="453" type="qcurve"/>
      <point x="247" y="492"/>
      <point x="371" y="492"/>
      <point x="416" y="462" type="qcurve" smooth="yes"/>
      <point x="512" y="399"/>
      <point x="512" y="245" type="qcurve" smooth="yes"/>
      <point x="512" y="141"/>
      <point x="449" y="62" type="qcurve" smooth="yes"/>
      <point x="381" y="-24"/>
    </contour>
    <contour>
      <point x="267" y="49" type="qcurve" smooth="yes"/>
      <point x="314" y="49"/>
      <point x="388" y="100"/>
      <point x="433" y="189"/>
      <point x="433" y="258" type="qcurve" smooth="yes"/>
      <point x="433" y="326"/>
      <point x="371" y="420"/>
      <point x="231" y="420"/>
      <point x="129" y="287"/>
      <point x="129" y="208" type="qcurve" smooth="yes"/>
      <point x="129" y="49"/>
    </contour>
    <contour>
      <point x="187" y="611" type="line" smooth="yes"/>
      <point x="163" y="611"/>
      <point x="163" y="685"/>
      <point x="188" y="685" type="qcurve" smooth="yes"/>
      <point x="416" y="685" type="line" smooth="yes"/>
      <point x="440" y="685"/>
      <point x="440" y="611"/>
      <point x="415" y="611" type="qcurve" smooth="yes"/>
    </contour>
  </outline>
</glyph>
<glyph name="obreve" format="2">
  <advance height="1000" width="562"/>
  <unicode hex="014F"/>
  <outline>
    <contour>
      <point x="449" y="62" type="qcurve" smooth="yes"/>
      <point x="381" y="-24"/>
      <point x="164" y="-24"/>
      <point x="50" y="101"/>
      <point x="50" y="207" type="qcurve" smooth="yes"/>
      <point x="50" y="289"/>
      <point x="101" y="377" type="qcurve" smooth="yes"/>
      <point x="121" y="414"/>
      <point x="163" y="460"/>
      <point x="190" y="460"/>
      <point x="195" y="453" type="qcurve"/>
      <point x="247" y="492"/>
      <point x="371" y="492"/>
      <point x="416" y="462" type="qcurve" smooth="yes"/>
      <point x="512" y="399"/>
      <point x="512" y="245" type="qcurve" smooth="yes"/>
      <point x="512" y="141"/>
    </contour>
    <contour>
      <point x="267" y="49" type="qcurve" smooth="yes"/>
      <point x="314" y="49"/>
      <point x="388" y="100"/>
      <point x="433" y="189"/>
      <point x="433" y="326"/>
      <point x="371" y="420"/>
      <point x="231" y="420"/>
      <point x="129" y="287"/>
      <point x="129" y="128"/>
      <point x="201" y="49"/>
    </contour>
    <contour>
      <point x="172" y="578" type="qcurve" smooth="yes"/>
      <point x="128" y="614"/>
      <point x="128" y="637" type="qcurve" smooth="yes"/>
      <point x="128" y="648"/>
      <point x="157" y="670"/>
      <point x="187" y="670"/>
      <point x="195" y="657" type="qcurve" smooth="yes"/>
      <point x="224" y="606"/>
      <point x="300" y="606" type="qcurve" smooth="yes"/>
      <point x="337" y="606"/>
      <point x="388" y="628"/>
      <point x="405" y="657" type="qcurve" smooth="yes"/>
      <point x="413" y="670"/>
      <point x="443" y="670"/>
      <point x="471" y="648"/>
      <point x="471" y="637" type="qcurve" smooth="yes"/>
      <point x="471" y="613"/>
      <point x="379" y="535"/>
      <point x="224" y="535"/>
    </contour>
  </outline>
</glyph>
<glyph name="Scircumflex" format="2">
  <advance height="1000" width="617"/>
  <unicode hex="015C"/>
  <outline>
    <contour>
      <point x="300" y="-24" type="qcurve" smooth="yes"/>
      <point x="141" y="-24"/>
      <point x="43" y="87" type="qcurve" smooth="yes"/>
      <point x="36" y="94"/>
      <point x="36" y="126"/>
      <point x="65" y="165"/>
      <point x="92" y="165"/>
      <point x="98" y="155" type="qcurve" smooth="yes"/>
      <point x="162" y="51"/>
      <point x="302" y="51" type="qcurve" smooth="yes"/>
      <point x="350" y="51"/>
      <point x="432" y="87"/>
      <point x="483" y="147"/>
      <point x="483" y="184" type="qcurve" smooth="yes"/>
      <point x="483" y="246"/>
      <point x="416" y="316"/>
      <point x="349" y="333" type="qcurve" smooth="yes"/>
      <point x="233" y="364" type="line" smooth="yes"/>
      <point x="158" y="381"/>
      <point x="69" y="456"/>
      <point x="69" y="526" type="qcurve" smooth="yes"/>
      <point x="69" y="576"/>
      <point x="133" y="665"/>
      <point x="244" y="719"/>
      <point x="371" y="719"/>
      <point x="469" y="685"/>
      <point x="531" y="637"/>
      <point x="531" y="588"/>
      <point x="510" y="555"/>
      <point x="490" y="555"/>
      <point x="481" y="564" type="qcurve" smooth="yes"/>
      <point x="469" y="576" type="line"/>
      <point x="436" y="618"/>
      <point x="368" y="636" type="qcurve" smooth="yes"/>
      <point x="339" y="644"/>
      <point x="270" y="644"/>
      <point x="195" y="608"/>
      <point x="152" y="554"/>
      <point x="152" y="493"/>
      <point x="202" y="450"/>
      <point x="262" y="436" type="qcurve" smooth="yes"/>
      <point x="371" y="408" type="line" smooth="yes"/>
      <point x="566" y="358"/>
      <point x="566" y="192" type="qcurve" smooth="yes"/>
      <point x="566" y="132"/>
      <point x="503" y="33"/>
      <point x="385" y="-24"/>
    </contour>
    <contour>
      <point x="183" y="726" type="qcurve" smooth="yes"/>
      <point x="159" y="726"/>
      <point x="159" y="765"/>
      <point x="242" y="849" type="qcurve" smooth="yes"/>
      <point x="262" y="870"/>
      <point x="286" y="894"/>
      <point x="309" y="898"/>
      <point x="356" y="898"/>
      <point x="382" y="872"/>
      <point x="402" y="853" type="qcurve" smooth="yes"/>
      <point x="490" y="768"/>
      <point x="490" y="726"/>
      <point x="466" y="726" type="qcurve" smooth="yes"/>
      <point x="456" y="726"/>
      <point x="419" y="758"/>
      <point x="325" y="817" type="qcurve"/>
      <point x="228" y="755"/>
      <point x="193" y="726"/>
    </contour>
  </outline>
</glyph>
<glyph name="u0184" format="2">
  <advance height="1000" width="604"/>
  <unicode hex="0184"/>
  <outline>
    <contour>
      <point x="211" y="-18" type="qcurve"/>
      <point x="174" y="-17" type="line" smooth="yes"/>
      <point x="30" y="-10"/>
      <point x="30" y="23" type="qcurve" smooth="yes"/>
      <point x="30" y="41"/>
      <point x="56" y="44" type="qcurve" smooth="yes"/>
      <point x="76" y="44" type="line"/>
      <point x="76" y="501" type="line"/>
      <point x="40" y="539"/>
      <point x="13" y="561" type="qcurve" smooth="yes"/>
      <point x="-1" y="575"/>
      <point x="-1" y="606" type="qcurve" smooth="yes"/>
      <point x="-1" y="619"/>
      <point x="4" y="625" type="qcurve" smooth="yes"/>
      <point x="40" y="657"/>
      <point x="73" y="690" type="qcurve"/>
      <point x="73" y="711"/>
      <point x="98" y="711" type="qcurve" smooth="yes"/>
      <point x="118" y="711"/>
      <point x="162" y="694"/>
      <point x="162" y="677" type="qcurve" smooth="yes"/>
      <point x="160" y="588"/>
      <point x="160" y="416" type="qcurve"/>
      <point x="185" y="418"/>
      <point x="265" y="426"/>
      <point x="292" y="426" type="qcurve" smooth="yes"/>
      <point x="419" y="426"/>
      <point x="566" y="326"/>
      <point x="566" y="228" type="qcurve" smooth="yes"/>
      <point x="566" y="170"/>
      <point x="505" y="71"/>
      <point x="455" y="37" type="qcurve" smooth="yes"/>
      <point x="370" y="-18"/>
    </contour>
    <contour>
      <point x="160" y="43" type="line"/>
      <point x="337" y="43"/>
      <point x="419" y="108" type="qcurve" smooth="yes"/>
      <point x="483" y="158"/>
      <point x="483" y="225" type="qcurve" smooth="yes"/>
      <point x="483" y="352"/>
      <point x="299" y="352" type="qcurve" smooth="yes"/>
      <point x="243" y="352"/>
      <point x="160" y="341" type="qcurve"/>
    </contour>
  </outline>
</glyph>
<glyph name="u018A" format="2">
  <advance height="1000" width="766"/>
  <unicode hex="018A"/>
  <outline>
    <contour>
      <point x="223" y="-14" type="qcurve" smooth="yes"/>
      <point x="85" y="-14"/>
      <point x="85" y="15" type="qcurve" smooth="yes"/>
      <point x="85" y="40"/>
      <point x="140" y="40" type="qcurve"/>
      <point x="140" y="615" type="line"/>
      <point x="41" y="593"/>
      <point x="41" y="558" type="qcurve"/>
      <point x="42" y="553" type="line" smooth="yes"/>
      <point x="50" y="524"/>
      <point x="72" y="516" type="qcurve" smooth="yes"/>
      <point x="94" y="505"/>
      <point x="95" y="489" type="qcurve" smooth="yes"/>
      <point x="95" y="477"/>
      <point x="69" y="449"/>
      <point x="51" y="444" type="qcurve" smooth="yes"/>
      <point x="45" y="443" type="line" smooth="yes"/>
      <point x="28" y="443"/>
      <point x="-16" y="488"/>
      <point x="-29" y="531" type="qcurve" smooth="yes"/>
      <point x="-35" y="552"/>
      <point x="-35" y="569" type="qcurve" smooth="yes"/>
      <point x="-35" y="589"/>
      <point x="-26" y="605" type="qcurve" smooth="yes"/>
      <point x="1" y="655"/>
      <point x="163" y="704"/>
      <point x="284" y="716" type="qcurve" smooth="yes"/>
      <point x="317" y="718"/>
      <point x="343" y="718" type="qcurve" smooth="yes"/>
      <point x="498" y="718"/>
      <point x="719" y="519"/>
      <point x="719" y="201"/>
      <point x="622" y="106" type="qcurve" smooth="yes"/>
      <point x="540" y="24"/>
      <point x="415" y="2" type="qcurve" smooth="yes"/>
      <point x="338" y="-12"/>
    </contour>
    <contour>
      <point x="222" y="46" type="line"/>
      <point x="362" y="49"/>
      <point x="548" y="132"/>
      <point x="636" y="271"/>
      <point x="636" y="348" type="qcurve" smooth="yes"/>
      <point x="636" y="489"/>
      <point x="453" y="645"/>
      <point x="338" y="645" type="qcurve" smooth="yes"/>
      <point x="275" y="645"/>
      <point x="222" y="633" type="qcurve"/>
    </contour>
  </outline>
</glyph>
<glyph name="u018B" format="2">
  <advance height="1000" width="629"/>
  <unicode hex="018B"/>
  <outline>
    <contour>
      <point x="318" y="-20" type="qcurve" smooth="yes"/>
      <point x="293" y="-20"/>
      <point x="203" y="-16"/>
      <point x="102" y="41"/>
      <point x="39" y="135"/>
      <point x="39" y="200" type="qcurve" smooth="yes"/>
      <point x="39" y="264"/>
      <point x="74" y="312" type="qcurve" smooth="yes"/>
      <point x="143" y="401"/>
      <point x="319" y="419" type="qcurve"/>
      <point x="461" y="425" type="line"/>
      <point x="461" y="576" type="line"/>
      <point x="459" y="624" type="line"/>
      <point x="314" y="618" type="line"/>
      <point x="188" y="611" type="line" smooth="yes"/>
      <point x="164" y="610"/>
      <point x="117" y="603"/>
      <point x="105" y="602" type="qcurve" smooth="yes"/>
      <point x="104" y="602" type="line" smooth="yes"/>
      <point x="87" y="602"/>
      <point x="65" y="642"/>
      <point x="65" y="661" type="qcurve" smooth="yes"/>
      <point x="65" y="683"/>
      <point x="84" y="683" type="qcurve" smooth="yes"/>
      <point x="155" y="681" type="line"/>
      <point x="467" y="694"/>
      <point x="487" y="697" type="qcurve" smooth="yes"/>
      <point x="491" y="697" type="line" smooth="yes"/>
      <point x="505" y="697"/>
      <point x="546" y="681"/>
      <point x="546" y="664" type="qcurve" smooth="yes"/>
      <point x="544" y="575" type="line"/>
      <point x="544" y="60" type="line"/>
      <point x="564" y="62" type="line" smooth="yes"/>
      <point x="590" y="62"/>
      <point x="590" y="43" type="qcurve" smooth="yes"/>
      <point x="590" y="10"/>
      <point x="447" y="-11" type="qcurve" smooth="yes"/>
      <point x="373" y="-20"/>
    </contour>
    <contour>
      <point x="348" y="49" type="qcurve" smooth="yes"/>
      <point x="390" y="49"/>
      <point x="461" y="56" type="qcurve"/>
      <point x="460" y="348" type="line"/>
      <point x="419" y="349" type="line" smooth="yes"/>
      <point x="353" y="349"/>
      <point x="312" y="344" type="qcurve" smooth="yes"/>
      <point x="122" y="325"/>
      <point x="122" y="194" type="qcurve" smooth="yes"/>
      <point x="122" y="145"/>
      <point x="206" y="62"/>
      <point x="274" y="53" type="qcurve" smooth="yes"/>
      <point x="308" y="49"/>
    </contour>
  </outline>
</glyph>
<glyph name="u0195" format="2">
  <advance height="1000" width="883"/>
  <unicode hex="0195"/>
  <outline>
    <contour>
      <point x="608" y="-24" type="qcurve" smooth="yes"/>
      <point x="510" y="-24"/>
      <point x="402" y="87"/>
      <point x="402" y="191" type="qcurve" smooth="yes"/>
      <point x="402" y="293" type="line" smooth="yes"/>
      <point x="402" y="351"/>
      <point x="372" y="417"/>
      <point x="326" y="417" type="qcurve" smooth="yes"/>
      <point x="147" y="417"/>
      <point x="144" y="162" type="qcurve"/>
      <point x="142" y="97" type="line" smooth="yes"/>
      <point x="142" y="59"/>
      <point x="145" y="-1" type="qcurve" smooth="yes"/>
      <point x="145" y="-17"/>
      <point x="122" y="-17" type="qcurve" smooth="yes"/>
      <point x="103" y="-17"/>
      <point x="62" y="0"/>
      <point x="62" y="17" type="qcurve" smooth="yes"/>
      <point x="64" y="115" type="line"/>
      <point x="64" y="590"/>
      <point x="61" y="697" type="qcurve" smooth="yes"/>
      <point x="61" y="713"/>
      <point x="85" y="713" type="qcurve" smooth="yes"/>
      <point x="103" y="713"/>
      <point x="144" y="696"/>
      <point x="144" y="679" type="qcurve" smooth="yes"/>
      <point x="142" y="580"/>
      <point x="142" y="398" type="qcurve"/>
      <point x="164" y="433"/>
      <point x="269" y="491"/>
      <point x="322" y="491" type="qcurve" smooth="yes"/>
      <point x="418" y="491"/>
      <point x="453" y="425" type="qcurve" smooth="yes"/>
      <point x="480" y="378"/>
      <point x="480" y="297" type="qcurve" smooth="yes"/>
      <point x="482" y="195" type="line" smooth="yes"/>
      <point x="482" y="117"/>
      <point x="554" y="48"/>
      <point x="608" y="48" type="qcurve" smooth="yes"/>
      <point x="672" y="48"/>
      <point x="728" y="137"/>
      <point x="731" y="231" type="qcurve" smooth="yes"/>
      <point x="736" y="356"/>
      <point x="736" y="475" type="qcurve" smooth="yes"/>
      <point x="736" y="491"/>
      <point x="763" y="491" type="qcurve" smooth="yes"/>
      <point x="782" y="491"/>
      <point x="822" y="474"/>
      <point x="822" y="458" type="qcurve" smooth="yes"/>
      <point x="822" y="445"/>
      <point x="819" y="417" type="qcurve" smooth="yes"/>
      <point x="810" y="337"/>
      <point x="810" y="237" type="qcurve" smooth="yes"/>
      <point x="810" y="114"/>
      <point x="719" y="-24"/>
    </contour>
  </outline>
</glyph>
<glyph name="u0197" format="2">
  <advance height="1000" width="304"/>
  <unicode hex="0197"/>
  <outline>
    <contour>
      <point x="173" y="-16" type="qcurve" smooth="yes"/>
      <point x="152" y="-16"/>
      <point x="107" y="1"/>
      <point x="107" y="18" type="qcurve" smooth="yes"/>
      <point x="109" y="107"/>
      <point x="109" y="376" type="qcurve"/>
      <point x="45" y="373" type="line" smooth="yes"/>
      <point x="31" y="373"/>
      <point x="18" y="403"/>
      <point x="18" y="418" type="qcurve" smooth="yes"/>
      <point x="18" y="448"/>
      <point x="40" y="448" type="qcurve" smooth="yes"/>
      <point x="78" y="446"/>
      <point x="109" y="446" type="qcurve"/>
      <point x="109" y="589"/>
      <point x="106" y="695" type="qcurve" smooth="yes"/>
      <point x="106" y="711"/>
      <point x="132" y="711" type="qcurve" smooth="yes"/>
      <point x="152" y="711"/>
      <point x="197" y="694"/>
      <point x="197" y="677" type="qcurve" smooth="yes"/>
      <point x="195" y="588"/>
      <point x="195" y="446" type="qcurve"/>
      <point x="231" y="446"/>
      <point x="259" y="448" type="qcurve" smooth="yes"/>
      <point x="272" y="448"/>
      <point x="286" y="419"/>
      <point x="286" y="404" type="qcurve" smooth="yes"/>
      <point x="286" y="374"/>
      <point x="265" y="374" type="qcurve" smooth="yes"/>
      <point x="195" y="376" type="line"/>
      <point x="195" y="106"/>
      <point x="198" y="0" type="qcurve" smooth="yes"/>
      <point x="198" y="-16"/>
    </contour>
  </outline>
</glyph>
<glyph name="u019C" format="2">
  <advance height="1000" width="816"/>
  <unicode hex="019C"/>
  <outline>
    <contour>
      <point x="234" y="-17" type="qcurve" smooth="yes"/>
      <point x="184" y="-17"/>
      <point x="150" y="12" type="qcurve" smooth="yes"/>
      <point x="85" y="67"/>
      <point x="85" y="178" type="qcurve" smooth="yes"/>
      <point x="85" y="591"/>
      <point x="82" y="697" type="qcurve" smooth="yes"/>
      <point x="82" y="713"/>
      <point x="106" y="713" type="qcurve" smooth="yes"/>
      <point x="125" y="713"/>
      <point x="167" y="696"/>
      <point x="167" y="679" type="qcurve" smooth="yes"/>
      <point x="163" y="591" type="line"/>
      <point x="163" y="182" type="line" smooth="yes"/>
      <point x="163" y="55"/>
      <point x="241" y="55" type="qcurve" smooth="yes"/>
      <point x="269" y="55"/>
      <point x="330" y="97"/>
      <point x="371" y="167"/>
      <point x="371" y="207" type="qcurve" smooth="yes"/>
      <point x="371" y="591" type="line"/>
      <point x="366" y="697" type="line" smooth="yes"/>
      <point x="366" y="713"/>
      <point x="390" y="713" type="qcurve" smooth="yes"/>
      <point x="409" y="713"/>
      <point x="450" y="696"/>
      <point x="450" y="679" type="qcurve" smooth="yes"/>
      <point x="446" y="591" type="line"/>
      <point x="446" y="182" type="line" smooth="yes"/>
      <point x="446" y="55"/>
      <point x="514" y="55" type="qcurve" smooth="yes"/>
      <point x="563" y="55"/>
      <point x="600" y="99" type="qcurve" smooth="yes"/>
      <point x="646" y="155"/>
      <point x="649" y="265" type="qcurve" smooth="yes"/>
      <point x="651" y="319"/>
      <point x="652" y="591" type="qcurve"/>
      <point x="647" y="697" type="line" smooth="yes"/>
      <point x="647" y="713"/>
      <point x="671" y="713" type="qcurve" smooth="yes"/>
      <point x="690" y="713"/>
      <point x="732" y="696"/>
      <point x="732" y="679" type="qcurve" smooth="yes"/>
      <point x="730" y="591" type="line"/>
      <point x="730" y="119"/>
      <point x="733" y="3" type="qcurve" smooth="yes"/>
      <point x="733" y="-13"/>
      <point x="709" y="-13" type="qcurve" smooth="yes"/>
      <point x="690" y="-13"/>
      <point x="648" y="4"/>
      <point x="648" y="20" type="qcurve" smooth="yes"/>
      <point x="649" y="51" type="line"/>
      <point x="640" y="33"/>
      <point x="560" y="-17"/>
      <point x="456" y="-17"/>
      <point x="395" y="42"/>
      <point x="389" y="66" type="qcurve"/>
      <point x="369" y="32"/>
      <point x="283" y="-17"/>
    </contour>
  </outline>
</glyph>
<glyph name="u01BA" format="2">
  <advance height="1000" width="491"/>
  <unicode hex="01BA"/>
  <outline>
    <contour>
      <point x="77" y="-215" type="qcurve" smooth="yes"/>
      <point x="57" y="-215"/>
      <point x="23" y="-160"/>
      <point x="23" y="-118" type="qcurve" smooth="yes"/>
      <point x="23" y="-19"/>
      <point x="175" y="-19" type="qcurve" smooth="yes"/>
      <point x="264" y="-19"/>
      <point x="335" y="3"/>
      <point x="372" y="46"/>
      <point x="372" y="74" type="qcurve" smooth="yes"/>
      <point x="372" y="101"/>
      <point x="355" y="118" type="qcurve" smooth="yes"/>
      <point x="315" y="156"/>
      <point x="224" y="156" type="qcurve" smooth="yes"/>
      <point x="161" y="156"/>
      <point x="114" y="140" type="qcurve" smooth="yes"/>
      <point x="104" y="137"/>
      <point x="92" y="137" type="qcurve" smooth="yes"/>
      <point x="82" y="137"/>
      <point x="55" y="173"/>
      <point x="55" y="191" type="qcurve" smooth="yes"/>
      <point x="55" y="211"/>
      <point x="72" y="219" type="qcurve" smooth="yes"/>
      <point x="117" y="242"/>
      <point x="256" y="368" type="qcurve" smooth="yes"/>
      <point x="289" y="398"/>
      <point x="301" y="410" type="qcurve"/>
      <point x="164" y="398" type="line" smooth="yes"/>
      <point x="146" y="397"/>
      <point x="113" y="393"/>
      <point x="95" y="391" type="qcurve" smooth="yes"/>
      <point x="70" y="391"/>
      <point x="54" y="428" type="qcurve" smooth="yes"/>
      <point x="47" y="443"/>
      <point x="47" y="455" type="qcurve" smooth="yes"/>
      <point x="47" y="471"/>
      <point x="62" y="471" type="qcurve" smooth="yes"/>
      <point x="92" y="469"/>
      <point x="114" y="469" type="qcurve" smooth="yes"/>
      <point x="155" y="469"/>
      <point x="162" y="470" type="qcurve" smooth="yes"/>
      <point x="339" y="481"/>
      <point x="376" y="487" type="qcurve"/>
      <point x="403" y="487"/>
      <point x="423" y="449" type="qcurve" smooth="yes"/>
      <point x="431" y="436"/>
      <point x="431" y="426" type="qcurve" smooth="yes"/>
      <point x="431" y="414"/>
      <point x="419" y="405" type="qcurve" smooth="yes"/>
      <point x="401" y="391" type="line" smooth="yes"/>
      <point x="371" y="364"/>
      <point x="228" y="244"/>
      <point x="206" y="224" type="qcurve"/>
      <point x="233" y="228"/>
      <point x="254" y="228" type="qcurve" smooth="yes"/>
      <point x="291" y="228"/>
      <point x="388" y="198"/>
      <point x="458" y="132"/>
      <point x="458" y="20"/>
      <point x="396" y="-57"/>
      <point x="344" y="-77" type="qcurve" smooth="yes"/>
      <point x="306" y="-91"/>
      <point x="210" y="-96" type="qcurve" smooth="yes"/>
      <point x="174" y="-97" type="line" smooth="yes"/>
      <point x="130" y="-97"/>
      <point x="97" y="-110"/>
      <point x="97" y="-121" type="qcurve" smooth="yes"/>
      <point x="97" y="-144"/>
      <point x="115" y="-157" type="qcurve" smooth="yes"/>
      <point x="131" y="-168"/>
      <point x="131" y="-181" type="qcurve" smooth="yes"/>
      <point x="131" y="-196"/>
      <point x="94" y="-215"/>
    </contour>
  </outline>
</glyph>
<glyph name="u01BE" format="2">
  <advance height="1000" width="540"/>
  <unicode hex="01BE"/>
  <outline>
    <contour>
      <point x="109" y="418" type="line"/>
      <point x="47" y="414" type="line"/>
      <point x="46" y="414" type="line"/>
      <point x="30" y="414"/>
      <point x="9" y="448"/>
      <point x="9" y="483"/>
      <point x="26" y="483" type="qcurve"/>
      <point x="109" y="483" type="line"/>
      <point x="109" y="528" type="line"/>
      <point x="107" y="635" type="line"/>
      <point x="107" y="651"/>
      <point x="148" y="651"/>
      <point x="185" y="634"/>
      <point x="185" y="617" type="qcurve"/>
      <point x="183" y="528" type="line"/>
      <point x="183" y="486" type="line"/>
      <point x="209" y="487" type="line"/>
      <point x="245" y="489"/>
      <point x="285" y="493" type="qcurve"/>
      <point x="286" y="493" type="line"/>
      <point x="302" y="493"/>
      <point x="324" y="459"/>
      <point x="324" y="423"/>
      <point x="307" y="423" type="qcurve"/>
      <point x="268" y="423" type="line"/>
      <point x="240" y="423"/>
      <point x="220" y="422" type="qcurve"/>
      <point x="183" y="421" type="line"/>
      <point x="183" y="360" type="line"/>
      <point x="183" y="336"/>
      <point x="208" y="311"/>
      <point x="247" y="302" type="qcurve"/>
      <point x="343" y="279" type="line"/>
      <point x="410" y="263"/>
      <point x="488" y="193"/>
      <point x="488" y="128" type="qcurve"/>
      <point x="488" y="86"/>
      <point x="439" y="17"/>
      <point x="350" y="-24"/>
      <point x="231" y="-24"/>
      <point x="152" y="5"/>
      <point x="104" y="44"/>
      <point x="83" y="78"/>
      <point x="83" y="102"/>
      <point x="115" y="139"/>
      <point x="140" y="139"/>
      <point x="145" y="128" type="qcurve"/>
      <point x="152" y="109"/>
      <point x="167" y="90" type="qcurve"/>
      <point x="198" y="46"/>
      <point x="290" y="46" type="qcurve"/>
      <point x="349" y="46"/>
      <point x="410" y="95"/>
      <point x="410" y="159"/>
      <point x="377" y="200"/>
      <point x="324" y="212" type="qcurve"/>
      <point x="224" y="236" type="line"/>
      <point x="109" y="263"/>
      <point x="109" y="356" type="qcurve"/>
    </contour>
  </outline>
</glyph>
<glyph name="u01E2" format="2">
  <advance height="1000" width="900"/>
  <unicode hex="01E2"/>
  <outline>
    <contour>
      <point x="462" y="-16" type="qcurve" smooth="yes"/>
      <point x="444" y="-16"/>
      <point x="413" y="23"/>
      <point x="413" y="37" type="qcurve" smooth="yes"/>
      <point x="420" y="84" type="line"/>
      <point x="420" y="224" type="line"/>
      <point x="204" y="211" type="line"/>
      <point x="111" y="52"/>
      <point x="89" y="9" type="qcurve" smooth="yes"/>
      <point x="79" y="-10"/>
      <point x="54" y="-10" type="qcurve" smooth="yes"/>
      <point x="-2" y="-10"/>
      <point x="-2" y="18" type="qcurve" smooth="yes"/>
      <point x="-2" y="31"/>
      <point x="11" y="50" type="qcurve" smooth="yes"/>
      <point x="65" y="122"/>
      <point x="110" y="203" type="qcurve"/>
      <point x="99" y="202" type="line" smooth="yes"/>
      <point x="82" y="202"/>
      <point x="54" y="241"/>
      <point x="54" y="259" type="qcurve" smooth="yes"/>
      <point x="54" y="281"/>
      <point x="83" y="281" type="qcurve" smooth="yes"/>
      <point x="147" y="281"/>
      <point x="156" y="282" type="qcurve"/>
      <point x="225" y="396"/>
      <point x="287" y="509" type="qcurve" smooth="yes"/>
      <point x="374" y="667"/>
      <point x="381" y="693" type="qcurve" smooth="yes"/>
      <point x="386" y="714"/>
      <point x="412" y="714" type="qcurve" smooth="yes"/>
      <point x="433" y="714"/>
      <point x="488" y="692" type="qcurve"/>
      <point x="710" y="708"/>
      <point x="801" y="716" type="qcurve" smooth="yes"/>
      <point x="819" y="716"/>
      <point x="839" y="675"/>
      <point x="839" y="658" type="qcurve" smooth="yes"/>
      <point x="839" y="635"/>
      <point x="821" y="635" type="qcurve" smooth="yes"/>
      <point x="785" y="636" type="line" smooth="yes"/>
      <point x="746" y="636"/>
      <point x="504" y="618" type="qcurve"/>
      <point x="504" y="409" type="line"/>
      <point x="676" y="418"/>
      <point x="724" y="424"/>
      <point x="738" y="425" type="qcurve" smooth="yes"/>
      <point x="756" y="425"/>
      <point x="778" y="385"/>
      <point x="778" y="367" type="qcurve" smooth="yes"/>
      <point x="778" y="344"/>
      <point x="759" y="344" type="qcurve" smooth="yes"/>
      <point x="679" y="344"/>
      <point x="504" y="336" type="qcurve"/>
      <point x="504" y="67" type="line"/>
      <point x="788" y="71"/>
      <point x="825" y="73" type="qcurve" smooth="yes"/>
      <point x="843" y="73"/>
      <point x="864" y="31"/>
      <point x="864" y="13" type="qcurve" smooth="yes"/>
      <point x="864" y="-10"/>
      <point x="846" y="-10" type="qcurve" smooth="yes"/>
      <point x="792" y="-7"/>
      <point x="743" y="-7" type="qcurve" smooth="yes"/>
      <point x="499" y="-9"/>
      <point x="477" y="-16"/>
    </contour>
    <contour>
      <point x="247" y="285" type="qcurve"/>
      <point x="420" y="295" type="line"/>
      <point x="420" y="594" type="line"/>
      <point x="350" y="464"/>
    </contour>
    <contour>
      <point x="335" y="778" type="line" smooth="yes"/>
      <point x="311" y="778"/>
      <point x="311" y="852"/>
      <point x="336" y="852" type="qcurve" smooth="yes"/>
      <point x="564" y="852" type="line" smooth="yes"/>
      <point x="588" y="852"/>
      <point x="588" y="778"/>
      <point x="563" y="778" type="qcurve" smooth="yes"/>
    </contour>
  </outline>
</glyph>
<glyph name="oslashacute" format="2">
  <advance height="1000" width="562"/>
  <unicode hex="01FF"/>
  <outline>
    <contour>
      <point x="260" y="-24" type="qcurve" smooth="yes"/>
      <point x="192" y="-24"/>
      <point x="140" y="10" type="qcurve"/>
      <point x="117" y="-23" type="line" smooth="yes"/>
      <point x="114" y="-31"/>
      <point x="89" y="-31"/>
      <point x="58" y="2"/>
      <point x="58" y="26"/>
      <point x="64" y="33" type="qcurve" smooth="yes"/>
      <point x="76" y="49"/>
      <point x="88" y="61" type="qcurve"/>
      <point x="50" y="117"/>
      <point x="50" y="289"/>
      <point x="101" y="377" type="qcurve" smooth="yes"/>
      <point x="121" y="414"/>
      <point x="163" y="460"/>
      <point x="190" y="460"/>
      <point x="195" y="453" type="qcurve"/>
      <point x="247" y="492"/>
      <point x="373" y="492"/>
      <point x="416" y="462" type="qcurve"/>
      <point x="439" y="496" type="line" smooth="yes"/>
      <point x="444" y="504"/>
      <point x="467" y="504"/>
      <point x="496" y="470"/>
      <point x="496" y="443"/>
      <point x="487" y="431"/>
      <point x="472" y="416"/>
      <point x="468" y="411" type="qcurve"/>
      <point x="512" y="348"/>
      <point x="512" y="141"/>
      <point x="381" y="-24"/>
    </contour>
    <contour>
      <point x="188" y="68" type="line"/>
      <point x="216" y="49"/>
      <point x="314" y="49"/>
      <point x="388" y="100"/>
      <point x="433" y="189"/>
      <point x="433" y="234" type="qcurve" smooth="yes"/>
      <point x="433" y="313"/>
      <point x="416" y="347" type="qcurve"/>
    </contour>
    <contour>
      <point x="142" y="126" type="qcurve"/>
      <point x="368" y="405" type="line"/>
      <point x="346" y="420"/>
      <point x="307" y="420" type="qcurve" smooth="yes"/>
      <point x="232" y="420"/>
      <point x="129" y="287"/>
      <point x="129" y="208" type="qcurve" smooth="yes"/>
      <point x="129" y="155"/>
    </contour>
    <contour>
      <point x="395" y="643" type="qcurve" smooth="yes"/>
      <point x="346" y="625"/>
      <point x="250" y="592"/>
      <point x="209" y="568"/>
      <point x="193" y="568"/>
      <point x="179" y="582"/>
      <point x="179" y="599"/>
      <point x="219" y="642"/>
      <point x="332" y="717" type="qcurve" smooth="yes"/>
      <point x="336" y="719"/>
      <point x="353" y="719"/>
      <point x="367" y="709" type="qcurve" smooth="yes"/>
      <point x="406" y="682"/>
      <point x="406" y="659" type="qcurve" smooth="yes"/>
      <point x="406" y="648"/>
    </contour>
  </outline>
</glyph>
<glyph name="u0203" format="2">
  <advance height="1000" width="575"/>
  <unicode hex="0203"/>
  <outline>
    <contour>
      <point x="217" y="-24" type="qcurve" smooth="yes"/>
      <point x="141" y="-24"/>
      <point x="50" y="79"/>
      <point x="50" y="175" type="qcurve" smooth="yes"/>
      <point x="50" y="302"/>
      <point x="206" y="492"/>
      <point x="303" y="492" type="qcurve" smooth="yes"/>
      <point x="385" y="492"/>
      <point x="407" y="446" type="qcurve"/>
      <point x="407" y="475" type="line" smooth="yes"/>
      <point x="407" y="491"/>
      <point x="432" y="491" type="qcurve" smooth="yes"/>
      <point x="452" y="491"/>
      <point x="495" y="475"/>
      <point x="495" y="458" type="qcurve" smooth="yes"/>
      <point x="482" y="368"/>
      <point x="482" y="195" type="qcurve" smooth="yes"/>
      <point x="482" y="92"/>
      <point x="516" y="38" type="qcurve" smooth="yes"/>
      <point x="519" y="32"/>
      <point x="519" y="25" type="qcurve" smooth="yes"/>
      <point x="519" y="16"/>
      <point x="489" y="-19"/>
      <point x="470" y="-19" type="qcurve" smooth="yes"/>
      <point x="424" y="-19"/>
      <point x="411" y="98" type="qcurve"/>
      <point x="383" y="44"/>
      <point x="275" y="-24"/>
    </contour>
    <contour>
      <point x="220" y="48" type="qcurve" smooth="yes"/>
      <point x="262" y="48"/>
      <point x="303" y="79" type="qcurve" smooth="yes"/>
      <point x="405" y="153"/>
      <point x="405" y="330" type="qcurve"/>
      <point x="406" y="365" type="line"/>
      <point x="397" y="365" type="line" smooth="yes"/>
      <point x="388" y="365"/>
      <point x="383" y="372" type="qcurve" smooth="yes"/>
      <point x="354" y="422"/>
      <point x="298" y="422" type="qcurve" smooth="yes"/>
      <point x="241" y="422"/>
      <point x="130" y="282"/>
      <point x="130" y="180" type="qcurve" smooth="yes"/>
      <point x="130" y="48"/>
    </contour>
    <contour>
      <point x="428" y="535" type="qcurve" smooth="yes"/>
      <point x="412" y="535"/>
      <point x="404" y="548" type="qcurve" smooth="yes"/>
      <point x="375" y="599"/>
      <point x="299" y="599" type="qcurve" smooth="yes"/>
      <point x="262" y="599"/>
      <point x="211" y="577"/>
      <point x="194" y="548" type="qcurve" smooth="yes"/>
      <point x="186" y="535"/>
      <point x="156" y="535"/>
      <point x="128" y="557"/>
      <point x="128" y="568" type="qcurve" smooth="yes"/>
      <point x="128" y="592"/>
      <point x="220" y="670"/>
      <point x="298" y="670" type="qcurve" smooth="yes"/>
      <point x="375" y="670"/>
      <point x="427" y="627" type="qcurve" smooth="yes"/>
      <point x="471" y="591"/>
      <point x="471" y="568" type="qcurve" smooth="yes"/>
      <point x="471" y="557"/>
      <point x="442" y="535"/>
    </contour>
  </outline>
</glyph>
<glyph name="u020A" format="2">
  <advance height="1000" width="304"/>
  <unicode hex="020A"/>
  <outline>
    <contour>
      <point x="173" y="-16" type="qcurve" smooth="yes"/>
      <point x="152" y="-16"/>
      <point x="107" y="1"/>
      <point x="107" y="18" type="qcurve" smooth="yes"/>
      <point x="109" y="107" type="line"/>
      <point x="109" y="589"/>
      <point x="106" y="695" type="qcurve" smooth="yes"/>
      <point x="106" y="711"/>
      <point x="132" y="711" type="qcurve" smooth="yes"/>
      <point x="152" y="711"/>
      <point x="197" y="694"/>
      <point x="197" y="677" type="qcurve" smooth="yes"/>
      <point x="195" y="588" type="line"/>
      <point x="195" y="106"/>
      <point x="198" y="0" type="qcurve" smooth="yes"/>
      <point x="198" y="-16"/>
    </contour>
    <contour>
      <point x="21" y="748" type="qcurve" smooth="yes"/>
      <point x="7" y="748"/>
      <point x="-19" y="769"/>
      <point x="-19" y="779" type="qcurve" smooth="yes"/>
      <point x="-19" y="800"/>
      <point x="20" y="836" type="qcurve" smooth="yes"/>
      <point x="70" y="880"/>
      <point x="148" y="880" type="qcurve" smooth="yes"/>
      <point x="226" y="880"/>
      <point x="319" y="801"/>
      <point x="319" y="780" type="qcurve" smooth="yes"/>
      <point x="319" y="769"/>
      <point x="293" y="748"/>
      <point x="280" y="748" type="qcurve" smooth="yes"/>
      <point x="265" y="748"/>
      <point x="257" y="761" type="qcurve" smooth="yes"/>
      <point x="244" y="782"/>
      <point x="187" y="810"/>
      <point x="150" y="810" type="qcurve" smooth="yes"/>
      <point x="112" y="810"/>
      <point x="55" y="782"/>
      <point x="43" y="761" type="qcurve" smooth="yes"/>
      <point x="35" y="748"/>
    </contour>
  </outline>
</glyph>
<glyph name="u0210" format="2">
  <advance height="1000" width="635"/>
  <unicode hex="0210"/>
  <outline>
    <contour>
      <point x="612" y="-19" type="qcurve" smooth="yes"/>
      <point x="536" y="-19"/>
      <point x="430" y="66"/>
      <point x="343" y="164" type="qcurve" smooth="yes"/>
      <point x="275" y="241" type="line" smooth="yes"/>
      <point x="208" y="315"/>
      <point x="180" y="326" type="qcurve"/>
      <point x="180" y="115"/>
      <point x="183" y="-1" type="qcurve" smooth="yes"/>
      <point x="183" y="-17"/>
      <point x="159" y="-17" type="qcurve" smooth="yes"/>
      <point x="140" y="-17"/>
      <point x="98" y="0"/>
      <point x="98" y="17" type="qcurve" smooth="yes"/>
      <point x="100" y="116" type="line"/>
      <point x="100" y="610" type="line"/>
      <point x="82" y="610"/>
      <point x="61" y="645" type="qcurve" smooth="yes"/>
      <point x="53" y="658"/>
      <point x="53" y="669" type="qcurve" smooth="yes"/>
      <point x="53" y="682"/>
      <point x="66" y="684" type="qcurve" smooth="yes"/>
      <point x="86" y="688"/>
      <point x="138" y="694"/>
      <point x="233" y="715"/>
      <point x="323" y="715" type="qcurve" smooth="yes"/>
      <point x="412" y="715"/>
      <point x="513" y="664"/>
      <point x="560" y="584"/>
      <point x="560" y="535" type="qcurve" smooth="yes"/>
      <point x="560" y="436"/>
      <point x="448" y="373" type="qcurve" smooth="yes"/>
      <point x="378" y="333"/>
      <point x="286" y="333" type="qcurve"/>
      <point x="307" y="312"/>
      <point x="350" y="264" type="qcurve" smooth="yes"/>
      <point x="540" y="51"/>
      <point x="599" y="31" type="qcurve" smooth="yes"/>
      <point x="646" y="11"/>
      <point x="646" y="-19"/>
    </contour>
    <contour>
      <point x="180" y="387" type="line"/>
      <point x="185" y="394"/>
      <point x="201" y="394" type="qcurve" smooth="yes"/>
      <point x="341" y="394"/>
      <point x="403" y="431" type="qcurve" smooth="yes"/>
      <point x="437" y="452"/>
      <point x="478" y="509"/>
      <point x="478" y="537" type="qcurve" smooth="yes"/>
      <point x="478" y="584"/>
      <point x="398" y="643"/>
      <point x="315" y="643" type="qcurve" smooth="yes"/>
      <point x="230" y="643"/>
      <point x="180" y="626" type="qcurve"/>
    </contour>
    <contour>
      <point x="288" y="735" type="qcurve" smooth="yes"/>
      <point x="281" y="735"/>
      <point x="240" y="759"/>
      <point x="145" y="792"/>
      <point x="95" y="810" type="qcurve" smooth="yes"/>
      <point x="84" y="815"/>
      <point x="84" y="828" type="qcurve" smooth="yes"/>
      <point x="84" y="838"/>
      <point x="108" y="866"/>
      <point x="138" y="886"/>
      <point x="147" y="886" type="qcurve" smooth="yes"/>
      <point x="154" y="886"/>
      <point x="158" y="884" type="qcurve" smooth="yes"/>
      <point x="311" y="783"/>
      <point x="311" y="758" type="qcurve" smooth="yes"/>
      <point x="311" y="735"/>
    </contour>
    <contour>
      <point x="468" y="735" type="qcurve" smooth="yes"/>
      <point x="461" y="735"/>
      <point x="420" y="759"/>
      <point x="325" y="792"/>
      <point x="275" y="810" type="qcurve" smooth="yes"/>
      <point x="264" y="815"/>
      <point x="264" y="828" type="qcurve" smooth="yes"/>
      <point x="264" y="838"/>
      <point x="288" y="866"/>
      <point x="318" y="886"/>
      <point x="327" y="886" type="qcurve" smooth="yes"/>
      <point x="334" y="886"/>
      <point x="338" y="884" type="qcurve" smooth="yes"/>
      <point x="491" y="783"/>
      <point x="491" y="758" type="qcurve" smooth="yes"/>
      <point x="491" y="735"/>
    </contour>
  </outline>
</glyph>
<glyph name="u022A" format="2">
  <advance height="1000" width="745"/>
  <unicode hex="022A"/>
  <outline>
    <contour>
      <point x="366" y="-24" type="qcurve" smooth="yes"/>
      <point x="257" y="-24"/>
      <point x="115" y="71"/>
      <point x="47" y="234"/>
      <point x="47" y="320" type="qcurve" smooth="yes"/>
      <point x="47" y="405"/>
      <point x="80" y="523"/>
      <point x="129" y="613"/>
      <point x="179" y="664"/>
      <point x="198" y="664" type="qcurve" smooth="yes"/>
      <point x="216" y="664"/>
      <point x="224" y="655" type="qcurve"/>
      <point x="297" y="719"/>
      <point x="497" y="719"/>
      <point x="630" y="626"/>
      <point x="701" y="465"/>
      <point x="701" y="375" type="qcurve" smooth="yes"/>
      <point x="701" y="198"/>
      <point x="621" y="91" type="qcurve" smooth="yes"/>
      <point x="532" y="-24"/>
    </contour>
    <contour>
      <point x="354" y="52" type="qcurve" smooth="yes"/>
      <point x="495" y="52"/>
      <point x="560" y="148" type="qcurve" smooth="yes"/>
      <point x="619" y="236"/>
      <point x="619" y="371" type="qcurve" smooth="yes"/>
      <point x="619" y="481"/>
      <point x="503" y="647"/>
      <point x="399" y="647" type="qcurve" smooth="yes"/>
      <point x="357" y="647"/>
      <point x="262" y="608"/>
      <point x="180" y="530"/>
      <point x="128" y="415"/>
      <point x="128" y="338" type="qcurve" smooth="yes"/>
      <point x="128" y="260"/>
      <point x="177" y="130"/>
      <point x="278" y="52"/>
    </contour>
    <contour>
      <point x="293" y="753" type="qcurve" smooth="yes"/>
      <point x="268" y="753"/>
      <point x="231" y="797"/>
      <point x="231" y="820" type="qcurve" smooth="yes"/>
      <point x="231" y="844"/>
      <point x="258" y="874"/>
      <point x="283" y="874" type="qcurve" smooth="yes"/>
      <point x="306" y="874"/>
      <point x="344" y="830"/>
      <point x="344" y="806" type="qcurve" smooth="yes"/>
      <point x="344" y="783"/>
      <point x="316" y="753"/>
    </contour>
    <contour>
      <point x="476" y="753" type="qcurve" smooth="yes"/>
      <point x="451" y="753"/>
      <point x="414" y="797"/>
      <point x="414" y="820" type="qcurve" smooth="yes"/>
      <point x="414" y="844"/>
      <point x="441" y="874"/>
      <point x="466" y="874" type="qcurve" smooth="yes"/>
      <point x="489" y="874"/>
      <point x="527" y="830"/>
      <point x="527" y="806" type="qcurve" smooth="yes"/>
      <point x="527" y="783"/>
      <point x="499" y="753"/>
    </contour>
    <contour>
      <point x="271" y="930" type="line" smooth="yes"/>
      <point x="259" y="930"/>
      <point x="247" y="954"/>
      <point x="247" y="968" type="qcurve" smooth="yes"/>
      <point x="247" y="1004"/>
      <point x="272" y="1004" type="qcurve" smooth="yes"/>
      <point x="500" y="1004" type="line" smooth="yes"/>
      <point x="524" y="1004"/>
      <point x="524" y="967" type="qcurve" smooth="yes"/>
      <point x="524" y="954"/>
      <point x="512" y="930"/>
      <point x="499" y="930" type="qcurve" smooth="yes"/>
    </contour>
  </outline>
</glyph>
<glyph name="u0231" format="2">
  <advance height="1000" width="562"/>
  <unicode hex="0231"/>
  <outline>
    <contour>
      <point x="273" y="-24" type="qcurve" smooth="yes"/>
      <point x="164" y="-24"/>
      <point x="50" y="101"/>
      <point x="50" y="207" type="qcurve" smooth="yes"/>
      <point x="50" y="289"/>
      <point x="101" y="377" type="qcurve" smooth="yes"/>
      <point x="121" y="414"/>
      <point x="163" y="460"/>
      <point x="177" y="460" type="qcurve" smooth="yes"/>
      <point x="190" y="460"/>
      <point x="195" y="453" type="qcurve"/>
      <point x="247" y="492"/>
      <point x="371" y="492"/>
      <point x="416" y="462" type="qcurve" smooth="yes"/>
      <point x="512" y="399"/>
      <point x="512" y="245" type="qcurve" smooth="yes"/>
      <point x="512" y="141"/>
      <point x="449" y="62" type="qcurve" smooth="yes"/>
      <point x="381" y="-24"/>
    </contour>
    <contour>
      <point x="267" y="49" type="qcurve" smooth="yes"/>
      <point x="314" y="49"/>
      <point x="388" y="100"/>
      <point x="433" y="189"/>
      <point x="433" y="258" type="qcurve" smooth="yes"/>
      <point x="433" y="326"/>
      <point x="371" y="420"/>
      <point x="231" y="420"/>
      <point x="129" y="287"/>
      <point x="129" y="208" type="qcurve" smooth="yes"/>
      <point x="129" y="49"/>
    </contour>
    <contour>
      <point x="277" y="566"/>
      <point x="240" y="611"/>
      <point x="240" y="657"/>
      <point x="267" y="687"/>
      <point x="315" y="687"/>
      <point x="353" y="644"/>
      <point x="353" y="596"/>
      <point x="325" y="566"/>
    </contour>
    <contour>
      <point x="183" y="768" type="line" smooth="yes"/>
      <point x="159" y="768"/>
      <point x="159" y="842"/>
      <point x="184" y="842" type="qcurve" smooth="yes"/>
      <point x="412" y="842" type="line" smooth="yes"/>
      <point x="436" y="842"/>
      <point x="436" y="768"/>
      <point x="411" y="768" type="qcurve" smooth="yes"/>
    </contour>
  </outline>
</glyph>
<glyph name="u0244" format="2">
  <advance height="1000" width="710"/>
  <unicode hex="0244"/>
  <outline>
    <contour>
      <point x="342" y="-24" type="qcurve" smooth="yes"/>
      <point x="100" y="-24"/>
      <point x="100" y="198" type="qcurve" smooth="yes"/>
      <point x="100" y="376" type="line"/>
      <point x="43" y="373" type="line" smooth="yes"/>
      <point x="29" y="373"/>
      <point x="16" y="403"/>
      <point x="16" y="418" type="qcurve" smooth="yes"/>
      <point x="16" y="448"/>
      <point x="38" y="448" type="qcurve" smooth="yes"/>
      <point x="72" y="446"/>
      <point x="100" y="446" type="qcurve"/>
      <point x="100" y="575"/>
      <point x="97" y="695" type="qcurve" smooth="yes"/>
      <point x="97" y="713"/>
      <point x="128" y="713" type="qcurve" smooth="yes"/>
      <point x="147" y="713"/>
      <point x="186" y="696"/>
      <point x="186" y="680" type="qcurve" smooth="yes"/>
      <point x="186" y="662"/>
      <point x="185" y="649" type="qcurve" smooth="yes"/>
      <point x="184" y="584"/>
      <point x="184" y="446" type="qcurve"/>
      <point x="527" y="446" type="line"/>
      <point x="527" y="580"/>
      <point x="524" y="697" type="qcurve" smooth="yes"/>
      <point x="524" y="715"/>
      <point x="555" y="715" type="qcurve" smooth="yes"/>
      <point x="574" y="715"/>
      <point x="613" y="698"/>
      <point x="613" y="666"/>
      <point x="612" y="654" type="qcurve" smooth="yes"/>
      <point x="611" y="594"/>
      <point x="611" y="446" type="qcurve"/>
      <point x="641" y="446"/>
      <point x="663" y="448" type="qcurve" smooth="yes"/>
      <point x="676" y="448"/>
      <point x="690" y="419"/>
      <point x="690" y="404" type="qcurve" smooth="yes"/>
      <point x="690" y="374"/>
      <point x="669" y="374" type="qcurve" smooth="yes"/>
      <point x="645" y="374"/>
      <point x="611" y="376" type="qcurve"/>
      <point x="611" y="230" type="line" smooth="yes"/>
      <point x="611" y="154"/>
      <point x="543" y="39"/>
      <point x="421" y="-24"/>
    </contour>
    <contour>
      <point x="342" y="51" type="qcurve" smooth="yes"/>
      <point x="395" y="51"/>
      <point x="480" y="100"/>
      <point x="527" y="188"/>
      <point x="527" y="242" type="qcurve" smooth="yes"/>
      <point x="527" y="376" type="line"/>
      <point x="184" y="376" type="line"/>
      <point x="184" y="210" type="line" smooth="yes"/>
      <point x="184" y="125"/>
      <point x="262" y="51"/>
    </contour>
  </outline>
</glyph>
<glyph name="u024B" format="2">
  <advance height="1000" width="576"/>
  <unicode hex="024B"/>
  <outline>
    <contour>
      <point x="524" y="-168" type="qcurve" smooth="yes"/>
      <point x="427" y="-168"/>
      <point x="415" y="-59" type="qcurve"/>
      <point x="413" y="89" type="line"/>
      <point x="351" y="-24"/>
      <point x="212" y="-24" type="qcurve" smooth="yes"/>
      <point x="143" y="-24"/>
      <point x="49" y="86"/>
      <point x="49" y="186" type="qcurve" smooth="yes"/>
      <point x="49" y="306"/>
      <point x="204" y="492"/>
      <point x="304" y="492" type="qcurve" smooth="yes"/>
      <point x="343" y="492"/>
      <point x="406" y="462"/>
      <point x="410" y="456" type="qcurve"/>
      <point x="408" y="475" type="line" smooth="yes"/>
      <point x="408" y="491"/>
      <point x="432" y="491" type="qcurve" smooth="yes"/>
      <point x="451" y="491"/>
      <point x="492" y="474"/>
      <point x="492" y="457" type="qcurve" smooth="yes"/>
      <point x="490" y="368"/>
      <point x="490" y="-31" type="qcurve"/>
      <point x="496" y="-94"/>
      <point x="522" y="-94" type="qcurve" smooth="yes"/>
      <point x="553" y="-94"/>
      <point x="580" y="-60"/>
      <point x="608" y="-60"/>
      <point x="631" y="-96"/>
      <point x="631" y="-114" type="qcurve" smooth="yes"/>
      <point x="631" y="-135"/>
      <point x="570" y="-168"/>
    </contour>
    <contour>
      <point x="213" y="48" type="qcurve" smooth="yes"/>
      <point x="282" y="48"/>
      <point x="410" y="186"/>
      <point x="410" y="276" type="qcurve" smooth="yes"/>
      <point x="410" y="367" type="line"/>
      <point x="411" y="369" type="line" smooth="yes"/>
      <point x="411" y="371"/>
      <point x="407" y="371" type="qcurve" smooth="yes"/>
      <point x="398" y="371"/>
      <point x="392" y="378" type="qcurve" smooth="yes"/>
      <point x="361" y="422"/>
      <point x="300" y="422" type="qcurve" smooth="yes"/>
      <point x="270" y="422"/>
      <point x="206" y="383"/>
      <point x="182" y="349" type="qcurve" smooth="yes"/>
      <point x="129" y="274"/>
      <point x="129" y="118"/>
      <point x="179" y="48"/>
    </contour>
  </outline>
</glyph>
<glyph name="u024F" format="2">
  <advance height="1000" width="500"/>
  <unicode hex="024F"/>
  <outline>
    <contour>
      <point x="116" y="-170" type="line" smooth="yes"/>
      <point x="157" y="-170"/>
      <point x="211" y="-128"/>
      <point x="231" y="-85" type="qcurve" smooth="yes"/>
      <point x="397" y="263" type="line"/>
      <point x="473" y="265" type="line" smooth="yes"/>
      <point x="500" y="266"/>
      <point x="500" y="290" type="qcurve" smooth="yes"/>
      <point x="500" y="310"/>
      <point x="479" y="340"/>
      <point x="464" y="340" type="qcurve" smooth="yes"/>
      <point x="433" y="338" type="line"/>
      <point x="462" y="397" type="line" smooth="yes"/>
      <point x="473" y="417"/>
      <point x="485" y="440"/>
      <point x="485" y="452" type="qcurve" smooth="yes"/>
      <point x="485" y="466"/>
      <point x="447" y="491"/>
      <point x="431" y="491" type="qcurve" smooth="yes"/>
      <point x="412" y="491"/>
      <point x="407" y="478" type="qcurve" smooth="yes"/>
      <point x="391" y="424"/>
      <point x="372" y="386" type="qcurve" smooth="yes"/>
      <point x="347" y="335" type="line"/>
      <point x="172" y="329" type="line"/>
      <point x="126" y="436"/>
      <point x="116" y="466" type="qcurve" smooth="yes"/>
      <point x="108" y="486"/>
      <point x="67" y="486" type="qcurve" smooth="yes"/>
      <point x="23" y="486"/>
      <point x="23" y="464" type="qcurve" smooth="yes"/>
      <point x="23" y="460"/>
      <point x="47" y="418"/>
      <point x="88" y="327" type="qcurve"/>
      <point x="58" y="326"/>
      <point x="1" y="322"/>
      <point x="1" y="299" type="qcurve" smooth="yes"/>
      <point x="1" y="279"/>
      <point x="21" y="249"/>
      <point x="38" y="249" type="qcurve" smooth="yes"/>
      <point x="121" y="252" type="line"/>
      <point x="211" y="46" type="line"/>
      <point x="169" y="-43" type="line" smooth="yes"/>
      <point x="155" y="-73"/>
      <point x="127" y="-95"/>
      <point x="79" y="-95"/>
      <point x="54" y="-69"/>
      <point x="28" y="-69"/>
      <point x="5" y="-108"/>
      <point x="5" y="-134"/>
      <point x="12" y="-141" type="qcurve" smooth="yes"/>
      <point x="47" y="-170"/>
      <point x="106" y="-170" type="qcurve" smooth="yes"/>
    </contour>
    <contour>
      <point x="254" y="139" type="line"/>
      <point x="204" y="254" type="line"/>
      <point x="311" y="258" type="line"/>
    </contour>
  </outline>
</glyph>
<glyph name="u0260" format="2">
  <advance height="1000" width="580"/>
  <unicode hex="0260"/>
  <outline>
    <contour>
      <point x="242" y="-181" type="qcurve" smooth="yes"/>
      <point x="172" y="-181"/>
      <point x="87" y="-132"/>
      <point x="59" y="-88" type="qcurve" smooth="yes"/>
      <point x="55" y="-82"/>
      <point x="55" y="-70" type="qcurve" smooth="yes"/>
      <point x="55" y="-59"/>
      <point x="89" y="-22"/>
      <point x="119" y="-22"/>
      <point x="125" y="-36" type="qcurve" smooth="yes"/>
      <point x="142" y="-75"/>
      <point x="194" y="-108"/>
      <point x="294" y="-108"/>
      <point x="372" y="-69"/>
      <point x="418" y="2"/>
      <point x="418" y="51" type="qcurve" smooth="yes"/>
      <point x="418" y="97" type="line"/>
      <point x="359" y="1"/>
      <point x="230" y="1" type="qcurve" smooth="yes"/>
      <point x="148" y="1"/>
      <point x="51" y="109"/>
      <point x="51" y="317"/>
      <point x="199" y="492"/>
      <point x="391" y="492"/>
      <point x="419" y="444" type="qcurve"/>
      <point x="419" y="589" type="line" smooth="yes"/>
      <point x="419" y="668"/>
      <point x="479" y="699" type="qcurve" smooth="yes"/>
      <point x="506" y="714"/>
      <point x="539" y="714" type="qcurve" smooth="yes"/>
      <point x="571" y="714"/>
      <point x="620" y="691"/>
      <point x="645" y="659"/>
      <point x="645" y="629"/>
      <point x="624" y="594"/>
      <point x="612" y="594" type="qcurve" smooth="yes"/>
      <point x="599" y="594"/>
      <point x="590" y="608" type="qcurve" smooth="yes"/>
      <point x="574" y="641"/>
      <point x="534" y="641" type="qcurve" smooth="yes"/>
      <point x="520" y="641"/>
      <point x="495" y="615"/>
      <point x="495" y="585" type="qcurve" smooth="yes"/>
      <point x="495" y="50" type="line" smooth="yes"/>
      <point x="495" y="-25"/>
      <point x="425" y="-128"/>
      <point x="311" y="-181"/>
    </contour>
    <contour>
      <point x="222" y="73" type="qcurve" smooth="yes"/>
      <point x="310" y="73"/>
      <point x="372" y="142" type="qcurve" smooth="yes"/>
      <point x="415" y="190"/>
      <point x="418" y="263" type="qcurve" smooth="yes"/>
      <point x="419" y="290"/>
      <point x="419" y="372" type="qcurve" smooth="yes"/>
      <point x="419" y="373"/>
      <point x="395" y="373"/>
      <point x="388" y="381" type="qcurve" smooth="yes"/>
      <point x="359" y="421"/>
      <point x="294" y="421" type="qcurve" smooth="yes"/>
      <point x="264" y="421"/>
      <point x="203" y="385"/>
      <point x="181" y="354" type="qcurve" smooth="yes"/>
      <point x="131" y="289"/>
      <point x="131" y="212" type="qcurve" smooth="yes"/>
      <point x="131" y="73"/>
    </contour>
  </outline>
</glyph>
<glyph name="u0267" format="2">
  <advance height="1000" width="588"/>
  <unicode hex="0267"/>
  <outline>
    <contour>
      <point x="462" y="-145" type="qcurve" smooth="yes"/>
      <point x="438" y="-168"/>
      <point x="346" y="-168"/>
      <point x="285" y="-135"/>
      <point x="285" y="-114" type="qcurve" smooth="yes"/>
      <point x="285" y="-96"/>
      <point x="308" y="-60"/>
      <point x="336" y="-60"/>
      <point x="363" y="-94"/>
      <point x="394" y="-94" type="qcurve" smooth="yes"/>
      <point x="423" y="-94"/>
      <point x="423" y="-31" type="qcurve" smooth="yes"/>
      <point x="424" y="293" type="line" smooth="yes"/>
      <point x="424" y="351"/>
      <point x="394" y="417"/>
      <point x="348" y="417" type="qcurve" smooth="yes"/>
      <point x="169" y="417"/>
      <point x="166" y="162" type="qcurve"/>
      <point x="164" y="97" type="line" smooth="yes"/>
      <point x="164" y="59"/>
      <point x="167" y="-1" type="qcurve" smooth="yes"/>
      <point x="167" y="-17"/>
      <point x="144" y="-17" type="qcurve" smooth="yes"/>
      <point x="125" y="-17"/>
      <point x="84" y="0"/>
      <point x="84" y="17" type="qcurve" smooth="yes"/>
      <point x="86" y="115"/>
      <point x="86" y="472" type="qcurve" smooth="yes"/>
      <point x="86" y="547"/>
      <point x="118" y="598" type="qcurve" smooth="yes"/>
      <point x="184" y="703"/>
      <point x="329" y="703" type="qcurve" smooth="yes"/>
      <point x="399" y="703"/>
      <point x="484" y="654"/>
      <point x="512" y="610" type="qcurve" smooth="yes"/>
      <point x="516" y="604"/>
      <point x="516" y="593" type="qcurve" smooth="yes"/>
      <point x="516" y="581"/>
      <point x="482" y="544"/>
      <point x="468" y="544" type="qcurve" smooth="yes"/>
      <point x="452" y="544"/>
      <point x="446" y="558" type="qcurve" smooth="yes"/>
      <point x="429" y="597"/>
      <point x="377" y="630"/>
      <point x="328" y="630" type="qcurve" smooth="yes"/>
      <point x="277" y="630"/>
      <point x="204" y="591"/>
      <point x="163" y="520"/>
      <point x="163" y="471" type="qcurve" smooth="yes"/>
      <point x="164" y="397" type="line"/>
      <point x="186" y="433"/>
      <point x="291" y="491"/>
      <point x="344" y="491" type="qcurve" smooth="yes"/>
      <point x="440" y="491"/>
      <point x="475" y="425" type="qcurve" smooth="yes"/>
      <point x="502" y="378"/>
      <point x="502" y="297" type="qcurve" smooth="yes"/>
      <point x="503" y="-30" type="line" smooth="yes"/>
      <point x="503" y="-108"/>
    </contour>
  </outline>
</glyph>
<glyph name="u026B" format="2">
  <advance height="1000" width="263"/>
  <unicode hex="026B"/>
  <outline>
    <contour>
      <point x="176" y="-27" type="qcurve" smooth="yes"/>
      <point x="93" y="-27"/>
      <point x="91" y="75" type="qcurve" smooth="yes"/>
      <point x="91" y="332" type="line"/>
      <point x="86" y="334"/>
      <point x="76" y="334" type="qcurve" smooth="yes"/>
      <point x="39" y="334"/>
      <point x="20" y="295" type="qcurve" smooth="yes"/>
      <point x="13" y="280"/>
      <point x="2" y="280" type="qcurve" smooth="yes"/>
      <point x="-22" y="280"/>
      <point x="-22" y="303" type="qcurve" smooth="yes"/>
      <point x="-22" y="318"/>
      <point x="2" y="365"/>
      <point x="48" y="403"/>
      <point x="80" y="403" type="qcurve" smooth="yes"/>
      <point x="91" y="403" type="line"/>
      <point x="91" y="590"/>
      <point x="88" y="697" type="qcurve" smooth="yes"/>
      <point x="88" y="713"/>
      <point x="113" y="713" type="qcurve" smooth="yes"/>
      <point x="132" y="713"/>
      <point x="174" y="696"/>
      <point x="174" y="679" type="qcurve" smooth="yes"/>
      <point x="172" y="590"/>
      <point x="172" y="361" type="qcurve"/>
      <point x="184" y="352"/>
      <point x="201" y="352" type="qcurve" smooth="yes"/>
      <point x="238" y="352"/>
      <point x="257" y="391" type="qcurve" smooth="yes"/>
      <point x="264" y="406"/>
      <point x="276" y="406" type="qcurve" smooth="yes"/>
      <point x="299" y="406"/>
      <point x="299" y="383" type="qcurve" smooth="yes"/>
      <point x="299" y="352"/>
      <point x="264" y="313" type="qcurve" smooth="yes"/>
      <point x="238" y="283"/>
      <point x="201" y="283" type="qcurve" smooth="yes"/>
      <point x="180" y="283"/>
      <point x="172" y="285" type="qcurve"/>
      <point x="172" y="53"/>
      <point x="178" y="46"/>
      <point x="184" y="46" type="qcurve" smooth="yes"/>
      <point x="203" y="47"/>
      <point x="228" y="72" type="qcurve" smooth="yes"/>
      <point x="242" y="85"/>
      <point x="254" y="85" type="qcurve" smooth="yes"/>
      <point x="269" y="85"/>
      <point x="269" y="63" type="qcurve" smooth="yes"/>
      <point x="269" y="45"/>
      <point x="241" y="9" type="qcurve" smooth="yes"/>
      <point x="209" y="-27"/>
    </contour>
  </outline>
</glyph>
<glyph name="u0276" format="2">
  <advance height="1000" width="873"/>
  <unicode hex="0276"/>
  <outline>
    <contour>
      <point x="273" y="-24" type="qcurve" smooth="yes"/>
      <point x="176" y="-24"/>
      <point x="60" y="101"/>
      <point x="60" y="207" type="qcurve" smooth="yes"/>
      <point x="60" y="289"/>
      <point x="111" y="377" type="qcurve" smooth="yes"/>
      <point x="131" y="414"/>
      <point x="173" y="460"/>
      <point x="187" y="460" type="qcurve" smooth="yes"/>
      <point x="200" y="460"/>
      <point x="205" y="453" type="qcurve"/>
      <point x="257" y="492"/>
      <point x="318" y="492" type="qcurve" smooth="yes"/>
      <point x="401" y="492"/>
      <point x="439" y="452" type="qcurve"/>
      <point x="439" y="461" type="line" smooth="yes"/>
      <point x="439" y="481"/>
      <point x="479" y="481"/>
      <point x="508" y="468" type="qcurve"/>
      <point x="706" y="484"/>
      <point x="737" y="488" type="qcurve" smooth="yes"/>
      <point x="762" y="491"/>
      <point x="771" y="491" type="qcurve" smooth="yes"/>
      <point x="789" y="491"/>
      <point x="809" y="449"/>
      <point x="809" y="432" type="qcurve" smooth="yes"/>
      <point x="809" y="411"/>
      <point x="790" y="411" type="qcurve" smooth="yes"/>
      <point x="735" y="411"/>
      <point x="693" y="409" type="qcurve" smooth="yes"/>
      <point x="521" y="394" type="line"/>
      <point x="520" y="281" type="line"/>
      <point x="688" y="294"/>
      <point x="705" y="296" type="qcurve" smooth="yes"/>
      <point x="733" y="300"/>
      <point x="741" y="300" type="qcurve" smooth="yes"/>
      <point x="759" y="300"/>
      <point x="780" y="259"/>
      <point x="780" y="242" type="qcurve" smooth="yes"/>
      <point x="780" y="221"/>
      <point x="760" y="221" type="qcurve" smooth="yes"/>
      <point x="681" y="221"/>
      <point x="520" y="209" type="qcurve"/>
      <point x="519" y="65" type="line"/>
      <point x="781" y="71"/>
      <point x="799" y="73" type="qcurve" smooth="yes"/>
      <point x="815" y="73"/>
      <point x="836" y="30"/>
      <point x="836" y="15" type="qcurve" smooth="yes"/>
      <point x="836" y="-8"/>
      <point x="818" y="-8" type="qcurve" smooth="yes"/>
      <point x="785" y="-5"/>
      <point x="737" y="-5" type="qcurve" smooth="yes"/>
      <point x="517" y="-9"/>
      <point x="497" y="-16"/>
      <point x="481" y="-16" type="qcurve" smooth="yes"/>
      <point x="464" y="-16"/>
      <point x="436" y="23"/>
      <point x="436" y="37" type="qcurve" smooth="yes"/>
      <point x="436" y="40" type="line"/>
      <point x="435" y="40"/>
      <point x="434" y="35" type="qcurve" smooth="yes"/>
      <point x="384" y="-24"/>
    </contour>
    <contour>
      <point x="139" y="208" type="qcurve" smooth="yes"/>
      <point x="139" y="128"/>
      <point x="215" y="50"/>
      <point x="317" y="50"/>
      <point x="390" y="101"/>
      <point x="435" y="189"/>
      <point x="435" y="258" type="qcurve" smooth="yes"/>
      <point x="435" y="326"/>
      <point x="373" y="419"/>
      <point x="317" y="419" type="qcurve" smooth="yes"/>
      <point x="259" y="419"/>
      <point x="182" y="356"/>
      <point x="139" y="259"/>
    </contour>
  </outline>
</glyph>
<glyph name="u0280" format="2">
  <advance height="1000" width="530"/>
  <unicode hex="0280"/>
  <outline>
    <contour>
      <point x="144" y="-22" type="qcurve" smooth="yes"/>
      <point x="126" y="-22"/>
      <point x="85" y="-6"/>
      <point x="85" y="12" type="qcurve" smooth="yes"/>
      <point x="87" y="86"/>
      <point x="87" y="405" type="qcurve"/>
      <point x="76" y="405"/>
      <point x="44" y="435"/>
      <point x="44" y="451" type="qcurve" smooth="yes"/>
      <point x="44" y="475"/>
      <point x="196" y="493" type="qcurve" smooth="yes"/>
      <point x="222" y="496"/>
      <point x="268" y="496" type="qcurve" smooth="yes"/>
      <point x="478" y="496"/>
      <point x="478" y="371" type="qcurve" smooth="yes"/>
      <point x="478" y="242"/>
      <point x="326" y="216" type="qcurve"/>
      <point x="434" y="70"/>
      <point x="476" y="32" type="qcurve" smooth="yes"/>
      <point x="486" y="24"/>
      <point x="486" y="16" type="qcurve" smooth="yes"/>
      <point x="486" y="2"/>
      <point x="443" y="-21"/>
      <point x="427" y="-21" type="qcurve" smooth="yes"/>
      <point x="409" y="-21"/>
      <point x="403" y="-11" type="qcurve" smooth="yes"/>
      <point x="336" y="80" type="line" smooth="yes"/>
      <point x="295" y="135"/>
      <point x="246" y="205" type="qcurve"/>
      <point x="211" y="202"/>
      <point x="170" y="202" type="qcurve" smooth="yes"/>
      <point x="164" y="202" type="line"/>
      <point x="164" y="81"/>
      <point x="168" y="-6" type="qcurve" smooth="yes"/>
      <point x="168" y="-22"/>
    </contour>
    <contour>
      <point x="164" y="262" type="line"/>
      <point x="397" y="276"/>
      <point x="397" y="366" type="qcurve" smooth="yes"/>
      <point x="397" y="390"/>
      <point x="336" y="425"/>
      <point x="266" y="425" type="qcurve" smooth="yes"/>
      <point x="212" y="425"/>
      <point x="164" y="414" type="qcurve"/>
    </contour>
  </outline>
</glyph>
<glyph name="u0284" format="2">
  <advance height="1000" width="500"/>
  <unicode hex="0284"/>
  <outline>
    <contour>
      <point x="96" y="-201"/>
      <point x="236" y="-201"/>
      <point x="272" y="-144" type="qcurve" smooth="yes"/>
      <point x="290" y="-116"/>
      <point x="290" y="-76" type="qcurve" smooth="yes"/>
      <point x="290" y="52" type="line"/>
      <point x="350" y="52" type="line" smooth="yes"/>
      <point x="384" y="50"/>
      <point x="406" y="50" type="qcurve" smooth="yes"/>
      <point x="427" y="50"/>
      <point x="427" y="80" type="qcurve" smooth="yes"/>
      <point x="427" y="95"/>
      <point x="413" y="124"/>
      <point x="400" y="124" type="qcurve" smooth="yes"/>
      <point x="362" y="122"/>
      <point x="290" y="122" type="qcurve"/>
      <point x="290" y="585" type="line" smooth="yes"/>
      <point x="290" y="615"/>
      <point x="316" y="641"/>
      <point x="333" y="641" type="qcurve" smooth="yes"/>
      <point x="375" y="641"/>
      <point x="393" y="608" type="qcurve" smooth="yes"/>
      <point x="402" y="594"/>
      <point x="415" y="594" type="qcurve" smooth="yes"/>
      <point x="427" y="594"/>
      <point x="450" y="629"/>
      <point x="450" y="659"/>
      <point x="423" y="691"/>
      <point x="372" y="714"/>
      <point x="304" y="714"/>
      <point x="274" y="699" type="qcurve" smooth="yes"/>
      <point x="210" y="668"/>
      <point x="210" y="589" type="qcurve" smooth="yes"/>
      <point x="210" y="122" type="line"/>
      <point x="132" y="122"/>
      <point x="102" y="124" type="qcurve" smooth="yes"/>
      <point x="80" y="124"/>
      <point x="80" y="94" type="qcurve" smooth="yes"/>
      <point x="80" y="79"/>
      <point x="93" y="49"/>
      <point x="107" y="49" type="qcurve" smooth="yes"/>
      <point x="159" y="52"/>
      <point x="210" y="52" type="qcurve"/>
      <point x="210" y="-72" type="line" smooth="yes"/>
      <point x="210" y="-101"/>
      <point x="184" y="-128"/>
      <point x="167" y="-128" type="qcurve" smooth="yes"/>
      <point x="125" y="-128"/>
      <point x="107" y="-95" type="qcurve" smooth="yes"/>
      <point x="98" y="-81"/>
      <point x="86" y="-81" type="qcurve" smooth="yes"/>
      <point x="73" y="-81"/>
      <point x="50" y="-116"/>
      <point x="50" y="-130" type="qcurve" smooth="yes"/>
      <point x="50" y="-145"/>
      <point x="64" y="-162" type="qcurve" smooth="yes"/>
    </contour>
  </outline>
</glyph>
<glyph name="u028B" format="2">
  <advance height="1000" width="544"/>
  <unicode hex="028B"/>
  <outline>
    <contour>
      <point x="272" y="-24" type="qcurve" smooth="yes"/>
      <point x="174" y="-24"/>
      <point x="66" y="87"/>
      <point x="66" y="191" type="qcurve" smooth="yes"/>
      <point x="66" y="368" type="line"/>
      <point x="63" y="474" type="line" smooth="yes"/>
      <point x="63" y="490"/>
      <point x="89" y="490" type="qcurve" smooth="yes"/>
      <point x="108" y="490"/>
      <point x="148" y="472"/>
      <point x="148" y="456" type="qcurve" smooth="yes"/>
      <point x="148" y="435"/>
      <point x="147" y="419" type="qcurve" smooth="yes"/>
      <point x="146" y="368"/>
      <point x="146" y="195" type="qcurve" smooth="yes"/>
      <point x="146" y="117"/>
      <point x="218" y="48"/>
      <point x="272" y="48" type="qcurve" smooth="yes"/>
      <point x="336" y="48"/>
      <point x="392" y="137"/>
      <point x="395" y="231" type="qcurve" smooth="yes"/>
      <point x="395" y="365" type="line" smooth="yes"/>
      <point x="395" y="395"/>
      <point x="369" y="421"/>
      <point x="352" y="421" type="qcurve" smooth="yes"/>
      <point x="310" y="421"/>
      <point x="292" y="388" type="qcurve" smooth="yes"/>
      <point x="283" y="374"/>
      <point x="271" y="374" type="qcurve" smooth="yes"/>
      <point x="258" y="374"/>
      <point x="235" y="409"/>
      <point x="235" y="439"/>
      <point x="262" y="471"/>
      <point x="313" y="494"/>
      <point x="381" y="494"/>
      <point x="411" y="479" type="qcurve" smooth="yes"/>
      <point x="475" y="448"/>
      <point x="475" y="369" type="qcurve" smooth="yes"/>
      <point x="474" y="237" type="line" smooth="yes"/>
      <point x="474" y="114"/>
      <point x="383" y="-24"/>
    </contour>
  </outline>
</glyph>
<glyph name="u028D" format="2">
  <advance height="1000" width="730"/>
  <unicode hex="028D"/>
  <outline>
    <contour>
      <point x="77" y="-26" type="qcurve" smooth="yes"/>
      <point x="58" y="-26"/>
      <point x="19" y="-9"/>
      <point x="19" y="6" type="qcurve" smooth="yes"/>
      <point x="19" y="10"/>
      <point x="30" y="35"/>
      <point x="47" y="80" type="qcurve" smooth="yes"/>
      <point x="163" y="410"/>
      <point x="173" y="445"/>
      <point x="178" y="460" type="qcurve" smooth="yes"/>
      <point x="186" y="489"/>
      <point x="215" y="489" type="qcurve" smooth="yes"/>
      <point x="229" y="489"/>
      <point x="244" y="482" type="qcurve" smooth="yes"/>
      <point x="273" y="470"/>
      <point x="277" y="445" type="qcurve" smooth="yes"/>
      <point x="278" y="436"/>
      <point x="369" y="118" type="qcurve"/>
      <point x="472" y="421"/>
      <point x="478" y="446"/>
      <point x="492" y="489"/>
      <point x="521" y="489" type="qcurve" smooth="yes"/>
      <point x="548" y="489"/>
      <point x="567" y="467" type="qcurve" smooth="yes"/>
      <point x="575" y="459"/>
      <point x="578" y="448" type="qcurve" smooth="yes"/>
      <point x="688" y="68" type="line"/>
      <point x="711" y="6"/>
      <point x="711" y="3" type="qcurve" smooth="yes"/>
      <point x="711" y="-19"/>
      <point x="670" y="-19" type="qcurve" smooth="yes"/>
      <point x="621" y="-19"/>
      <point x="619" y="7" type="qcurve" smooth="yes"/>
      <point x="617" y="17"/>
      <point x="613" y="44"/>
      <point x="529" y="361" type="qcurve"/>
      <point x="423" y="56"/>
      <point x="420" y="24"/>
      <point x="418" y="13" type="qcurve" smooth="yes"/>
      <point x="415" y="-9"/>
      <point x="388" y="-9" type="qcurve" smooth="yes"/>
      <point x="365" y="-9"/>
      <point x="320" y="7"/>
      <point x="316" y="30"/>
      <point x="314" y="51"/>
      <point x="222" y="361" type="qcurve"/>
      <point x="121" y="57" type="line" smooth="yes"/>
      <point x="116" y="43"/>
      <point x="104" y="-10" type="qcurve" smooth="yes"/>
      <point x="100" y="-26"/>
    </contour>
  </outline>
</glyph>
<glyph name="u0299" format="2">
  <advance height="1000" width="564"/>
  <unicode hex="0299"/>
  <outline>
    <contour>
      <point x="220" y="-21" type="qcurve" smooth="yes"/>
      <point x="83" y="-21"/>
      <point x="83" y="12" type="qcurve" smooth="yes"/>
      <point x="83" y="35"/>
      <point x="116" y="35" type="qcurve"/>
      <point x="116" y="413" type="line"/>
      <point x="109" y="417"/>
      <point x="92" y="442"/>
      <point x="92" y="454" type="qcurve" smooth="yes"/>
      <point x="92" y="469"/>
      <point x="107" y="471" type="qcurve" smooth="yes"/>
      <point x="207" y="490"/>
      <point x="395" y="490"/>
      <point x="477" y="418"/>
      <point x="477" y="332"/>
      <point x="425" y="269"/>
      <point x="413" y="265" type="qcurve"/>
      <point x="440" y="262"/>
      <point x="514" y="203"/>
      <point x="514" y="155" type="qcurve" smooth="yes"/>
      <point x="514" y="108"/>
      <point x="467" y="39"/>
      <point x="393" y="-7"/>
      <point x="304" y="-21"/>
    </contour>
    <contour>
      <point x="219" y="42" type="line"/>
      <point x="365" y="42"/>
      <point x="416" y="98" type="qcurve" smooth="yes"/>
      <point x="435" y="118"/>
      <point x="435" y="150" type="qcurve" smooth="yes"/>
      <point x="435" y="221"/>
      <point x="319" y="221" type="qcurve" smooth="yes"/>
      <point x="276" y="221"/>
      <point x="195" y="215" type="qcurve"/>
      <point x="195" y="43" type="line"/>
    </contour>
    <contour>
      <point x="195" y="283" type="line"/>
      <point x="319" y="283"/>
      <point x="366" y="319" type="qcurve" smooth="yes"/>
      <point x="398" y="342"/>
      <point x="398" y="370" type="qcurve" smooth="yes"/>
      <point x="398" y="420"/>
      <point x="302" y="420" type="qcurve" smooth="yes"/>
      <point x="254" y="420"/>
      <point x="195" y="407" type="qcurve"/>
    </contour>
  </outline>
</glyph>
<glyph name="u029E" format="2">
  <advance height="1000" width="510"/>
  <unicode hex="029E"/>
  <outline>
    <contour>
      <point x="411" y="-234" type="qcurve" smooth="yes"/>
      <point x="392" y="-234"/>
      <point x="350" y="-217"/>
      <point x="350" y="-200" type="qcurve" smooth="yes"/>
      <point x="354" y="-111" type="line"/>
      <point x="354" y="154" type="line"/>
      <point x="175" y="30" type="line" smooth="yes"/>
      <point x="160" y="19"/>
      <point x="136" y="-4" type="qcurve" smooth="yes"/>
      <point x="131" y="-11"/>
      <point x="116" y="-11" type="qcurve" smooth="yes"/>
      <point x="103" y="-11"/>
      <point x="88" y="-6" type="qcurve" smooth="yes"/>
      <point x="50" y="8"/>
      <point x="50" y="27" type="qcurve" smooth="yes"/>
      <point x="50" y="36"/>
      <point x="119" y="76"/>
      <point x="278" y="187" type="qcurve"/>
      <point x="254" y="210"/>
      <point x="177" y="292"/>
      <point x="97" y="374"/>
      <point x="66" y="406" type="qcurve" smooth="yes"/>
      <point x="37" y="432"/>
      <point x="11" y="443" type="qcurve" smooth="yes"/>
      <point x="2" y="447"/>
      <point x="2" y="457" type="qcurve" smooth="yes"/>
      <point x="2" y="466"/>
      <point x="14" y="476" type="qcurve" smooth="yes"/>
      <point x="40" y="499"/>
      <point x="88" y="499"/>
      <point x="210" y="364" type="qcurve" smooth="yes"/>
      <point x="291" y="274"/>
      <point x="337" y="229" type="qcurve"/>
      <point x="354" y="239" type="line"/>
      <point x="354" y="373" type="line"/>
      <point x="349" y="479" type="line" smooth="yes"/>
      <point x="349" y="495"/>
      <point x="373" y="495" type="qcurve" smooth="yes"/>
      <point x="392" y="495"/>
      <point x="434" y="478"/>
      <point x="434" y="461" type="qcurve" smooth="yes"/>
      <point x="432" y="373" type="line"/>
      <point x="432" y="-111"/>
      <point x="435" y="-218" type="qcurve" smooth="yes"/>
      <point x="435" y="-234"/>
    </contour>
  </outline>
</glyph>
<glyph name="u02A2" format="2">
  <advance height="1000" width="570"/>
  <unicode hex="02A2"/>
  <outline>
    <contour>
      <point x="324" y="-16" type="qcurve" smooth="yes"/>
      <point x="305" y="-16"/>
      <point x="261" y="1"/>
      <point x="261" y="17" type="qcurve" smooth="yes"/>
      <point x="262" y="132" type="line"/>
      <point x="190" y="132"/>
      <point x="136" y="129" type="qcurve" smooth="yes"/>
      <point x="122" y="129"/>
      <point x="109" y="159"/>
      <point x="109" y="174" type="qcurve" smooth="yes"/>
      <point x="109" y="204"/>
      <point x="131" y="204" type="qcurve" smooth="yes"/>
      <point x="161" y="202"/>
      <point x="263" y="202" type="qcurve"/>
      <point x="264" y="257" type="line" smooth="yes"/>
      <point x="264" y="292"/>
      <point x="219" y="346"/>
      <point x="160" y="391"/>
      <point x="102" y="446"/>
      <point x="63" y="521"/>
      <point x="63" y="581" type="qcurve" smooth="yes"/>
      <point x="63" y="642"/>
      <point x="157" y="719"/>
      <point x="241" y="719" type="qcurve" smooth="yes"/>
      <point x="414" y="719"/>
      <point x="504" y="560" type="qcurve" smooth="yes"/>
      <point x="507" y="556"/>
      <point x="507" y="544" type="qcurve" smooth="yes"/>
      <point x="507" y="530"/>
      <point x="471" y="500"/>
      <point x="455" y="500" type="qcurve" smooth="yes"/>
      <point x="436" y="500"/>
      <point x="430" y="517" type="qcurve" smooth="yes"/>
      <point x="418" y="560"/>
      <point x="368" y="611"/>
      <point x="287" y="648"/>
      <point x="238" y="648" type="qcurve" smooth="yes"/>
      <point x="191" y="648"/>
      <point x="148" y="602"/>
      <point x="148" y="568" type="qcurve" smooth="yes"/>
      <point x="148" y="500"/>
      <point x="208" y="446" type="qcurve" smooth="yes"/>
      <point x="262" y="399" type="line" smooth="yes"/>
      <point x="329" y="342"/>
      <point x="339" y="287" type="qcurve" smooth="yes"/>
      <point x="343" y="262"/>
      <point x="343" y="202" type="qcurve"/>
      <point x="431" y="202"/>
      <point x="469" y="204" type="qcurve" smooth="yes"/>
      <point x="482" y="204"/>
      <point x="496" y="175"/>
      <point x="496" y="160" type="qcurve" smooth="yes"/>
      <point x="496" y="130"/>
      <point x="475" y="130" type="qcurve" smooth="yes"/>
      <point x="453" y="130"/>
      <point x="419" y="132" type="qcurve" smooth="yes"/>
      <point x="344" y="132" type="line"/>
      <point x="347" y="-1" type="line" smooth="yes"/>
      <point x="347" y="-16"/>
    </contour>
  </outline>
</glyph>
<glyph name="u02B0" format="2">
  <advance height="1000" width="320"/>
  <unicode hex="02B0"/>
  <outline>
    <contour>
      <point x="110" y="574" type="line"/>
      <point x="114" y="578"/>
      <point x="132" y="588" type="qcurve"/>
      <point x="155" y="600"/>
      <point x="186" y="600" type="qcurve"/>
      <point x="279" y="600"/>
      <point x="279" y="489" type="qcurve"/>
      <point x="279" y="393" type="line"/>
      <point x="280" y="340" type="line"/>
      <point x="280" y="318"/>
      <point x="259" y="318" type="qcurve"/>
      <point x="242" y="318"/>
      <point x="211" y="331"/>
      <point x="211" y="349" type="qcurve"/>
      <point x="211" y="363" type="line"/>
      <point x="212" y="398"/>
      <point x="212" y="487" type="qcurve"/>
      <point x="212" y="513"/>
      <point x="201" y="535"/>
      <point x="188" y="535" type="qcurve"/>
      <point x="156" y="535"/>
      <point x="111" y="488"/>
      <point x="110" y="422" type="qcurve"/>
      <point x="110" y="371"/>
      <point x="111" y="341" type="qcurve"/>
      <point x="111" y="318"/>
      <point x="90" y="318" type="qcurve"/>
      <point x="73" y="318"/>
      <point x="42" y="331"/>
      <point x="42" y="349" type="qcurve"/>
      <point x="43" y="398" type="line"/>
      <point x="43" y="636" type="line"/>
      <point x="41" y="689" type="line"/>
      <point x="41" y="711"/>
      <point x="63" y="711" type="qcurve"/>
      <point x="79" y="711"/>
      <point x="111" y="698"/>
      <point x="111" y="680" type="qcurve"/>
    </contour>
  </outline>
</glyph>
<glyph name="u02B2" format="2">
  <advance height="1000" width="191"/>
  <unicode hex="02B2"/>
  <outline>
    <contour>
      <point x="72" y="243" type="qcurve"/>
      <point x="46" y="243"/>
      <point x="5" y="264"/>
      <point x="5" y="283" type="qcurve"/>
      <point x="5" y="296"/>
      <point x="22" y="323"/>
      <point x="37" y="323" type="qcurve"/>
      <point x="50" y="323"/>
      <point x="64" y="306"/>
      <point x="73" y="306" type="qcurve"/>
      <point x="72" y="306"/>
      <point x="72" y="307" type="qcurve"/>
      <point x="72" y="308"/>
      <point x="74" y="313"/>
      <point x="74" y="324" type="qcurve"/>
      <point x="74" y="522" type="line"/>
      <point x="73" y="577" type="line"/>
      <point x="73" y="598"/>
      <point x="98" y="598" type="qcurve"/>
      <point x="110" y="598"/>
      <point x="141" y="586"/>
      <point x="141" y="568" type="qcurve"/>
      <point x="140" y="522" type="line"/>
      <point x="140" y="325" type="line"/>
      <point x="140" y="243"/>
    </contour>
    <contour>
      <point x="109" y="619" type="qcurve"/>
      <point x="90" y="619"/>
      <point x="67" y="648"/>
      <point x="67" y="665" type="qcurve"/>
      <point x="67" y="681"/>
      <point x="88" y="705"/>
      <point x="106" y="705" type="qcurve"/>
      <point x="125" y="705"/>
      <point x="148" y="674"/>
      <point x="148" y="659" type="qcurve"/>
      <point x="148" y="641"/>
      <point x="126" y="619"/>
    </contour>
  </outline>
</glyph>
<glyph name="u02B3" format="2">
  <advance height="1000" width="256"/>
  <unicode hex="02B3"/>
  <outline>
    <contour>
      <point x="94" y="319" type="qcurve"/>
      <point x="82" y="319"/>
      <point x="51" y="331"/>
      <point x="51" y="349" type="qcurve"/>
      <point x="52" y="393" type="line"/>
      <point x="52" y="523" type="line"/>
      <point x="50" y="577" type="line"/>
      <point x="50" y="598"/>
      <point x="75" y="598" type="qcurve"/>
      <point x="87" y="598"/>
      <point x="115" y="587"/>
      <point x="118" y="587" type="qcurve"/>
      <point x="119" y="587" type="line"/>
      <point x="128" y="599"/>
      <point x="169" y="599" type="qcurve"/>
      <point x="192" y="599"/>
      <point x="223" y="587"/>
      <point x="248" y="567"/>
      <point x="248" y="552" type="qcurve"/>
      <point x="248" y="540"/>
      <point x="228" y="511"/>
      <point x="215" y="511" type="qcurve"/>
      <point x="201" y="511"/>
      <point x="193" y="524" type="qcurve"/>
      <point x="191" y="528"/>
      <point x="177" y="534"/>
      <point x="173" y="534" type="qcurve"/>
      <point x="125" y="534"/>
      <point x="119" y="471" type="qcurve"/>
      <point x="117" y="454"/>
      <point x="117" y="393" type="qcurve"/>
      <point x="119" y="340" type="line"/>
      <point x="119" y="319"/>
    </contour>
  </outline>
</glyph>
<glyph name="u02B7" format="2">
  <advance height="1000" width="406"/>
  <unicode hex="02B7"/>
  <outline>
    <contour>
      <point x="278" y="315" type="qcurve"/>
      <point x="269" y="315"/>
      <point x="249" y="324"/>
      <point x="236" y="336"/>
      <point x="233" y="352"/>
      <point x="232" y="359" type="qcurve"/>
      <point x="200" y="469" type="line"/>
      <point x="165" y="367" type="line"/>
      <point x="162" y="359"/>
      <point x="159" y="346"/>
      <point x="150" y="315"/>
      <point x="125" y="315" type="qcurve"/>
      <point x="106" y="315"/>
      <point x="92" y="330" type="qcurve"/>
      <point x="86" y="336"/>
      <point x="84" y="349"/>
      <point x="81" y="358" type="qcurve"/>
      <point x="25" y="548" type="line"/>
      <point x="22" y="555"/>
      <point x="17" y="565"/>
      <point x="17" y="571" type="qcurve"/>
      <point x="17" y="595"/>
      <point x="51" y="595" type="qcurve"/>
      <point x="61" y="595"/>
      <point x="89" y="586"/>
      <point x="89" y="570" type="qcurve"/>
      <point x="93" y="549" type="line"/>
      <point x="123" y="437" type="line"/>
      <point x="160" y="542" type="line"/>
      <point x="164" y="567" type="line"/>
      <point x="167" y="590"/>
      <point x="192" y="590" type="qcurve"/>
      <point x="206" y="590"/>
      <point x="237" y="579"/>
      <point x="241" y="559"/>
      <point x="242" y="548"/>
      <point x="243" y="545" type="qcurve"/>
      <point x="276" y="435" type="line"/>
      <point x="313" y="548" type="line"/>
      <point x="321" y="580" type="line"/>
      <point x="325" y="598"/>
      <point x="347" y="598" type="qcurve"/>
      <point x="359" y="598"/>
      <point x="389" y="586"/>
      <point x="389" y="566" type="qcurve"/>
      <point x="374" y="527" type="line"/>
      <point x="318" y="367" type="line"/>
      <point x="309" y="338" type="line"/>
      <point x="302" y="315"/>
    </contour>
  </outline>
</glyph>
<glyph name="u02B8" format="2">
  <advance height="1000" width="291"/>
  <unicode hex="02B8"/>
  <outline>
    <contour>
      <point x="79" y="242" type="qcurve"/>
      <point x="74" y="242" type="line"/>
      <point x="63" y="242"/>
      <point x="33" y="247"/>
      <point x="18" y="259" type="qcurve"/>
      <point x="10" y="267"/>
      <point x="10" y="279" type="qcurve"/>
      <point x="10" y="289"/>
      <point x="27" y="318"/>
      <point x="41" y="318" type="qcurve"/>
      <point x="53" y="318"/>
      <point x="66" y="305"/>
      <point x="72" y="305" type="qcurve"/>
      <point x="80" y="305"/>
      <point x="88" y="311"/>
      <point x="93" y="324" type="qcurve"/>
      <point x="112" y="363" type="line"/>
      <point x="42" y="521" type="line"/>
      <point x="32" y="545"/>
      <point x="19" y="567"/>
      <point x="19" y="572" type="qcurve"/>
      <point x="19" y="596"/>
      <point x="54" y="596" type="qcurve"/>
      <point x="84" y="596"/>
      <point x="96" y="562"/>
      <point x="149" y="441" type="qcurve"/>
      <point x="205" y="560"/>
      <point x="212" y="584" type="qcurve"/>
      <point x="219" y="598"/>
      <point x="236" y="598" type="qcurve"/>
      <point x="248" y="598"/>
      <point x="276" y="580"/>
      <point x="276" y="566" type="qcurve"/>
      <point x="276" y="556"/>
      <point x="269" y="543"/>
      <point x="258" y="521"/>
      <point x="253" y="513" type="qcurve"/>
      <point x="148" y="292" type="line"/>
      <point x="137" y="268"/>
      <point x="103" y="242"/>
    </contour>
  </outline>
</glyph>
<glyph name="u02D0" format="2">
  <advance height="1000" width="350"/>
  <unicode hex="02D0"/>
  <outline>
    <contour>
      <point x="95" y="-9" type="line"/>
      <point x="176" y="139" type="line"/>
      <point x="255" y="-9" type="line"/>
    </contour>
    <contour>
      <point x="176" y="368" type="line"/>
      <point x="95" y="515" type="line"/>
      <point x="255" y="515" type="line"/>
    </contour>
  </outline>
</glyph>
<glyph name="u02E1" format="2">
  <advance height="1000" width="180"/>
  <unicode hex="02E1"/>
  <outline>
    <contour>
      <point x="112" y="313" type="qcurve"/>
      <point x="106" y="313" type="line"/>
      <point x="81" y="316"/>
      <point x="56" y="350"/>
      <point x="56" y="378" type="qcurve"/>
      <point x="56" y="636" type="line"/>
      <point x="54" y="689" type="line"/>
      <point x="54" y="711"/>
      <point x="76" y="711" type="qcurve"/>
      <point x="93" y="711"/>
      <point x="125" y="698"/>
      <point x="125" y="680" type="qcurve"/>
      <point x="124" y="636"/>
      <point x="124" y="380" type="qcurve"/>
      <point x="123" y="380" type="line"/>
      <point x="123" y="381"/>
      <point x="128" y="387" type="qcurve"/>
      <point x="140" y="397"/>
      <point x="155" y="397" type="qcurve"/>
      <point x="173" y="397"/>
      <point x="173" y="376" type="qcurve"/>
      <point x="173" y="358"/>
      <point x="135" y="313"/>
    </contour>
  </outline>
</glyph>
<glyph name="u02E2" format="2">
  <advance height="1000" width="300"/>
  <unicode hex="02E2"/>
  <outline>
    <contour>
      <point x="153" y="315" type="qcurve"/>
      <point x="121" y="315"/>
      <point x="76" y="331"/>
      <point x="49" y="353"/>
      <point x="35" y="376"/>
      <point x="35" y="387" type="qcurve"/>
      <point x="35" y="397"/>
      <point x="59" y="424"/>
      <point x="73" y="424" type="qcurve"/>
      <point x="87" y="424"/>
      <point x="96" y="402"/>
      <point x="102" y="394" type="qcurve"/>
      <point x="114" y="378"/>
      <point x="153" y="378" type="qcurve"/>
      <point x="177" y="378"/>
      <point x="199" y="395"/>
      <point x="199" y="405" type="qcurve"/>
      <point x="199" y="415"/>
      <point x="188" y="428"/>
      <point x="166" y="433" type="qcurve"/>
      <point x="116" y="445" type="line"/>
      <point x="47" y="461"/>
      <point x="47" y="519" type="qcurve"/>
      <point x="47" y="544"/>
      <point x="63" y="564" type="qcurve"/>
      <point x="95" y="601"/>
      <point x="155" y="601" type="qcurve"/>
      <point x="214" y="601"/>
      <point x="247" y="564" type="qcurve"/>
      <point x="254" y="559"/>
      <point x="254" y="547" type="qcurve"/>
      <point x="254" y="536"/>
      <point x="235" y="508"/>
      <point x="222" y="508" type="qcurve"/>
      <point x="209" y="508"/>
      <point x="199" y="522" type="qcurve"/>
      <point x="188" y="539"/>
      <point x="156" y="539" type="qcurve"/>
      <point x="132" y="539"/>
      <point x="114" y="525"/>
      <point x="114" y="520" type="qcurve"/>
      <point x="114" y="514"/>
      <point x="119" y="509"/>
      <point x="135" y="505" type="qcurve"/>
      <point x="182" y="494" type="line"/>
      <point x="219" y="486"/>
      <point x="266" y="444"/>
      <point x="266" y="405" type="qcurve"/>
      <point x="266" y="379"/>
      <point x="236" y="338"/>
      <point x="185" y="315"/>
    </contour>
  </outline>
</glyph>
<glyph name="u02E3" format="2">
  <advance height="1000" width="291"/>
  <unicode hex="02E3"/>
  <outline>
    <contour>
      <point x="64" y="318" type="qcurve"/>
      <point x="51" y="318"/>
      <point x="21" y="329"/>
      <point x="21" y="345" type="qcurve"/>
      <point x="21" y="353"/>
      <point x="37" y="369"/>
      <point x="58" y="395" type="qcurve"/>
      <point x="107" y="462" type="line"/>
      <point x="61" y="526" type="line"/>
      <point x="49" y="542"/>
      <point x="30" y="560"/>
      <point x="30" y="568" type="qcurve"/>
      <point x="30" y="583"/>
      <point x="62" y="596"/>
      <point x="73" y="596" type="qcurve"/>
      <point x="92" y="596"/>
      <point x="106" y="569"/>
      <point x="146" y="514" type="qcurve"/>
      <point x="182" y="563" type="line"/>
      <point x="186" y="569"/>
      <point x="194" y="582"/>
      <point x="202" y="598"/>
      <point x="220" y="598" type="qcurve"/>
      <point x="231" y="598"/>
      <point x="263" y="585"/>
      <point x="263" y="570" type="qcurve"/>
      <point x="263" y="562"/>
      <point x="247" y="546"/>
      <point x="232" y="528" type="qcurve"/>
      <point x="184" y="462" type="line"/>
      <point x="233" y="396" type="line"/>
      <point x="238" y="388"/>
      <point x="269" y="354"/>
      <point x="269" y="346" type="qcurve"/>
      <point x="269" y="331"/>
      <point x="239" y="319"/>
      <point x="226" y="319" type="qcurve"/>
      <point x="207" y="319"/>
      <point x="199" y="332" type="qcurve"/>
      <point x="186" y="354"/>
      <point x="146" y="410" type="qcurve"/>
      <point x="108" y="359" type="line"/>
      <point x="90" y="331" type="line"/>
      <point x="82" y="318"/>
    </contour>
  </outline>
</glyph>
<glyph name="u0308" format="2">
  <advance height="1000"/>
  <unicode hex="0308"/>
  <outline>
    <contour>
      <point x="-178" y="586"/>
      <point x="-215" y="631"/>
      <point x="-215" y="677"/>
      <point x="-188" y="707"/>
      <point x="-140" y="707"/>
      <point x="-102" y="664"/>
      <point x="-102" y="616"/>
      <point x="-130" y="586"/>
    </contour>
    <contour>
      <point x="-361" y="586"/>
      <point x="-398" y="631"/>
      <point x="-398" y="677"/>
      <point x="-371" y="707"/>
      <point x="-323" y="707"/>
      <point x="-285" y="664"/>
      <point x="-285" y="616"/>
      <point x="-313" y="586"/>
    </contour>
  </outline>
</glyph>
<glyph name="u030A" format="2">
  <advance height="1000"/>
  <unicode hex="030A"/>
  <outline>
    <contour>
      <point x="-289" y="546"/>
      <point x="-349" y="606"/>
      <point x="-349" y="686"/>
      <point x="-289" y="746"/>
      <point x="-209" y="746"/>
      <point x="-149" y="686"/>
      <point x="-149" y="606"/>
      <point x="-209" y="546"/>
    </contour>
    <contour>
      <point x="-248" y="606" type="qcurve" smooth="yes"/>
      <point x="-232" y="606"/>
      <point x="-209" y="629"/>
      <point x="-209" y="647" type="qcurve" smooth="yes"/>
      <point x="-209" y="664"/>
      <point x="-231" y="686"/>
      <point x="-248" y="686" type="qcurve" smooth="yes"/>
      <point x="-266" y="686"/>
      <point x="-289" y="663"/>
      <point x="-289" y="647" type="qcurve" smooth="yes"/>
      <point x="-289" y="629"/>
      <point x="-266" y="606"/>
    </contour>
  </outline>
</glyph>
<glyph name="u0318" format="2">
  <advance height="1000"/>
  <unicode hex="0318"/>
  <outline>
    <contour>
      <point x="-187" y="-216" type="line"/>
      <point x="-187" y="-167" type="line"/>
      <point x="-352" y="-167" type="line"/>
      <point x="-352" y="-101" type="line"/>
      <point x="-187" y="-101" type="line"/>
      <point x="-187" y="-52" type="line"/>
      <point x="-113" y="-52" type="line"/>
      <point x="-113" y="-216" type="line"/>
    </contour>
  </outline>
</glyph>
<glyph name="u032F" format="2">
  <advance height="1000"/>
  <unicode hex="032F"/>
  <outline>
    <contour>
      <point x="-115" y="-225" type="qcurve" smooth="yes"/>
      <point x="-131" y="-225"/>
      <point x="-160" y="-199"/>
      <point x="-160" y="-186" type="qcurve" smooth="yes"/>
      <point x="-160" y="-163"/>
      <point x="-118" y="-125" type="qcurve" smooth="yes"/>
      <point x="-68" y="-83"/>
      <point x="72" y="-83"/>
      <point x="121" y="-129" type="qcurve" smooth="yes"/>
      <point x="161" y="-164"/>
      <point x="161" y="-187" type="qcurve" smooth="yes"/>
      <point x="161" y="-198"/>
      <point x="130" y="-224"/>
      <point x="115" y="-224" type="qcurve" smooth="yes"/>
      <point x="97" y="-224"/>
      <point x="91" y="-210" type="qcurve" smooth="yes"/>
      <point x="60" y="-155"/>
      <point x="-1" y="-155" type="qcurve" smooth="yes"/>
      <point x="-61" y="-155"/>
      <point x="-91" y="-210" type="qcurve" smooth="yes"/>
      <point x="-98" y="-225"/>
    </contour>
  </outline>
</glyph>
<glyph name="u0330" format="2">
  <advance height="1000"/>
  <unicode hex="0330"/>
  <outline>
    <contour>
      <point x="-136" y="-217" type="qcurve" smooth="yes"/>
      <point x="-160" y="-217"/>
      <point x="-160" y="-194" type="qcurve" smooth="yes"/>
      <point x="-160" y="-179"/>
      <point x="-136" y="-132"/>
      <point x="-90" y="-94"/>
      <point x="-26" y="-94"/>
      <point x="15" y="-121"/>
      <point x="46" y="-145"/>
      <point x="63" y="-145" type="qcurve" smooth="yes"/>
      <point x="100" y="-145"/>
      <point x="119" y="-106" type="qcurve" smooth="yes"/>
      <point x="126" y="-91"/>
      <point x="138" y="-91" type="qcurve" smooth="yes"/>
      <point x="161" y="-91"/>
      <point x="161" y="-114" type="qcurve" smooth="yes"/>
      <point x="160" y="-122" type="line" smooth="yes"/>
      <point x="153" y="-155"/>
      <point x="100" y="-214"/>
      <point x="63" y="-214" type="qcurve" smooth="yes"/>
      <point x="27" y="-214"/>
      <point x="-14" y="-188"/>
      <point x="-45" y="-163"/>
      <point x="-62" y="-163" type="qcurve" smooth="yes"/>
      <point x="-99" y="-163"/>
      <point x="-118" y="-202" type="qcurve" smooth="yes"/>
      <point x="-125" y="-217"/>
    </contour>
  </outline>
</glyph>
<glyph name="u0332" format="2">
  <advance height="1000"/>
  <unicode hex="0332"/>
  <outline>
    <contour>
      <point x="-495" y="-168" type="line" smooth="yes"/>
      <point x="-520" y="-168"/>
      <point x="-520" y="-131" type="qcurve" smooth="yes"/>
      <point x="-520" y="-95"/>
      <point x="-495" y="-95" type="qcurve" smooth="yes"/>
      <point x="-5" y="-95" type="line" smooth="yes"/>
      <point x="20" y="-95"/>
      <point x="20" y="-131" type="qcurve" smooth="yes"/>
      <point x="20" y="-168"/>
      <point x="-5" y="-168" type="qcurve" smooth="yes"/>
    </contour>
  </outline>
</glyph>
<glyph name="u033B" format="2">
  <advance height="1000"/>
  <unicode hex="033B"/>
  <outline>
    <contour>
      <point x="-387" y="-216" type="line"/>
      <point x="-387" y="-52" type="line"/>
      <point x="-113" y="-52" type="line"/>
      <point x="-113" y="-216" type="line"/>
    </contour>
    <contour>
      <point x="-313" y="-159" type="line"/>
      <point x="-187" y="-159" type="line"/>
      <point x="-187" y="-109" type="line"/>
      <point x="-313" y="-109" type="line"/>
    </contour>
  </outline>
</glyph>
<glyph name="u037A" format="2">
  <advance height="1000" width="350"/>
  <unicode hex="037A"/>
  <outline>
    <contour>
      <point x="205" y="-291" type="qcurve" smooth="yes"/>
      <point x="137" y="-291"/>
      <point x="128" y="-226" type="qcurve" smooth="yes"/>
      <point x="127" y="-213"/>
      <point x="127" y="-199" type="qcurve" smooth="yes"/>
      <point x="132" y="-123" type="line"/>
      <point x="132" y="-71" type="line" smooth="yes"/>
      <point x="135" y="-51"/>
      <point x="152" y="-51" type="qcurve" smooth="yes"/>
      <point x="164" y="-51"/>
      <point x="175" y="-54" type="qcurve" smooth="yes"/>
      <point x="205" y="-64"/>
      <point x="205" y="-82" type="qcurve" smooth="yes"/>
      <point x="200" y="-204" type="line" smooth="yes"/>
      <point x="200" y="-216"/>
      <point x="201" y="-228"/>
      <point x="208" y="-230"/>
      <point x="215" y="-230" type="qcurve" smooth="yes"/>
      <point x="237" y="-230"/>
      <point x="251" y="-220" type="qcurve" smooth="yes"/>
      <point x="264" y="-211"/>
      <point x="277" y="-211" type="qcurve" smooth="yes"/>
      <point x="296" y="-211"/>
      <point x="296" y="-234" type="qcurve" smooth="yes"/>
      <point x="296" y="-248"/>
      <point x="269" y="-274"/>
      <point x="228" y="-291"/>
    </contour>
  </outline>
</glyph>
<glyph name="Iotatonos" format="2">
  <advance height="1000" width="383"/>
  <unicode hex="038A"/>
  <outline>
    <contour>
      <point x="252" y="-16" type="qcurve" smooth="yes"/>
      <point x="231" y="-16"/>
      <point x="186" y="1"/>
      <point x="186" y="18" type="qcurve" smooth="yes"/>
      <point x="188" y="107" type="line"/>
      <point x="188" y="589"/>
      <point x="185" y="695" type="qcurve" smooth="yes"/>
      <point x="185" y="711"/>
      <point x="211" y="711" type="qcurve" smooth="yes"/>
      <point x="231" y="711"/>
      <point x="276" y="694"/>
      <point x="276" y="677" type="qcurve" smooth="yes"/>
      <point x="274" y="588" type="line"/>
      <point x="274" y="106"/>
      <point x="277" y="0" type="qcurve" smooth="yes"/>
      <point x="277" y="-16"/>
    </contour>
    <contour>
      <point x="53" y="514" type="qcurve" smooth="yes"/>
      <point x="37" y="514"/>
      <point x="4" y="532"/>
      <point x="4" y="543" type="qcurve" smooth="yes"/>
      <point x="4" y="551"/>
      <point x="6" y="553" type="qcurve" smooth="yes"/>
      <point x="55" y="707" type="line" smooth="yes"/>
      <point x="59" y="723"/>
      <point x="82" y="723" type="qcurve" smooth="yes"/>
      <point x="101" y="723"/>
      <point x="138" y="701"/>
      <point x="138" y="685" type="qcurve" smooth="yes"/>
      <point x="138" y="681"/>
      <point x="75" y="527" type="qcurve" smooth="yes"/>
      <point x="70" y="514"/>
    </contour>
  </outline>
</glyph>
<glyph name="beta" format="2">
  <advance height="1000" width="565"/>
  <unicode hex="03B2"/>
  <outline>
    <contour>
      <point x="138" y="-208" type="qcurve" smooth="yes"/>
      <point x="121" y="-208"/>
      <point x="72" y="-185"/>
      <point x="72" y="-165" type="qcurve" smooth="yes"/>
      <point x="77" y="-131"/>
      <point x="79" y="-78" type="qcurve" smooth="yes"/>
      <point x="91" y="459" type="line" smooth="yes"/>
      <point x="93" y="560"/>
      <point x="123" y="616" type="qcurve" smooth="yes"/>
      <point x="177" y="718"/>
      <point x="297" y="718" type="qcurve" smooth="yes"/>
      <point x="363" y="718"/>
      <point x="409" y="675" type="qcurve" smooth="yes"/>
      <point x="463" y="624"/>
      <point x="463" y="544" type="qcurve" smooth="yes"/>
      <point x="463" y="491"/>
      <point x="401" y="399"/>
      <point x="371" y="390" type="qcurve"/>
      <point x="440" y="385"/>
      <point x="494" y="293" type="qcurve" smooth="yes"/>
      <point x="526" y="238"/>
      <point x="526" y="170" type="qcurve" smooth="yes"/>
      <point x="526" y="124"/>
      <point x="481" y="32"/>
      <point x="379" y="-22"/>
      <point x="267" y="-22"/>
      <point x="176" y="24"/>
      <point x="163" y="44" type="qcurve"/>
      <point x="160" y="-65"/>
      <point x="160" y="-193" type="qcurve" smooth="yes"/>
      <point x="160" y="-208"/>
    </contour>
    <contour>
      <point x="310" y="54" type="qcurve" smooth="yes"/>
      <point x="374" y="54"/>
      <point x="412" y="94" type="qcurve" smooth="yes"/>
      <point x="441" y="127"/>
      <point x="441" y="179" type="qcurve" smooth="yes"/>
      <point x="441" y="190"/>
      <point x="432" y="271"/>
      <point x="349" y="343"/>
      <point x="280" y="343" type="qcurve" smooth="yes"/>
      <point x="260" y="343"/>
      <point x="233" y="332"/>
      <point x="227" y="332" type="qcurve" smooth="yes"/>
      <point x="208" y="332"/>
      <point x="179" y="373"/>
      <point x="179" y="392" type="qcurve" smooth="yes"/>
      <point x="179" y="410"/>
      <point x="197" y="410" type="qcurve" smooth="yes"/>
      <point x="249" y="410"/>
      <point x="266" y="417" type="qcurve" smooth="yes"/>
      <point x="379" y="456"/>
      <point x="379" y="542" type="qcurve"/>
      <point x="373" y="642"/>
      <point x="302" y="642" type="qcurve" smooth="yes"/>
      <point x="178" y="642"/>
      <point x="174" y="452" type="qcurve" smooth="yes"/>
      <point x="166" y="110" type="line"/>
      <point x="161" y="107" type="line"/>
      <point x="169" y="107"/>
      <point x="200" y="85" type="qcurve" smooth="yes"/>
      <point x="245" y="54"/>
    </contour>
  </outline>
</glyph>
<glyph name="u03BC" format="2">
  <advance height="1000" width="562"/>
  <unicode hex="03BC"/>
  <outline>
    <contour>
      <point x="139" y="-196" type="qcurve" smooth="yes"/>
      <point x="123" y="-196"/>
      <point x="75" y="-175"/>
      <point x="74" y="-158" type="qcurve" smooth="yes"/>
      <point x="78" y="-108"/>
      <point x="94" y="408"/>
      <point x="94" y="438" type="qcurve" smooth="yes"/>
      <point x="93" y="473" type="line" smooth="yes"/>
      <point x="95" y="490"/>
      <point x="115" y="490" type="qcurve" smooth="yes"/>
      <point x="132" y="490"/>
      <point x="175" y="467"/>
      <point x="177" y="449" type="qcurve" smooth="yes"/>
      <point x="177" y="433"/>
      <point x="175" y="407" type="qcurve" smooth="yes"/>
      <point x="172" y="373"/>
      <point x="167" y="193" type="qcurve" smooth="yes"/>
      <point x="167" y="54"/>
      <point x="263" y="54" type="qcurve" smooth="yes"/>
      <point x="301" y="54"/>
      <point x="372" y="114"/>
      <point x="375" y="172" type="qcurve" smooth="yes"/>
      <point x="385" y="384"/>
      <point x="385" y="414" type="qcurve" smooth="yes"/>
      <point x="384" y="468" type="line" smooth="yes"/>
      <point x="384" y="482"/>
      <point x="405" y="482" type="qcurve" smooth="yes"/>
      <point x="420" y="482"/>
      <point x="466" y="460"/>
      <point x="469" y="442" type="qcurve"/>
      <point x="464" y="367"/>
      <point x="455" y="118" type="qcurve" smooth="yes"/>
      <point x="455" y="45"/>
      <point x="490" y="45" type="qcurve" smooth="yes"/>
      <point x="522" y="45"/>
      <point x="560" y="62"/>
      <point x="572" y="62" type="qcurve" smooth="yes"/>
      <point x="589" y="62"/>
      <point x="589" y="46" type="qcurve" smooth="yes"/>
      <point x="589" y="35"/>
      <point x="574" y="20" type="qcurve" smooth="yes"/>
      <point x="539" y="-19"/>
      <point x="486" y="-19" type="qcurve" smooth="yes"/>
      <point x="400" y="-19"/>
      <point x="392" y="36" type="qcurve"/>
      <point x="376" y="12"/>
      <point x="299" y="-22"/>
      <point x="259" y="-22" type="qcurve" smooth="yes"/>
      <point x="182" y="-22"/>
      <point x="161" y="22" type="qcurve"/>
      <point x="159" y="-130" type="line"/>
      <point x="159" y="-183" type="line" smooth="yes"/>
      <point x="159" y="-196"/>
    </contour>
  </outline>
</glyph>
<glyph name="sigma" format="2">
  <advance height="1000" width="572"/>
  <unicode hex="03C3"/>
  <outline>
    <contour>
      <point x="278" y="-24" type="qcurve" smooth="yes"/>
      <point x="144" y="-24"/>
      <point x="82" y="83" type="qcurve" smooth="yes"/>
      <point x="48" y="143"/>
      <point x="48" y="213" type="qcurve" smooth="yes"/>
      <point x="48" y="314"/>
      <point x="195" y="488"/>
      <point x="326" y="488" type="qcurve" smooth="yes"/>
      <point x="462" y="488"/>
      <point x="513" y="491" type="qcurve" smooth="yes"/>
      <point x="531" y="491"/>
      <point x="560" y="445"/>
      <point x="560" y="431" type="qcurve" smooth="yes"/>
      <point x="560" y="412"/>
      <point x="544" y="412" type="qcurve" smooth="yes"/>
      <point x="477" y="414"/>
      <point x="407" y="414" type="qcurve"/>
      <point x="430" y="399"/>
      <point x="461" y="352" type="qcurve" smooth="yes"/>
      <point x="499" y="294"/>
      <point x="499" y="214" type="qcurve" smooth="yes"/>
      <point x="499" y="159"/>
      <point x="455" y="48"/>
      <point x="349" y="-24"/>
    </contour>
    <contour>
      <point x="355" y="76" type="qcurve" smooth="yes"/>
      <point x="419" y="121"/>
      <point x="419" y="210" type="qcurve" smooth="yes"/>
      <point x="419" y="221"/>
      <point x="409" y="339"/>
      <point x="349" y="393" type="qcurve" smooth="yes"/>
      <point x="337" y="403"/>
      <point x="336" y="414" type="qcurve"/>
      <point x="327" y="414" type="line" smooth="yes"/>
      <point x="234" y="414"/>
      <point x="179" y="345" type="qcurve" smooth="yes"/>
      <point x="128" y="284"/>
      <point x="128" y="211" type="qcurve" smooth="yes"/>
      <point x="128" y="134"/>
      <point x="170" y="89" type="qcurve" smooth="yes"/>
      <point x="206" y="51"/>
      <point x="318" y="51"/>
    </contour>
  </outline>
</glyph>
<glyph name="u03D0" format="2">
  <advance height="1000" width="530"/>
  <unicode hex="03D0"/>
  <outline>
    <contour>
      <point x="248" y="-9" type="qcurve" smooth="yes"/>
      <point x="215" y="-9"/>
      <point x="179" y="8" type="qcurve" smooth="yes"/>
      <point x="98" y="46"/>
      <point x="73" y="163" type="qcurve" smooth="yes"/>
      <point x="64" y="208"/>
      <point x="64" y="258" type="qcurve" smooth="yes"/>
      <point x="64" y="316"/>
      <point x="76" y="379" type="qcurve" smooth="yes"/>
      <point x="116" y="591"/>
      <point x="249" y="659" type="qcurve" smooth="yes"/>
      <point x="298" y="686"/>
      <point x="357" y="686" type="qcurve" smooth="yes"/>
      <point x="479" y="686"/>
      <point x="498" y="597" type="qcurve" smooth="yes"/>
      <point x="500" y="588"/>
      <point x="500" y="578" type="qcurve" smooth="yes"/>
      <point x="500" y="553"/>
      <point x="467" y="495"/>
      <point x="372" y="455"/>
      <point x="240" y="455"/>
      <point x="180" y="465" type="qcurve"/>
      <point x="149" y="401"/>
      <point x="147" y="376" type="qcurve"/>
      <point x="182" y="421"/>
      <point x="253" y="421" type="qcurve" smooth="yes"/>
      <point x="296" y="421"/>
      <point x="332" y="403" type="qcurve" smooth="yes"/>
      <point x="412" y="364"/>
      <point x="434" y="268" type="qcurve" smooth="yes"/>
      <point x="440" y="240"/>
      <point x="440" y="213" type="qcurve" smooth="yes"/>
      <point x="440" y="146"/>
      <point x="353" y="-9"/>
    </contour>
    <contour>
      <point x="248" y="68" type="qcurve" smooth="yes"/>
      <point x="315" y="68"/>
      <point x="350" y="162" type="qcurve" smooth="yes"/>
      <point x="360" y="189"/>
      <point x="360" y="221" type="qcurve" smooth="yes"/>
      <point x="360" y="289"/>
      <point x="329" y="323" type="qcurve" smooth="yes"/>
      <point x="305" y="353"/>
      <point x="263" y="353" type="qcurve" smooth="yes"/>
      <point x="219" y="353"/>
      <point x="189" y="332" type="qcurve" smooth="yes"/>
      <point x="143" y="299"/>
      <point x="143" y="229" type="qcurve" smooth="yes"/>
      <point x="143" y="202"/>
      <point x="154" y="155" type="qcurve" smooth="yes"/>
      <point x="172" y="68"/>
    </contour>
    <contour>
      <point x="246" y="511" type="qcurve" smooth="yes"/>
      <point x="315" y="511"/>
      <point x="378" y="535" type="qcurve" smooth="yes"/>
      <point x="428" y="553"/>
      <point x="428" y="586" type="qcurve" smooth="yes"/>
      <point x="428" y="621"/>
      <point x="379" y="621" type="qcurve" smooth="yes"/>
      <point x="272" y="621"/>
      <point x="202" y="513" type="qcurve"/>
      <point x="215" y="511"/>
    </contour>
  </outline>
</glyph>
<glyph name="u03F3" format="2">
  <advance height="1000" width="301"/>
  <unicode hex="03F3"/>
  <outline>
    <contour>
      <point x="172" y="-145" type="qcurve" smooth="yes"/>
      <point x="148" y="-168"/>
      <point x="56" y="-168"/>
      <point x="-5" y="-135"/>
      <point x="-5" y="-114" type="qcurve" smooth="yes"/>
      <point x="-5" y="-96"/>
      <point x="18" y="-60"/>
      <point x="46" y="-60"/>
      <point x="73" y="-94"/>
      <point x="104" y="-94" type="qcurve" smooth="yes"/>
      <point x="117" y="-94"/>
      <point x="133" y="-61"/>
      <point x="133" y="-31" type="qcurve" smooth="yes"/>
      <point x="133" y="364" type="line"/>
      <point x="130" y="475" type="line" smooth="yes"/>
      <point x="130" y="491"/>
      <point x="154" y="491" type="qcurve" smooth="yes"/>
      <point x="173" y="491"/>
      <point x="215" y="474"/>
      <point x="215" y="457" type="qcurve" smooth="yes"/>
      <point x="213" y="364" type="line"/>
      <point x="213" y="-30" type="line" smooth="yes"/>
      <point x="213" y="-108"/>
    </contour>
    <contour>
      <point x="229" y="638" type="qcurve" smooth="yes"/>
      <point x="229" y="615"/>
      <point x="200" y="584"/>
      <point x="152" y="584"/>
      <point x="118" y="627"/>
      <point x="118" y="650" type="qcurve" smooth="yes"/>
      <point x="118" y="672"/>
      <point x="146" y="704"/>
      <point x="171" y="704" type="qcurve" smooth="yes"/>
      <point x="195" y="704"/>
      <point x="229" y="660"/>
    </contour>
  </outline>
</glyph>
<glyph name="u03F9" format="2">
  <advance height="1000" width="703"/>
  <unicode hex="03F9"/>
  <outline>
    <contour>
      <point x="357" y="-24" type="qcurve" smooth="yes"/>
      <point x="269" y="-24"/>
      <point x="127" y="41"/>
      <point x="45" y="181"/>
      <point x="45" y="282" type="qcurve" smooth="yes"/>
      <point x="45" y="382"/>
      <point x="100" y="537"/>
      <point x="198" y="654"/>
      <point x="331" y="719"/>
      <point x="408" y="719" type="qcurve" smooth="yes"/>
      <point x="560" y="719"/>
      <point x="633" y="632" type="qcurve" smooth="yes"/>
      <point x="637" y="626"/>
      <point x="637" y="614" type="qcurve" smooth="yes"/>
      <point x="637" y="601"/>
      <point x="608" y="563"/>
      <point x="594" y="563" type="qcurve" smooth="yes"/>
      <point x="579" y="563"/>
      <point x="571" y="575" type="qcurve" smooth="yes"/>
      <point x="527" y="643"/>
      <point x="410" y="643" type="qcurve" smooth="yes"/>
      <point x="292" y="643"/>
      <point x="213" y="546" type="qcurve" smooth="yes"/>
      <point x="129" y="447"/>
      <point x="129" y="289" type="qcurve" smooth="yes"/>
      <point x="129" y="132"/>
      <point x="241" y="77" type="qcurve" smooth="yes"/>
      <point x="293" y="51"/>
      <point x="351" y="51" type="qcurve" smooth="yes"/>
      <point x="408" y="51"/>
      <point x="508" y="85"/>
      <point x="601" y="148"/>
      <point x="631" y="189" type="qcurve" smooth="yes"/>
      <point x="645" y="206"/>
      <point x="661" y="206" type="qcurve" smooth="yes"/>
      <point x="680" y="206"/>
      <point x="680" y="187" type="qcurve" smooth="yes"/>
      <point x="680" y="172"/>
      <point x="665" y="147" type="qcurve" smooth="yes"/>
      <point x="631" y="87"/>
      <point x="559" y="39" type="qcurve" smooth="yes"/>
      <point x="469" y="-24"/>
    </contour>
  </outline>
</glyph>
<glyph name="u0409" format="2">
  <advance height="1000" width="963"/>
  <unicode hex="0409"/>
  <outline>
    <contour>
      <point x="586" y="-18" type="qcurve"/>
      <point x="403" y="-13"/>
      <point x="403" y="23" type="qcurve" smooth="yes"/>
      <point x="403" y="41"/>
      <point x="429" y="44" type="qcurve" smooth="yes"/>
      <point x="449" y="44" type="line"/>
      <point x="449" y="636" type="line"/>
      <point x="209" y="621" type="line"/>
      <point x="209" y="355" type="line" smooth="yes"/>
      <point x="209" y="233"/>
      <point x="146" y="46"/>
      <point x="71" y="-15" type="qcurve" smooth="yes"/>
      <point x="67" y="-19"/>
      <point x="43" y="-19"/>
      <point x="3" y="9"/>
      <point x="3" y="24" type="qcurve" smooth="yes"/>
      <point x="3" y="38"/>
      <point x="14" y="47" type="qcurve" smooth="yes"/>
      <point x="83" y="99"/>
      <point x="126" y="254"/>
      <point x="126" y="353" type="qcurve" smooth="yes"/>
      <point x="126" y="638" type="line"/>
      <point x="122" y="688" type="line" smooth="yes"/>
      <point x="122" y="708"/>
      <point x="144" y="708" type="qcurve" smooth="yes"/>
      <point x="161" y="708"/>
      <point x="196" y="695" type="qcurve"/>
      <point x="419" y="708" type="line" smooth="yes"/>
      <point x="439" y="710"/>
      <point x="475" y="719"/>
      <point x="489" y="719" type="qcurve" smooth="yes"/>
      <point x="504" y="719"/>
      <point x="527" y="700"/>
      <point x="543" y="676"/>
      <point x="543" y="666" type="qcurve" smooth="yes"/>
      <point x="543" y="657"/>
      <point x="533" y="629"/>
      <point x="533" y="619" type="qcurve" smooth="yes"/>
      <point x="533" y="417" type="line"/>
      <point x="598" y="427"/>
      <point x="661" y="427" type="qcurve" smooth="yes"/>
      <point x="787" y="427"/>
      <point x="924" y="314"/>
      <point x="924" y="222" type="qcurve" smooth="yes"/>
      <point x="924" y="164"/>
      <point x="893" y="116" type="qcurve" smooth="yes"/>
      <point x="806" y="-18"/>
    </contour>
    <contour>
      <point x="533" y="47" type="line"/>
      <point x="540" y="47" type="line" smooth="yes"/>
      <point x="705" y="47"/>
      <point x="783" y="110" type="qcurve" smooth="yes"/>
      <point x="841" y="156"/>
      <point x="841" y="219" type="qcurve" smooth="yes"/>
      <point x="841" y="306"/>
      <point x="757" y="338" type="qcurve" smooth="yes"/>
      <point x="718" y="353"/>
      <point x="673" y="353" type="qcurve" smooth="yes"/>
      <point x="594" y="353"/>
      <point x="533" y="341" type="qcurve"/>
    </contour>
  </outline>
</glyph>
<glyph name="u040C" format="2">
  <advance height="1000" width="613"/>
  <unicode hex="040C"/>
  <outline>
    <contour>
      <point x="548" y="-21" type="qcurve" smooth="yes"/>
      <point x="529" y="-21"/>
      <point x="521" y="-9" type="qcurve" smooth="yes"/>
      <point x="506" y="16"/>
      <point x="389" y="174"/>
      <point x="305" y="302" type="qcurve"/>
      <point x="245" y="295"/>
      <point x="184" y="293" type="qcurve"/>
      <point x="184" y="106"/>
      <point x="187" y="0" type="qcurve" smooth="yes"/>
      <point x="187" y="-16"/>
      <point x="162" y="-16" type="qcurve" smooth="yes"/>
      <point x="142" y="-16"/>
      <point x="98" y="1"/>
      <point x="98" y="18" type="qcurve" smooth="yes"/>
      <point x="100" y="107" type="line"/>
      <point x="100" y="589"/>
      <point x="97" y="695" type="qcurve" smooth="yes"/>
      <point x="97" y="711"/>
      <point x="122" y="711" type="qcurve" smooth="yes"/>
      <point x="142" y="711"/>
      <point x="186" y="694"/>
      <point x="186" y="677" type="qcurve" smooth="yes"/>
      <point x="184" y="588"/>
      <point x="184" y="372" type="qcurve"/>
      <point x="284" y="372"/>
      <point x="409" y="400"/>
      <point x="435" y="447" type="qcurve" smooth="yes"/>
      <point x="453" y="478"/>
      <point x="453" y="512" type="qcurve" smooth="yes"/>
      <point x="453" y="589"/>
      <point x="392" y="650" type="qcurve" smooth="yes"/>
      <point x="384" y="658"/>
      <point x="384" y="682"/>
      <point x="424" y="706"/>
      <point x="460" y="706"/>
      <point x="469" y="695" type="qcurve" smooth="yes"/>
      <point x="535" y="604"/>
      <point x="535" y="509" type="qcurve" smooth="yes"/>
      <point x="535" y="357"/>
      <point x="390" y="317" type="qcurve"/>
      <point x="491" y="164"/>
      <point x="583" y="50"/>
      <point x="611" y="25"/>
      <point x="611" y="18" type="qcurve" smooth="yes"/>
      <point x="611" y="3"/>
      <point x="564" y="-21"/>
    </contour>
    <contour>
      <point x="254" y="758" type="qcurve" smooth="yes"/>
      <point x="254" y="782"/>
      <point x="407" y="884" type="qcurve" smooth="yes"/>
      <point x="411" y="886"/>
      <point x="419" y="886" type="qcurve" smooth="yes"/>
      <point x="428" y="886"/>
      <point x="443" y="875" type="qcurve" smooth="yes"/>
      <point x="481" y="849"/>
      <point x="481" y="826" type="qcurve" smooth="yes"/>
      <point x="481" y="815"/>
      <point x="470" y="810" type="qcurve" smooth="yes"/>
      <point x="421" y="792"/>
      <point x="325" y="759"/>
      <point x="284" y="735"/>
      <point x="268" y="735"/>
      <point x="254" y="749"/>
    </contour>
  </outline>
</glyph>
<glyph name="u040E" format="2">
  <advance height="1000" width="529"/>
  <unicode hex="040E"/>
  <outline>
    <contour>
      <point x="141" y="-13" type="qcurve" smooth="yes"/>
      <point x="76" y="-13"/>
      <point x="29" y="28" type="qcurve" smooth="yes"/>
      <point x="22" y="34"/>
      <point x="22" y="51" type="qcurve" smooth="yes"/>
      <point x="22" y="65"/>
      <point x="42" y="105"/>
      <point x="56" y="105" type="qcurve" smooth="yes"/>
      <point x="67" y="105"/>
      <point x="103" y="69"/>
      <point x="133" y="69" type="qcurve" smooth="yes"/>
      <point x="161" y="69"/>
      <point x="188" y="123" type="qcurve" smooth="yes"/>
      <point x="227" y="206" type="line"/>
      <point x="51" y="600" type="line" smooth="yes"/>
      <point x="29" y="648"/>
      <point x="9" y="686"/>
      <point x="9" y="689" type="qcurve" smooth="yes"/>
      <point x="9" y="713"/>
      <point x="57" y="713" type="qcurve" smooth="yes"/>
      <point x="98" y="713"/>
      <point x="104" y="697" type="qcurve" smooth="yes"/>
      <point x="122" y="643"/>
      <point x="269" y="306" type="qcurve"/>
      <point x="400" y="610" type="line" smooth="yes"/>
      <point x="415" y="645"/>
      <point x="433" y="705" type="qcurve" smooth="yes"/>
      <point x="438" y="718"/>
      <point x="453" y="718" type="qcurve" smooth="yes"/>
      <point x="465" y="718"/>
      <point x="481" y="711" type="qcurve" smooth="yes"/>
      <point x="517" y="693"/>
      <point x="517" y="668" type="qcurve" smooth="yes"/>
      <point x="517" y="662"/>
      <point x="490" y="607"/>
      <point x="258" y="77" type="qcurve" smooth="yes"/>
      <point x="218" y="-13"/>
    </contour>
    <contour>
      <point x="397" y="762" type="qcurve" smooth="yes"/>
      <point x="347" y="718"/>
      <point x="191" y="718"/>
      <point x="98" y="797"/>
      <point x="98" y="818" type="qcurve" smooth="yes"/>
      <point x="98" y="829"/>
      <point x="124" y="850"/>
      <point x="152" y="850"/>
      <point x="160" y="837" type="qcurve" smooth="yes"/>
      <point x="173" y="816"/>
      <point x="230" y="788"/>
      <point x="268" y="788" type="qcurve" smooth="yes"/>
      <point x="305" y="788"/>
      <point x="362" y="816"/>
      <point x="374" y="837" type="qcurve" smooth="yes"/>
      <point x="382" y="850"/>
      <point x="397" y="850" type="qcurve" smooth="yes"/>
      <point x="410" y="850"/>
      <point x="436" y="829"/>
      <point x="436" y="819" type="qcurve" smooth="yes"/>
      <point x="436" y="798"/>
    </contour>
  </outline>
</glyph>
<glyph name="u0412" format="2">
  <advance height="1000" width="636"/>
  <unicode hex="0412"/>
  <outline>
    <contour>
      <point x="219" y="-16" type="qcurve" smooth="yes"/>
      <point x="39" y="-16"/>
      <point x="39" y="17" type="qcurve" smooth="yes"/>
      <point x="39" y="26"/>
      <point x="55" y="40"/>
      <point x="89" y="40"/>
      <point x="92" y="41" type="qcurve" smooth="yes"/>
      <point x="92" y="621" type="line"/>
      <point x="82" y="624"/>
      <point x="52" y="655"/>
      <point x="52" y="667" type="qcurve" smooth="yes"/>
      <point x="52" y="680"/>
      <point x="63" y="685" type="qcurve" smooth="yes"/>
      <point x="89" y="695"/>
      <point x="244" y="717"/>
      <point x="318" y="717" type="qcurve" smooth="yes"/>
      <point x="393" y="717"/>
      <point x="443" y="696" type="qcurve" smooth="yes"/>
      <point x="541" y="655"/>
      <point x="541" y="557" type="qcurve" smooth="yes"/>
      <point x="541" y="478"/>
      <point x="472" y="425" type="qcurve" smooth="yes"/>
      <point x="442" y="404"/>
      <point x="436" y="401" type="qcurve"/>
      <point x="461" y="399"/>
      <point x="545" y="348"/>
      <point x="597" y="267"/>
      <point x="597" y="208" type="qcurve" smooth="yes"/>
      <point x="597" y="148"/>
      <point x="569" y="105" type="qcurve" smooth="yes"/>
      <point x="491" y="-16"/>
    </contour>
    <contour>
      <point x="174" y="45" type="line"/>
      <point x="411" y="45"/>
      <point x="482" y="127" type="qcurve" smooth="yes"/>
      <point x="514" y="163"/>
      <point x="514" y="207" type="qcurve" smooth="yes"/>
      <point x="514" y="284"/>
      <point x="455" y="320" type="qcurve" smooth="yes"/>
      <point x="407" y="350"/>
      <point x="338" y="352" type="qcurve" smooth="yes"/>
      <point x="245" y="352"/>
      <point x="174" y="346" type="qcurve"/>
    </contour>
    <contour>
      <point x="174" y="414" type="line"/>
      <point x="181" y="414" type="line" smooth="yes"/>
      <point x="255" y="414"/>
      <point x="341" y="430"/>
      <point x="411" y="464"/>
      <point x="458" y="517"/>
      <point x="458" y="551" type="qcurve" smooth="yes"/>
      <point x="458" y="644"/>
      <point x="300" y="644" type="qcurve" smooth="yes"/>
      <point x="231" y="644"/>
      <point x="174" y="628" type="qcurve"/>
    </contour>
  </outline>
</glyph>
<glyph name="u041B" format="2">
  <advance height="1000" width="676"/>
  <unicode hex="041B"/>
  <outline>
    <contour>
      <point x="55" y="-19" type="qcurve" smooth="yes"/>
      <point x="43" y="-19"/>
      <point x="3" y="9"/>
      <point x="3" y="24" type="qcurve" smooth="yes"/>
      <point x="3" y="38"/>
      <point x="14" y="47" type="qcurve" smooth="yes"/>
      <point x="83" y="99"/>
      <point x="126" y="254"/>
      <point x="126" y="353" type="qcurve" smooth="yes"/>
      <point x="126" y="638" type="line"/>
      <point x="122" y="688" type="line" smooth="yes"/>
      <point x="122" y="708"/>
      <point x="144" y="708" type="qcurve" smooth="yes"/>
      <point x="161" y="708"/>
      <point x="196" y="695" type="qcurve"/>
      <point x="459" y="708" type="line" smooth="yes"/>
      <point x="479" y="710"/>
      <point x="515" y="719"/>
      <point x="529" y="719" type="qcurve" smooth="yes"/>
      <point x="544" y="719"/>
      <point x="567" y="700"/>
      <point x="583" y="676"/>
      <point x="583" y="666" type="qcurve" smooth="yes"/>
      <point x="583" y="657"/>
      <point x="573" y="629"/>
      <point x="573" y="619" type="qcurve" smooth="yes"/>
      <point x="573" y="106" type="line"/>
      <point x="576" y="0" type="line" smooth="yes"/>
      <point x="576" y="-16"/>
      <point x="551" y="-16" type="qcurve" smooth="yes"/>
      <point x="531" y="-16"/>
      <point x="487" y="1"/>
      <point x="487" y="18" type="qcurve" smooth="yes"/>
      <point x="489" y="107" type="line"/>
      <point x="489" y="636" type="line"/>
      <point x="209" y="621" type="line"/>
      <point x="209" y="355" type="line" smooth="yes"/>
      <point x="209" y="233"/>
      <point x="146" y="46"/>
      <point x="71" y="-15" type="qcurve" smooth="yes"/>
      <point x="67" y="-19"/>
    </contour>
  </outline>
</glyph>
<glyph name="u0427" format="2">
  <advance height="1000" width="679"/>
  <unicode hex="0427"/>
  <outline>
    <contour>
      <point x="561" y="-14" type="qcurve" smooth="yes"/>
      <point x="541" y="-14"/>
      <point x="497" y="3"/>
      <point x="497" y="20" type="qcurve" smooth="yes"/>
      <point x="499" y="109" type="line"/>
      <point x="499" y="297" type="line"/>
      <point x="471" y="257"/>
      <point x="355" y="205"/>
      <point x="292" y="205" type="qcurve" smooth="yes"/>
      <point x="228" y="205"/>
      <point x="140" y="264"/>
      <point x="96" y="354"/>
      <point x="96" y="400" type="qcurve" smooth="yes"/>
      <point x="96" y="592" type="line"/>
      <point x="93" y="698" type="line" smooth="yes"/>
      <point x="93" y="714"/>
      <point x="118" y="714" type="qcurve" smooth="yes"/>
      <point x="138" y="714"/>
      <point x="182" y="697"/>
      <point x="182" y="680" type="qcurve" smooth="yes"/>
      <point x="180" y="592" type="line"/>
      <point x="180" y="404" type="line" smooth="yes"/>
      <point x="180" y="346"/>
      <point x="246" y="283"/>
      <point x="300" y="283" type="qcurve" smooth="yes"/>
      <point x="354" y="283"/>
      <point x="392" y="301" type="qcurve" smooth="yes"/>
      <point x="461" y="336"/>
      <point x="485" y="416" type="qcurve" smooth="yes"/>
      <point x="500" y="468"/>
      <point x="500" y="542" type="qcurve" smooth="yes"/>
      <point x="499" y="592" type="line"/>
      <point x="500" y="619" type="line"/>
      <point x="496" y="698" type="line" smooth="yes"/>
      <point x="496" y="714"/>
      <point x="521" y="714" type="qcurve" smooth="yes"/>
      <point x="541" y="714"/>
      <point x="585" y="697"/>
      <point x="585" y="680" type="qcurve" smooth="yes"/>
      <point x="583" y="592" type="line"/>
      <point x="583" y="109" type="line"/>
      <point x="586" y="2" type="line" smooth="yes"/>
      <point x="586" y="-14"/>
    </contour>
  </outline>
</glyph>
<glyph name="u0431" format="2">
  <advance height="1000" width="538"/>
  <unicode hex="0431"/>
  <outline>
    <contour>
      <point x="244" y="-23" type="qcurve" smooth="yes"/>
      <point x="171" y="-23"/>
      <point x="82" y="44"/>
      <point x="39" y="156"/>
      <point x="39" y="233" type="qcurve" smooth="yes"/>
      <point x="39" y="310"/>
      <point x="91" y="452"/>
      <point x="133" y="506" type="qcurve" smooth="yes"/>
      <point x="218" y="608"/>
      <point x="331" y="643" type="qcurve" smooth="yes"/>
      <point x="406" y="665"/>
      <point x="434" y="712" type="qcurve" smooth="yes"/>
      <point x="438" y="721"/>
      <point x="453" y="721" type="qcurve" smooth="yes"/>
      <point x="465" y="721"/>
      <point x="499" y="687"/>
      <point x="499" y="672" type="qcurve" smooth="yes"/>
      <point x="499" y="656"/>
      <point x="492" y="645" type="qcurve" smooth="yes"/>
      <point x="450" y="595"/>
      <point x="276" y="548"/>
      <point x="210" y="480" type="qcurve" smooth="yes"/>
      <point x="174" y="441"/>
      <point x="160" y="408" type="qcurve"/>
      <point x="180" y="427"/>
      <point x="261" y="448"/>
      <point x="294" y="448" type="qcurve" smooth="yes"/>
      <point x="386" y="448"/>
      <point x="484" y="337"/>
      <point x="484" y="239" type="qcurve" smooth="yes"/>
      <point x="484" y="170"/>
      <point x="426" y="50"/>
      <point x="317" y="-23"/>
    </contour>
    <contour>
      <point x="235" y="52" type="qcurve" smooth="yes"/>
      <point x="289" y="52"/>
      <point x="361" y="100"/>
      <point x="402" y="185"/>
      <point x="402" y="246" type="qcurve" smooth="yes"/>
      <point x="402" y="306"/>
      <point x="346" y="374"/>
      <point x="289" y="374" type="qcurve" smooth="yes"/>
      <point x="188" y="374"/>
      <point x="122" y="275" type="qcurve"/>
      <point x="119" y="244"/>
      <point x="119" y="222" type="qcurve" smooth="yes"/>
      <point x="119" y="143"/>
      <point x="181" y="52"/>
    </contour>
  </outline>
</glyph>
<glyph name="u0453" format="2">
  <advance height="1000" width="476"/>
  <unicode hex="0453"/>
  <outline>
    <contour>
      <point x="147" y="-16" type="qcurve" smooth="yes"/>
      <point x="128" y="-16"/>
      <point x="87" y="2"/>
      <point x="87" y="19" type="qcurve" smooth="yes"/>
      <point x="89" y="108" type="line"/>
      <point x="89" y="410" type="line"/>
      <point x="85" y="461" type="line" smooth="yes"/>
      <point x="85" y="481"/>
      <point x="104" y="481" type="qcurve" smooth="yes"/>
      <point x="118" y="481"/>
      <point x="137" y="475" type="qcurve" smooth="yes"/>
      <point x="155" y="468" type="line"/>
      <point x="367" y="484"/>
      <point x="399" y="488" type="qcurve" smooth="yes"/>
      <point x="425" y="491"/>
      <point x="437" y="491" type="qcurve" smooth="yes"/>
      <point x="452" y="491"/>
      <point x="474" y="451"/>
      <point x="474" y="433" type="qcurve" smooth="yes"/>
      <point x="474" y="411"/>
      <point x="455" y="411" type="qcurve" smooth="yes"/>
      <point x="390" y="411"/>
      <point x="352" y="409" type="qcurve" smooth="yes"/>
      <point x="168" y="394" type="line"/>
      <point x="168" y="107"/>
      <point x="171" y="1" type="qcurve" smooth="yes"/>
      <point x="171" y="-16"/>
    </contour>
    <contour>
      <point x="189" y="551" type="qcurve" smooth="yes"/>
      <point x="189" y="559"/>
      <point x="229" y="602"/>
      <point x="342" y="677" type="qcurve" smooth="yes"/>
      <point x="346" y="679"/>
      <point x="354" y="679" type="qcurve" smooth="yes"/>
      <point x="363" y="679"/>
      <point x="377" y="669" type="qcurve" smooth="yes"/>
      <point x="416" y="642"/>
      <point x="416" y="619" type="qcurve" smooth="yes"/>
      <point x="416" y="608"/>
      <point x="405" y="603" type="qcurve" smooth="yes"/>
      <point x="356" y="585"/>
      <point x="260" y="552"/>
      <point x="219" y="528"/>
      <point x="203" y="528"/>
      <point x="189" y="542"/>
    </contour>
  </outline>
</glyph>
<glyph name="u0459" format="2">
  <advance height="1000" width="826"/>
  <unicode hex="0459"/>
  <outline>
    <contour>
      <point x="520" y="-22" type="qcurve" smooth="yes"/>
      <point x="416" y="-20"/>
      <point x="386" y="-10" type="qcurve" smooth="yes"/>
      <point x="362" y="-2"/>
      <point x="362" y="12" type="qcurve" smooth="yes"/>
      <point x="362" y="35"/>
      <point x="395" y="35" type="qcurve"/>
      <point x="395" y="411" type="line"/>
      <point x="190" y="402" type="line"/>
      <point x="190" y="291" type="line" smooth="yes"/>
      <point x="190" y="184"/>
      <point x="159" y="43"/>
      <point x="113" y="-11" type="qcurve" smooth="yes"/>
      <point x="107" y="-18"/>
      <point x="91" y="-18" type="qcurve" smooth="yes"/>
      <point x="76" y="-18"/>
      <point x="39" y="4"/>
      <point x="39" y="15" type="qcurve" smooth="yes"/>
      <point x="39" y="25"/>
      <point x="45" y="34" type="qcurve" smooth="yes"/>
      <point x="90" y="83"/>
      <point x="112" y="200"/>
      <point x="112" y="281" type="qcurve" smooth="yes"/>
      <point x="112" y="417"/>
      <point x="106" y="459"/>
      <point x="106" y="467" type="qcurve" smooth="yes"/>
      <point x="106" y="488"/>
      <point x="129" y="488" type="qcurve" smooth="yes"/>
      <point x="141" y="488"/>
      <point x="162" y="482" type="qcurve" smooth="yes"/>
      <point x="182" y="475" type="line"/>
      <point x="362" y="481" type="line" smooth="yes"/>
      <point x="387" y="482"/>
      <point x="420" y="492"/>
      <point x="450" y="492"/>
      <point x="485" y="459"/>
      <point x="485" y="445" type="qcurve" smooth="yes"/>
      <point x="485" y="432"/>
      <point x="474" y="413"/>
      <point x="474" y="402" type="qcurve" smooth="yes"/>
      <point x="474" y="313" type="line"/>
      <point x="532" y="317"/>
      <point x="602" y="317" type="qcurve" smooth="yes"/>
      <point x="673" y="317"/>
      <point x="776" y="230"/>
      <point x="776" y="163" type="qcurve" smooth="yes"/>
      <point x="776" y="117"/>
      <point x="734" y="42"/>
      <point x="660" y="-8"/>
      <point x="626" y="-14" type="qcurve" smooth="yes"/>
      <point x="573" y="-22"/>
    </contour>
    <contour>
      <point x="494" y="40" type="line" smooth="yes"/>
      <point x="566" y="40"/>
      <point x="654" y="72"/>
      <point x="695" y="120"/>
      <point x="695" y="158" type="qcurve" smooth="yes"/>
      <point x="695" y="224"/>
      <point x="631" y="242" type="qcurve" smooth="yes"/>
      <point x="604" y="250"/>
      <point x="563" y="250" type="qcurve" smooth="yes"/>
      <point x="521" y="250"/>
      <point x="474" y="246" type="qcurve"/>
      <point x="474" y="41" type="line"/>
    </contour>
  </outline>
</glyph>
<glyph name="u045A" format="2">
  <advance height="1000" width="801"/>
  <unicode hex="045A"/>
  <outline>
    <contour>
      <point x="495" y="-22" type="qcurve" smooth="yes"/>
      <point x="391" y="-20"/>
      <point x="361" y="-10" type="qcurve" smooth="yes"/>
      <point x="337" y="-2"/>
      <point x="337" y="12" type="qcurve" smooth="yes"/>
      <point x="337" y="35"/>
      <point x="370" y="35" type="qcurve"/>
      <point x="370" y="222" type="line"/>
      <point x="167" y="209" type="line"/>
      <point x="167" y="109"/>
      <point x="170" y="2" type="qcurve" smooth="yes"/>
      <point x="170" y="-14"/>
      <point x="147" y="-14" type="qcurve" smooth="yes"/>
      <point x="128" y="-14"/>
      <point x="87" y="3"/>
      <point x="87" y="20" type="qcurve" smooth="yes"/>
      <point x="89" y="114"/>
      <point x="89" y="203" type="qcurve"/>
      <point x="79" y="206"/>
      <point x="60" y="244"/>
      <point x="60" y="261" type="qcurve" smooth="yes"/>
      <point x="60" y="282"/>
      <point x="79" y="282" type="qcurve" smooth="yes"/>
      <point x="89" y="282" type="line"/>
      <point x="89" y="375"/>
      <point x="86" y="474" type="qcurve" smooth="yes"/>
      <point x="86" y="490"/>
      <point x="110" y="490" type="qcurve" smooth="yes"/>
      <point x="128" y="490"/>
      <point x="169" y="473"/>
      <point x="169" y="456" type="qcurve" smooth="yes"/>
      <point x="167" y="365"/>
      <point x="167" y="283" type="qcurve"/>
      <point x="165" y="282" type="line"/>
      <point x="371" y="292" type="line"/>
      <point x="371" y="383"/>
      <point x="368" y="474" type="qcurve" smooth="yes"/>
      <point x="368" y="490"/>
      <point x="392" y="490" type="qcurve" smooth="yes"/>
      <point x="410" y="490"/>
      <point x="451" y="473"/>
      <point x="451" y="456" type="qcurve" smooth="yes"/>
      <point x="449" y="371"/>
      <point x="449" y="293" type="qcurve"/>
      <point x="509" y="297"/>
      <point x="649" y="297"/>
      <point x="751" y="210"/>
      <point x="751" y="159" type="qcurve" smooth="yes"/>
      <point x="751" y="107"/>
      <point x="708" y="42"/>
      <point x="635" y="-8"/>
      <point x="601" y="-14" type="qcurve" smooth="yes"/>
      <point x="548" y="-22"/>
    </contour>
    <contour>
      <point x="469" y="40" type="line" smooth="yes"/>
      <point x="541" y="40"/>
      <point x="630" y="72"/>
      <point x="670" y="115"/>
      <point x="670" y="154" type="qcurve" smooth="yes"/>
      <point x="670" y="205"/>
      <point x="606" y="223" type="qcurve" smooth="yes"/>
      <point x="579" y="231"/>
      <point x="538" y="231" type="qcurve" smooth="yes"/>
      <point x="496" y="230"/>
      <point x="449" y="226" type="qcurve"/>
      <point x="449" y="41" type="line"/>
    </contour>
  </outline>
</glyph>
<glyph name="u0463" format="2">
  <advance height="1000" width="523"/>
  <unicode hex="0463"/>
  <outline>
    <contour>
      <point x="197" y="-22" type="qcurve" smooth="yes"/>
      <point x="93" y="-20"/>
      <point x="63" y="-10" type="qcurve" smooth="yes"/>
      <point x="39" y="-2"/>
      <point x="39" y="12" type="qcurve" smooth="yes"/>
      <point x="39" y="35"/>
      <point x="72" y="35" type="qcurve"/>
      <point x="72" y="410" type="line"/>
      <point x="45" y="408" type="line" smooth="yes"/>
      <point x="28" y="408"/>
      <point x="7" y="442"/>
      <point x="7" y="458" type="qcurve" smooth="yes"/>
      <point x="7" y="477"/>
      <point x="24" y="477" type="qcurve" smooth="yes"/>
      <point x="72" y="478" type="line"/>
      <point x="72" y="599"/>
      <point x="69" y="696" type="qcurve" smooth="yes"/>
      <point x="69" y="712"/>
      <point x="93" y="712" type="qcurve" smooth="yes"/>
      <point x="112" y="712"/>
      <point x="153" y="695"/>
      <point x="153" y="678" type="qcurve" smooth="yes"/>
      <point x="151" y="599"/>
      <point x="151" y="480" type="qcurve"/>
      <point x="225" y="481"/>
      <point x="283" y="487" type="qcurve" smooth="yes"/>
      <point x="300" y="487"/>
      <point x="322" y="453"/>
      <point x="322" y="437" type="qcurve" smooth="yes"/>
      <point x="322" y="417"/>
      <point x="305" y="417" type="qcurve" smooth="yes"/>
      <point x="215" y="417"/>
      <point x="151" y="413" type="qcurve"/>
      <point x="151" y="313" type="line"/>
      <point x="209" y="317"/>
      <point x="289" y="317" type="qcurve" smooth="yes"/>
      <point x="370" y="317"/>
      <point x="473" y="230"/>
      <point x="473" y="163" type="qcurve" smooth="yes"/>
      <point x="473" y="117"/>
      <point x="431" y="42"/>
      <point x="357" y="-8"/>
      <point x="323" y="-14" type="qcurve" smooth="yes"/>
      <point x="270" y="-22"/>
    </contour>
    <contour>
      <point x="171" y="40" type="line"/>
      <point x="392" y="40"/>
      <point x="392" y="158" type="qcurve" smooth="yes"/>
      <point x="392" y="224"/>
      <point x="328" y="242" type="qcurve" smooth="yes"/>
      <point x="301" y="250"/>
      <point x="250" y="250" type="qcurve" smooth="yes"/>
      <point x="198" y="250"/>
      <point x="151" y="246" type="qcurve"/>
      <point x="151" y="41" type="line"/>
    </contour>
  </outline>
</glyph>
<glyph name="u0496" format="2">
  <advance height="1000" width="913"/>
  <unicode hex="0496"/>
  <outline>
    <contour>
      <point x="843" y="-177" type="qcurve" smooth="yes"/>
      <point x="808" y="-177"/>
      <point x="805" y="-155" type="qcurve" smooth="yes"/>
      <point x="801" y="-19" type="line"/>
      <point x="792" y="-18"/>
      <point x="785" y="-8" type="qcurve" smooth="yes"/>
      <point x="775" y="9"/>
      <point x="704" y="116"/>
      <point x="591" y="299" type="qcurve"/>
      <point x="561" y="294"/>
      <point x="495" y="291" type="qcurve"/>
      <point x="495" y="106"/>
      <point x="498" y="0" type="qcurve" smooth="yes"/>
      <point x="498" y="-16"/>
      <point x="473" y="-16" type="qcurve" smooth="yes"/>
      <point x="453" y="-16"/>
      <point x="409" y="1"/>
      <point x="409" y="18" type="qcurve" smooth="yes"/>
      <point x="411" y="107"/>
      <point x="411" y="291" type="qcurve"/>
      <point x="379" y="291"/>
      <point x="326" y="299" type="qcurve"/>
      <point x="261" y="191"/>
      <point x="143" y="11"/>
      <point x="128" y="-15"/>
      <point x="112" y="-21"/>
      <point x="98" y="-21" type="qcurve" smooth="yes"/>
      <point x="83" y="-21"/>
      <point x="36" y="-1"/>
      <point x="36" y="12" type="qcurve" smooth="yes"/>
      <point x="36" y="17"/>
      <point x="60" y="43" type="qcurve" smooth="yes"/>
      <point x="126" y="117"/>
      <point x="254" y="317" type="qcurve"/>
      <point x="108" y="359"/>
      <point x="108" y="502" type="qcurve" smooth="yes"/>
      <point x="108" y="608"/>
      <point x="172" y="695" type="qcurve" smooth="yes"/>
      <point x="183" y="709"/>
      <point x="204" y="709" type="qcurve" smooth="yes"/>
      <point x="223" y="709"/>
      <point x="259" y="684"/>
      <point x="259" y="671" type="qcurve" smooth="yes"/>
      <point x="259" y="659"/>
      <point x="251" y="651" type="qcurve" smooth="yes"/>
      <point x="190" y="590"/>
      <point x="190" y="513" type="qcurve" smooth="yes"/>
      <point x="190" y="413"/>
      <point x="299" y="384" type="qcurve" smooth="yes"/>
      <point x="351" y="370"/>
      <point x="411" y="368" type="qcurve"/>
      <point x="411" y="589"/>
      <point x="408" y="695" type="qcurve" smooth="yes"/>
      <point x="408" y="711"/>
      <point x="433" y="711" type="qcurve" smooth="yes"/>
      <point x="453" y="711"/>
      <point x="497" y="694"/>
      <point x="497" y="677" type="qcurve" smooth="yes"/>
      <point x="495" y="588"/>
      <point x="495" y="368" type="qcurve"/>
      <point x="727" y="368"/>
      <point x="727" y="519" type="qcurve" smooth="yes"/>
      <point x="727" y="590"/>
      <point x="666" y="651" type="qcurve" smooth="yes"/>
      <point x="658" y="659"/>
      <point x="658" y="671" type="qcurve" smooth="yes"/>
      <point x="658" y="684"/>
      <point x="694" y="709"/>
      <point x="736" y="709"/>
      <point x="745" y="694" type="qcurve" smooth="yes"/>
      <point x="810" y="607"/>
      <point x="810" y="516" type="qcurve" smooth="yes"/>
      <point x="810" y="360"/>
      <point x="663" y="317" type="qcurve"/>
      <point x="749" y="178"/>
      <point x="825" y="82" type="qcurve"/>
      <point x="831" y="84"/>
      <point x="842" y="84" type="qcurve" smooth="yes"/>
      <point x="885" y="84"/>
      <point x="885" y="57" type="qcurve" smooth="yes"/>
      <point x="879" y="-155" type="line" smooth="yes"/>
      <point x="879" y="-177"/>
    </contour>
  </outline>
</glyph>
